<mxfile host="app.diagrams.net" modified="2020-09-26T11:05:04.063Z" agent="5.0 (Windows NT 10.0; WOW64) AppleWebKit/537.36 (KHTML, like Gecko) Chrome/84.0.4147.89 Safari/537.36" etag="x7gdO-D0rZqyMIROHxd8" version="13.7.5" type="github">
  <diagram id="aiCE2wl9EOCgw8mAgRh2" name="Page-1">
    <mxGraphModel dx="806" dy="825" grid="0" gridSize="1" guides="1" tooltips="1" connect="1" arrows="1" fold="1" page="1" pageScale="1" pageWidth="827" pageHeight="1169" math="0" shadow="1">
      <root>
        <mxCell id="0" />
        <mxCell id="1" parent="0" />
        <mxCell id="ZVaFyEX7qNk-OxdJ1QOL-1" value="Input the training image.&amp;nbsp;" style="rounded=1;whiteSpace=wrap;html=1;fontSize=10;" parent="1" vertex="1">
          <mxGeometry x="246" y="53" width="180" height="20" as="geometry" />
        </mxCell>
        <mxCell id="2MLf7N2p2UA_cOCvT7zq-289" value="" style="shape=table;html=1;whiteSpace=wrap;startSize=0;container=1;collapsible=0;childLayout=tableLayout;fontSize=10;" vertex="1" parent="1">
          <mxGeometry x="485" y="777" width="175" height="175" as="geometry" />
        </mxCell>
        <mxCell id="2MLf7N2p2UA_cOCvT7zq-290" value="" style="shape=partialRectangle;html=1;whiteSpace=wrap;collapsible=0;dropTarget=0;pointerEvents=0;fillColor=none;top=0;left=0;bottom=0;right=0;points=[[0,0.5],[1,0.5]];portConstraint=eastwest;" vertex="1" parent="2MLf7N2p2UA_cOCvT7zq-289">
          <mxGeometry width="175" height="25" as="geometry" />
        </mxCell>
        <mxCell id="2MLf7N2p2UA_cOCvT7zq-291" style="shape=partialRectangle;html=1;whiteSpace=wrap;connectable=0;top=0;left=0;bottom=0;right=0;overflow=hidden;fillColor=#FF3333;" vertex="1" parent="2MLf7N2p2UA_cOCvT7zq-290">
          <mxGeometry width="25" height="25" as="geometry" />
        </mxCell>
        <mxCell id="2MLf7N2p2UA_cOCvT7zq-292" style="shape=partialRectangle;html=1;whiteSpace=wrap;connectable=0;top=0;left=0;bottom=0;right=0;overflow=hidden;fillColor=#33FF33;" vertex="1" parent="2MLf7N2p2UA_cOCvT7zq-290">
          <mxGeometry x="25" width="25" height="25" as="geometry" />
        </mxCell>
        <mxCell id="2MLf7N2p2UA_cOCvT7zq-293" style="shape=partialRectangle;html=1;whiteSpace=wrap;connectable=0;fillColor=none;top=0;left=0;bottom=0;right=0;overflow=hidden;" vertex="1" parent="2MLf7N2p2UA_cOCvT7zq-290">
          <mxGeometry x="50" width="25" height="25" as="geometry" />
        </mxCell>
        <mxCell id="2MLf7N2p2UA_cOCvT7zq-294" style="shape=partialRectangle;html=1;whiteSpace=wrap;connectable=0;fillColor=none;top=0;left=0;bottom=0;right=0;overflow=hidden;" vertex="1" parent="2MLf7N2p2UA_cOCvT7zq-290">
          <mxGeometry x="75" width="25" height="25" as="geometry" />
        </mxCell>
        <mxCell id="2MLf7N2p2UA_cOCvT7zq-295" style="shape=partialRectangle;html=1;whiteSpace=wrap;connectable=0;fillColor=none;top=0;left=0;bottom=0;right=0;overflow=hidden;" vertex="1" parent="2MLf7N2p2UA_cOCvT7zq-290">
          <mxGeometry x="100" width="25" height="25" as="geometry" />
        </mxCell>
        <mxCell id="2MLf7N2p2UA_cOCvT7zq-296" style="shape=partialRectangle;html=1;whiteSpace=wrap;connectable=0;fillColor=none;top=0;left=0;bottom=0;right=0;overflow=hidden;" vertex="1" parent="2MLf7N2p2UA_cOCvT7zq-290">
          <mxGeometry x="125" width="25" height="25" as="geometry" />
        </mxCell>
        <mxCell id="2MLf7N2p2UA_cOCvT7zq-297" style="shape=partialRectangle;html=1;whiteSpace=wrap;connectable=0;fillColor=none;top=0;left=0;bottom=0;right=0;overflow=hidden;" vertex="1" parent="2MLf7N2p2UA_cOCvT7zq-290">
          <mxGeometry x="150" width="25" height="25" as="geometry" />
        </mxCell>
        <mxCell id="2MLf7N2p2UA_cOCvT7zq-300" style="shape=partialRectangle;html=1;whiteSpace=wrap;collapsible=0;dropTarget=0;pointerEvents=0;fillColor=none;top=0;left=0;bottom=0;right=0;points=[[0,0.5],[1,0.5]];portConstraint=eastwest;" vertex="1" parent="2MLf7N2p2UA_cOCvT7zq-289">
          <mxGeometry y="25" width="175" height="25" as="geometry" />
        </mxCell>
        <mxCell id="2MLf7N2p2UA_cOCvT7zq-301" style="shape=partialRectangle;html=1;whiteSpace=wrap;connectable=0;fillColor=none;top=0;left=0;bottom=0;right=0;overflow=hidden;" vertex="1" parent="2MLf7N2p2UA_cOCvT7zq-300">
          <mxGeometry width="25" height="25" as="geometry" />
        </mxCell>
        <mxCell id="2MLf7N2p2UA_cOCvT7zq-302" style="shape=partialRectangle;html=1;whiteSpace=wrap;connectable=0;fillColor=none;top=0;left=0;bottom=0;right=0;overflow=hidden;" vertex="1" parent="2MLf7N2p2UA_cOCvT7zq-300">
          <mxGeometry x="25" width="25" height="25" as="geometry" />
        </mxCell>
        <mxCell id="2MLf7N2p2UA_cOCvT7zq-303" style="shape=partialRectangle;html=1;whiteSpace=wrap;connectable=0;fillColor=none;top=0;left=0;bottom=0;right=0;overflow=hidden;" vertex="1" parent="2MLf7N2p2UA_cOCvT7zq-300">
          <mxGeometry x="50" width="25" height="25" as="geometry" />
        </mxCell>
        <mxCell id="2MLf7N2p2UA_cOCvT7zq-304" style="shape=partialRectangle;html=1;whiteSpace=wrap;connectable=0;fillColor=none;top=0;left=0;bottom=0;right=0;overflow=hidden;" vertex="1" parent="2MLf7N2p2UA_cOCvT7zq-300">
          <mxGeometry x="75" width="25" height="25" as="geometry" />
        </mxCell>
        <mxCell id="2MLf7N2p2UA_cOCvT7zq-305" style="shape=partialRectangle;html=1;whiteSpace=wrap;connectable=0;fillColor=none;top=0;left=0;bottom=0;right=0;overflow=hidden;" vertex="1" parent="2MLf7N2p2UA_cOCvT7zq-300">
          <mxGeometry x="100" width="25" height="25" as="geometry" />
        </mxCell>
        <mxCell id="2MLf7N2p2UA_cOCvT7zq-306" style="shape=partialRectangle;html=1;whiteSpace=wrap;connectable=0;fillColor=none;top=0;left=0;bottom=0;right=0;overflow=hidden;" vertex="1" parent="2MLf7N2p2UA_cOCvT7zq-300">
          <mxGeometry x="125" width="25" height="25" as="geometry" />
        </mxCell>
        <mxCell id="2MLf7N2p2UA_cOCvT7zq-307" style="shape=partialRectangle;html=1;whiteSpace=wrap;connectable=0;fillColor=none;top=0;left=0;bottom=0;right=0;overflow=hidden;" vertex="1" parent="2MLf7N2p2UA_cOCvT7zq-300">
          <mxGeometry x="150" width="25" height="25" as="geometry" />
        </mxCell>
        <mxCell id="2MLf7N2p2UA_cOCvT7zq-310" style="shape=partialRectangle;html=1;whiteSpace=wrap;collapsible=0;dropTarget=0;pointerEvents=0;fillColor=none;top=0;left=0;bottom=0;right=0;points=[[0,0.5],[1,0.5]];portConstraint=eastwest;" vertex="1" parent="2MLf7N2p2UA_cOCvT7zq-289">
          <mxGeometry y="50" width="175" height="25" as="geometry" />
        </mxCell>
        <mxCell id="2MLf7N2p2UA_cOCvT7zq-311" style="shape=partialRectangle;html=1;whiteSpace=wrap;connectable=0;fillColor=none;top=0;left=0;bottom=0;right=0;overflow=hidden;" vertex="1" parent="2MLf7N2p2UA_cOCvT7zq-310">
          <mxGeometry width="25" height="25" as="geometry" />
        </mxCell>
        <mxCell id="2MLf7N2p2UA_cOCvT7zq-312" style="shape=partialRectangle;html=1;whiteSpace=wrap;connectable=0;fillColor=none;top=0;left=0;bottom=0;right=0;overflow=hidden;" vertex="1" parent="2MLf7N2p2UA_cOCvT7zq-310">
          <mxGeometry x="25" width="25" height="25" as="geometry" />
        </mxCell>
        <mxCell id="2MLf7N2p2UA_cOCvT7zq-313" style="shape=partialRectangle;html=1;whiteSpace=wrap;connectable=0;fillColor=none;top=0;left=0;bottom=0;right=0;overflow=hidden;" vertex="1" parent="2MLf7N2p2UA_cOCvT7zq-310">
          <mxGeometry x="50" width="25" height="25" as="geometry" />
        </mxCell>
        <mxCell id="2MLf7N2p2UA_cOCvT7zq-314" style="shape=partialRectangle;html=1;whiteSpace=wrap;connectable=0;fillColor=none;top=0;left=0;bottom=0;right=0;overflow=hidden;" vertex="1" parent="2MLf7N2p2UA_cOCvT7zq-310">
          <mxGeometry x="75" width="25" height="25" as="geometry" />
        </mxCell>
        <mxCell id="2MLf7N2p2UA_cOCvT7zq-315" style="shape=partialRectangle;html=1;whiteSpace=wrap;connectable=0;fillColor=none;top=0;left=0;bottom=0;right=0;overflow=hidden;" vertex="1" parent="2MLf7N2p2UA_cOCvT7zq-310">
          <mxGeometry x="100" width="25" height="25" as="geometry" />
        </mxCell>
        <mxCell id="2MLf7N2p2UA_cOCvT7zq-316" style="shape=partialRectangle;html=1;whiteSpace=wrap;connectable=0;fillColor=none;top=0;left=0;bottom=0;right=0;overflow=hidden;" vertex="1" parent="2MLf7N2p2UA_cOCvT7zq-310">
          <mxGeometry x="125" width="25" height="25" as="geometry" />
        </mxCell>
        <mxCell id="2MLf7N2p2UA_cOCvT7zq-317" style="shape=partialRectangle;html=1;whiteSpace=wrap;connectable=0;fillColor=none;top=0;left=0;bottom=0;right=0;overflow=hidden;" vertex="1" parent="2MLf7N2p2UA_cOCvT7zq-310">
          <mxGeometry x="150" width="25" height="25" as="geometry" />
        </mxCell>
        <mxCell id="2MLf7N2p2UA_cOCvT7zq-320" style="shape=partialRectangle;html=1;whiteSpace=wrap;collapsible=0;dropTarget=0;pointerEvents=0;fillColor=none;top=0;left=0;bottom=0;right=0;points=[[0,0.5],[1,0.5]];portConstraint=eastwest;" vertex="1" parent="2MLf7N2p2UA_cOCvT7zq-289">
          <mxGeometry y="75" width="175" height="25" as="geometry" />
        </mxCell>
        <mxCell id="2MLf7N2p2UA_cOCvT7zq-321" style="shape=partialRectangle;html=1;whiteSpace=wrap;connectable=0;fillColor=none;top=0;left=0;bottom=0;right=0;overflow=hidden;" vertex="1" parent="2MLf7N2p2UA_cOCvT7zq-320">
          <mxGeometry width="25" height="25" as="geometry" />
        </mxCell>
        <mxCell id="2MLf7N2p2UA_cOCvT7zq-322" style="shape=partialRectangle;html=1;whiteSpace=wrap;connectable=0;fillColor=none;top=0;left=0;bottom=0;right=0;overflow=hidden;" vertex="1" parent="2MLf7N2p2UA_cOCvT7zq-320">
          <mxGeometry x="25" width="25" height="25" as="geometry" />
        </mxCell>
        <mxCell id="2MLf7N2p2UA_cOCvT7zq-323" style="shape=partialRectangle;html=1;whiteSpace=wrap;connectable=0;fillColor=none;top=0;left=0;bottom=0;right=0;overflow=hidden;" vertex="1" parent="2MLf7N2p2UA_cOCvT7zq-320">
          <mxGeometry x="50" width="25" height="25" as="geometry" />
        </mxCell>
        <mxCell id="2MLf7N2p2UA_cOCvT7zq-324" style="shape=partialRectangle;html=1;whiteSpace=wrap;connectable=0;fillColor=none;top=0;left=0;bottom=0;right=0;overflow=hidden;" vertex="1" parent="2MLf7N2p2UA_cOCvT7zq-320">
          <mxGeometry x="75" width="25" height="25" as="geometry" />
        </mxCell>
        <mxCell id="2MLf7N2p2UA_cOCvT7zq-325" style="shape=partialRectangle;html=1;whiteSpace=wrap;connectable=0;fillColor=none;top=0;left=0;bottom=0;right=0;overflow=hidden;" vertex="1" parent="2MLf7N2p2UA_cOCvT7zq-320">
          <mxGeometry x="100" width="25" height="25" as="geometry" />
        </mxCell>
        <mxCell id="2MLf7N2p2UA_cOCvT7zq-326" style="shape=partialRectangle;html=1;whiteSpace=wrap;connectable=0;fillColor=none;top=0;left=0;bottom=0;right=0;overflow=hidden;" vertex="1" parent="2MLf7N2p2UA_cOCvT7zq-320">
          <mxGeometry x="125" width="25" height="25" as="geometry" />
        </mxCell>
        <mxCell id="2MLf7N2p2UA_cOCvT7zq-327" style="shape=partialRectangle;html=1;whiteSpace=wrap;connectable=0;fillColor=none;top=0;left=0;bottom=0;right=0;overflow=hidden;" vertex="1" parent="2MLf7N2p2UA_cOCvT7zq-320">
          <mxGeometry x="150" width="25" height="25" as="geometry" />
        </mxCell>
        <mxCell id="2MLf7N2p2UA_cOCvT7zq-330" style="shape=partialRectangle;html=1;whiteSpace=wrap;collapsible=0;dropTarget=0;pointerEvents=0;fillColor=none;top=0;left=0;bottom=0;right=0;points=[[0,0.5],[1,0.5]];portConstraint=eastwest;" vertex="1" parent="2MLf7N2p2UA_cOCvT7zq-289">
          <mxGeometry y="100" width="175" height="25" as="geometry" />
        </mxCell>
        <mxCell id="2MLf7N2p2UA_cOCvT7zq-331" style="shape=partialRectangle;html=1;whiteSpace=wrap;connectable=0;fillColor=none;top=0;left=0;bottom=0;right=0;overflow=hidden;" vertex="1" parent="2MLf7N2p2UA_cOCvT7zq-330">
          <mxGeometry width="25" height="25" as="geometry" />
        </mxCell>
        <mxCell id="2MLf7N2p2UA_cOCvT7zq-332" style="shape=partialRectangle;html=1;whiteSpace=wrap;connectable=0;fillColor=none;top=0;left=0;bottom=0;right=0;overflow=hidden;" vertex="1" parent="2MLf7N2p2UA_cOCvT7zq-330">
          <mxGeometry x="25" width="25" height="25" as="geometry" />
        </mxCell>
        <mxCell id="2MLf7N2p2UA_cOCvT7zq-333" style="shape=partialRectangle;html=1;whiteSpace=wrap;connectable=0;fillColor=none;top=0;left=0;bottom=0;right=0;overflow=hidden;" vertex="1" parent="2MLf7N2p2UA_cOCvT7zq-330">
          <mxGeometry x="50" width="25" height="25" as="geometry" />
        </mxCell>
        <mxCell id="2MLf7N2p2UA_cOCvT7zq-334" style="shape=partialRectangle;html=1;whiteSpace=wrap;connectable=0;fillColor=none;top=0;left=0;bottom=0;right=0;overflow=hidden;" vertex="1" parent="2MLf7N2p2UA_cOCvT7zq-330">
          <mxGeometry x="75" width="25" height="25" as="geometry" />
        </mxCell>
        <mxCell id="2MLf7N2p2UA_cOCvT7zq-335" style="shape=partialRectangle;html=1;whiteSpace=wrap;connectable=0;fillColor=none;top=0;left=0;bottom=0;right=0;overflow=hidden;" vertex="1" parent="2MLf7N2p2UA_cOCvT7zq-330">
          <mxGeometry x="100" width="25" height="25" as="geometry" />
        </mxCell>
        <mxCell id="2MLf7N2p2UA_cOCvT7zq-336" style="shape=partialRectangle;html=1;whiteSpace=wrap;connectable=0;fillColor=none;top=0;left=0;bottom=0;right=0;overflow=hidden;" vertex="1" parent="2MLf7N2p2UA_cOCvT7zq-330">
          <mxGeometry x="125" width="25" height="25" as="geometry" />
        </mxCell>
        <mxCell id="2MLf7N2p2UA_cOCvT7zq-337" style="shape=partialRectangle;html=1;whiteSpace=wrap;connectable=0;fillColor=none;top=0;left=0;bottom=0;right=0;overflow=hidden;" vertex="1" parent="2MLf7N2p2UA_cOCvT7zq-330">
          <mxGeometry x="150" width="25" height="25" as="geometry" />
        </mxCell>
        <mxCell id="2MLf7N2p2UA_cOCvT7zq-340" style="shape=partialRectangle;html=1;whiteSpace=wrap;collapsible=0;dropTarget=0;pointerEvents=0;fillColor=none;top=0;left=0;bottom=0;right=0;points=[[0,0.5],[1,0.5]];portConstraint=eastwest;" vertex="1" parent="2MLf7N2p2UA_cOCvT7zq-289">
          <mxGeometry y="125" width="175" height="25" as="geometry" />
        </mxCell>
        <mxCell id="2MLf7N2p2UA_cOCvT7zq-341" style="shape=partialRectangle;html=1;whiteSpace=wrap;connectable=0;fillColor=none;top=0;left=0;bottom=0;right=0;overflow=hidden;" vertex="1" parent="2MLf7N2p2UA_cOCvT7zq-340">
          <mxGeometry width="25" height="25" as="geometry" />
        </mxCell>
        <mxCell id="2MLf7N2p2UA_cOCvT7zq-342" style="shape=partialRectangle;html=1;whiteSpace=wrap;connectable=0;fillColor=none;top=0;left=0;bottom=0;right=0;overflow=hidden;" vertex="1" parent="2MLf7N2p2UA_cOCvT7zq-340">
          <mxGeometry x="25" width="25" height="25" as="geometry" />
        </mxCell>
        <mxCell id="2MLf7N2p2UA_cOCvT7zq-343" style="shape=partialRectangle;html=1;whiteSpace=wrap;connectable=0;fillColor=none;top=0;left=0;bottom=0;right=0;overflow=hidden;" vertex="1" parent="2MLf7N2p2UA_cOCvT7zq-340">
          <mxGeometry x="50" width="25" height="25" as="geometry" />
        </mxCell>
        <mxCell id="2MLf7N2p2UA_cOCvT7zq-344" style="shape=partialRectangle;html=1;whiteSpace=wrap;connectable=0;fillColor=none;top=0;left=0;bottom=0;right=0;overflow=hidden;" vertex="1" parent="2MLf7N2p2UA_cOCvT7zq-340">
          <mxGeometry x="75" width="25" height="25" as="geometry" />
        </mxCell>
        <mxCell id="2MLf7N2p2UA_cOCvT7zq-345" style="shape=partialRectangle;html=1;whiteSpace=wrap;connectable=0;fillColor=none;top=0;left=0;bottom=0;right=0;overflow=hidden;" vertex="1" parent="2MLf7N2p2UA_cOCvT7zq-340">
          <mxGeometry x="100" width="25" height="25" as="geometry" />
        </mxCell>
        <mxCell id="2MLf7N2p2UA_cOCvT7zq-346" style="shape=partialRectangle;html=1;whiteSpace=wrap;connectable=0;fillColor=none;top=0;left=0;bottom=0;right=0;overflow=hidden;" vertex="1" parent="2MLf7N2p2UA_cOCvT7zq-340">
          <mxGeometry x="125" width="25" height="25" as="geometry" />
        </mxCell>
        <mxCell id="2MLf7N2p2UA_cOCvT7zq-347" style="shape=partialRectangle;html=1;whiteSpace=wrap;connectable=0;fillColor=none;top=0;left=0;bottom=0;right=0;overflow=hidden;" vertex="1" parent="2MLf7N2p2UA_cOCvT7zq-340">
          <mxGeometry x="150" width="25" height="25" as="geometry" />
        </mxCell>
        <mxCell id="2MLf7N2p2UA_cOCvT7zq-350" style="shape=partialRectangle;html=1;whiteSpace=wrap;collapsible=0;dropTarget=0;pointerEvents=0;fillColor=none;top=0;left=0;bottom=0;right=0;points=[[0,0.5],[1,0.5]];portConstraint=eastwest;" vertex="1" parent="2MLf7N2p2UA_cOCvT7zq-289">
          <mxGeometry y="150" width="175" height="25" as="geometry" />
        </mxCell>
        <mxCell id="2MLf7N2p2UA_cOCvT7zq-351" style="shape=partialRectangle;html=1;whiteSpace=wrap;connectable=0;fillColor=none;top=0;left=0;bottom=0;right=0;overflow=hidden;" vertex="1" parent="2MLf7N2p2UA_cOCvT7zq-350">
          <mxGeometry width="25" height="25" as="geometry" />
        </mxCell>
        <mxCell id="2MLf7N2p2UA_cOCvT7zq-352" style="shape=partialRectangle;html=1;whiteSpace=wrap;connectable=0;fillColor=none;top=0;left=0;bottom=0;right=0;overflow=hidden;" vertex="1" parent="2MLf7N2p2UA_cOCvT7zq-350">
          <mxGeometry x="25" width="25" height="25" as="geometry" />
        </mxCell>
        <mxCell id="2MLf7N2p2UA_cOCvT7zq-353" style="shape=partialRectangle;html=1;whiteSpace=wrap;connectable=0;fillColor=none;top=0;left=0;bottom=0;right=0;overflow=hidden;" vertex="1" parent="2MLf7N2p2UA_cOCvT7zq-350">
          <mxGeometry x="50" width="25" height="25" as="geometry" />
        </mxCell>
        <mxCell id="2MLf7N2p2UA_cOCvT7zq-354" style="shape=partialRectangle;html=1;whiteSpace=wrap;connectable=0;fillColor=none;top=0;left=0;bottom=0;right=0;overflow=hidden;" vertex="1" parent="2MLf7N2p2UA_cOCvT7zq-350">
          <mxGeometry x="75" width="25" height="25" as="geometry" />
        </mxCell>
        <mxCell id="2MLf7N2p2UA_cOCvT7zq-355" style="shape=partialRectangle;html=1;whiteSpace=wrap;connectable=0;fillColor=none;top=0;left=0;bottom=0;right=0;overflow=hidden;" vertex="1" parent="2MLf7N2p2UA_cOCvT7zq-350">
          <mxGeometry x="100" width="25" height="25" as="geometry" />
        </mxCell>
        <mxCell id="2MLf7N2p2UA_cOCvT7zq-356" style="shape=partialRectangle;html=1;whiteSpace=wrap;connectable=0;fillColor=none;top=0;left=0;bottom=0;right=0;overflow=hidden;" vertex="1" parent="2MLf7N2p2UA_cOCvT7zq-350">
          <mxGeometry x="125" width="25" height="25" as="geometry" />
        </mxCell>
        <mxCell id="2MLf7N2p2UA_cOCvT7zq-357" style="shape=partialRectangle;html=1;whiteSpace=wrap;connectable=0;fillColor=none;top=0;left=0;bottom=0;right=0;overflow=hidden;" vertex="1" parent="2MLf7N2p2UA_cOCvT7zq-350">
          <mxGeometry x="150" width="25" height="25" as="geometry" />
        </mxCell>
        <mxCell id="ZVaFyEX7qNk-OxdJ1QOL-2" value="" style="shape=image;verticalLabelPosition=bottom;labelBackgroundColor=#ffffff;verticalAlign=top;aspect=fixed;imageAspect=0;image=data:image/png,iVBORw0KGgoAAAANSUhEUgAAAggAAAIHCAYAAAD6qqS2AAAgAElEQVR4XuydBXRUV9eGnyQzcQ8RILg7FHeKuxQo7u5Q3GmRUtyLSylWaHEtlAIFihaH4J4Acc8kk/nXGeRvvwoyATLJvmtlhdJ77NmHe9+7zz77WBgMBgNyCQEhIASEgBAQAkLgTwQsRCDIfBACQkAICAEhIAT+l4AIBJkTQkAICAEhIASEwN8IiECQSSEEhIAQEAJCQAiIQJA5IASEgBAQAkJACLyegHgQXs9I7hACQkAICAEhkOoIiEBIdSaXAQsBISAEhIAQeD0BEQivZyR3CAEhIASEgBBIdQREIKQ6k8uAhYAQEAJCQAi8noAIhNczkjuEgBAQAkJACKQ6AiIQUp3JZcBCQAgIASEgBF5PQATC6xnJHUJACAgBISAEUh0BEQipzuQyYCEgBISAEBACrycgAuH1jOQOISAEhIAQEAKpjoAIhFRnchmwEBACQkAICIHXExCB8HpGcocQEAJCQAgIgVRHQARCqjO5DFgICAEhIASEwOsJiEB4PSO5QwgIASEgBIRAqiMgAiHVmVwGLASEgBAQAkLg9QREILyekdwhBISAEBACQiDVERCBkOpMLgMWAkJACAgBIfB6AiIQXs9I7hACQkAICAEhkOoIiEAw0eQGg4GoqCjUb7mEQEomYGFhgYODA+q3XEJACKR8AiIQTLRxREQENWrUICQkxMSapLgQSN4E7Ozs2L9/P+7u7sm7o9I7ISAEkoSACAQTMYaGhpIjRw569epFuXLlTKxNiguB5EkgMjKSDh06cP36dTw9PZNnJ6VXQkAIJCkBEQgm4lQCIU+ePKxYsYKaNWuaWJsUFwLJk4DykCkhfPXqVREIydNE0ishkOQERCCYiPSlQFi5cqVxqUEuIZASCah5nj17dhEIKdG4MiYh8C8ERCCYODXMVSBEhwXyLCQCjZ0LXp5uaC3fT+BZ6JN73AvQkadgdqyTMLgtMTaE388+pnCJPNhrLP9mxeCHNwjQ+pLHy463a9ZAyK1zPLPLSs50LibOjpRTXARCyrGljEQIvCkBEQhvSupf7jNXgRDx4DSdm3SgzPDv6VG/INbvLBAMRDx9iq2nF9o/vYmjwoOwcXDn7s4pdFmtY9PakXho//4i/1+sCfGRxCVocbCz+U/L6MMfseanS9RrWRU3a6u/3fvw0hGuaAtSJacLVm+lfRJ5eGI7dxxKUD5/WhNnR8opLgIh5dhSRiIE3pSACIQ3JZXCBIIh+i6ti1ag6uKTdCjvgy4mBgutFdFRCTg522NpYSA2OhYrDUTrLHB2tCEiOJA4bHF3tCQ4NBp7dw+ibh5gyvzTdBvbh+wejlhYGIh8fJ4F3/5Ew25f4HV/I41mBPDDd/2xt7DBwc7aSDIhLpqIOAtcnf7/C18fE8zOpV9CwW5ULZMHu8Ro4rEk3qDFwcaC8LAIbJxcsDG+8Q1Eq/92dsIiUW+8LzE2Bo2dvdEbYkiIIyJBg5OtFfq4GCy1GmJi9djb22LUC4nxhIZF4eDsjNbqr8LFoI8lRmeFvZ2W+NhY0GqIjYzBztkRS30c0fFWONhqjZ4JXXQ4MXoNzk72z+s1JBIeFo61gzO2LwVRYgKhoRHYO7tirXkrtWLi7Ey64iIQko6l1CQEzIWACAQTLWWuHgRDzHOBUG3xSSpaHKTrmP1U+NSBQ9uP0nbaOvIE7aDHoseUT+fHwT9CGbxwNXn9t9JjZRRblnVgy4TBxLSeQsGTU+izIoBhk8fRokIutJZ6zu2ZSb+xP9N60DjqpbtM43GnKF9Qz+lbVsxdNZs09w+x9hc/npzZhVuDr+jfuCRaCwi8fZKh7ZrjXnsEtYs5MXXYTDJ/ko3HcVkp6BiMa660HP8tiMmLJhN5bBFdvrrKkrVd+GHCeFxKFObs9l+IK9KHVcNKsmLMEK6XnExHh61MXHqUQtlcOHAmgP6Lv6NhDkvWzl+AQ9as7P5hK675KjOibwdc7SzRhT9gxoDOxFb6kt5FQug6cC1lG+Xk6LqfyNuoO9Y3j7D9bDSTV6+kWNx+pm+9hyboCg61xtC3ogcHlk8hxCs/p7f9SHSa/Awa0IGLuzYSEP6Eo3ddmTSxPxkcn4skc7pEIJiTtaSvQiBpCIhAMJFjShAILXNFULvRCIasnEfuS5OZ+qgGwytqqdhpDes3fo3+zGJ6/ujEhu7eNBh7mX07xnJubm/+qDSabrpdfDbDn41rR+JtqzHS1AfvpW3HLcz4fi4Ol1ZRc6Ifa1ePZfu4nuhbjeP+splkL18Oz/ibHH6UgfGDWuJsY4UhMYLZrSqRdcBmaueNoVXBejRds5Pi7vHsPvmYUrmi+LrfOHosP0BJqz8oWHcFW08v5srktviVH0X3TPdp1vknFu5ezO11A1lj/QXf1rlJ2+ZLGPP9Um6vGcQ2p17ML3uKTvOesWB2f+Z3aYJ128UMrJYe4yqLIZ4dI+txKMtIJrcpSKeGnakzey61rbbS/usgZk3rzp6hjQioOpcuWfy4YZWdW3sXsiS8CTs76GjTeyszf5jLybk9OJZzBF30y5l7JQM1i3px4pcjlO31JfVyubxlXISJkzQJiotASAKIUoUQMDMCIhBMNFhKEAit88ZQp/F4Jv40n2yXpzLy1CeMqelEhW7b2bd7Ek4Bp6g94iCr+2bnszGX2LdjHBfm9eZMhVH01O+h4XR/flw3gjQvYgEMoT/TtsMWZq6di+35FdSb/tgoIHaO7crjqgM5N3synaZOoZyvE5FRsbh7uKKxtARDFHNaVSDrwG3UyR9L23z1abvzBJXShbNg1nKyVCzDsa+HUn36bsrbXiZfzaVsPbuEm9M686TBJNp63+azJouZtmMV/puHstKiD4sa3qNL65V8vX4Z178fyHJdS5a1s2b0yJV81q0z+9dupFLvwZTN4Ph8iYBEfh5Xl5/TD2dyu0/o2rgHny+ZT3X7vbQf+Yg5U7vz8/DaXCz2DZ2yXmPTBS05Xe7zzZn87BqRg5mDRvNJp+H4/7YZn4Z9cdjanw2WLZjSvTxWuihiNO6kcXoupMzpEoFgTtaSvgqBpCEgAsFEjmYrEKLu0KJYeWosOkXr/LHUbvQVk7YsIPulKYw4VZSxNZ0o32wZW44sweHyahbdysvQoqFUaLmCFRtGsHncQMKbzWWs90nqfXWRb6b0omS+LFir9fzIg7T6/DvGftkf+9jfaT3rCZvWj2LnmC48rjMGh1WdWP80F8N7VuduoB2dPq+GvVpjIJYFbUrj3nY6pXP6MLJKY9ruOEXBhCNU6b+f9XMbMqlDd6qMWE2r3KEUqrOcLWeXcn1aR540nEwHJRA+W8i0Xd/x+KehrLTszeL69+nUeiXf/LCc699/wbLYlqzsbMOs2Udo0q0lrnb2uDr+eaeDnn1j6rHPdxhT2helc+NuNFvyLTXs9tBuxGPmTH8hED4Zi8+eXsS1WEmeh98x9NwnbB2Slw2zt1FzYC8yuDji6uxI+OmFVOm4imZDhuPw5D7FWjbl4caV+NTpRpnsribOvg9XXATCh2MtLQmB5EJABIKJljBPgWAg8PYf/LT9IF4FqlAiiwU7dp2icNWq2D3+ndPBXpTPCrW7LmXChE54WFlRoGRpPG3jOLJlE3ctM5LTI4ZnlpmpVNCV/dt+xqN4bcrm8sEY72eI4OCPm4nwLU9Ow1UOXo6kVp3SXD28n0ifklTNpeXgvoP46xypVqcuOdI6v/h6N/Dw9HYO3nWkbFFPDm79mayVGlM6uwO7f9xMgndufGJuEJelKvlsHrFhzyUq16tMwOmDRKUvTWGPMPYevEL5erUIvfArV/VZ+TSrnoPHb1KmTm1C/tjPNV1GmpZM4JtvtmBwsEGni8feOz8D+7fHxdoSvS6SI1vX4+9QgHpFPdi89VcylqlMBp0fBy/HUrFySW4f2k5ommKU9XrG3nMhZM3uy7Wbz6hXORMLv16B3tXBWK/BIg29R/Yh/Nx+Dl98TM6SVfm0iC/Htm7GvVQDCmZwMnH2fbjiIhA+HGtpSQgkFwIiEEy0hHkKhNcPOtTvIMU7bmXfvilkcTC/oLp/H2ECR+f05lfXFrSskMkoCK79cZMKnzXA2ejFePfr0k9TWXy/AH3q5cLSEMO1A8co2Ko9GRzNb0nhfymIQHj3eSElhYC5EhCBYKLlUqZA0HN+3xoWbrvG5z17UTFvel6fwcBEkB+suIHwR5fZvn0fd0MM5ClellJFC5HWze6FF+PdOxIVeJu923dw1T+WLPmLU6ZUCTJ6OjwPfjTzSwSCmRtQui8E3oGACIR3gPbnIurBmStXLgYOHEiZMmVMrC35FE/QxRGvT0SjtUar+XsiouTT03frSUK8joQX49P8Tx6Ed6vxeSl9QjzxCXqsNFo0GiuTRYcpfUnKsurU0pYtW8phTUkJVeoSAsmcgAgEEw0UFhZGkSJFiImJQaMxf1eyiTg+SPHExETUj/D+ILhfNZKQkMDFixdJkybNh21YWhMCQuCjEBCBYCJ2vV7PrVu3UL/l+jAENm/ezKlTpxg7diw2Nv+dkvnD9Ch1tGJpaWk8sMnKKuV5lFKHBWWUQuDtCIhAeDtecncyIDBjxgx27Nhh/LG3t08GPZIuCAEhIARSHgERCCnPpil+RCIQUryJZYBCQAgkAwIiEJKBEaQLb0dABMLb8ZK7hYAQEALvQkAEwrtQkzIflYAIhI+KXxoXAkIglRAQgZBKDJ2ShikCISVZU8YiBIRAciUgAiG5Wkb69a8ERCDI5BACQkAIvH8CIhDeP2NpIQkIxMfHo37UNXPmTPbu3Yva7mhnZ4fafmdra5sErUgVQkAICAEh8JKACASZC2ZB4Ny5cwwePJi4uDiuXbtGVFQUhQoVMiZLqlixojEngiROMgtTSieFgBAwEwIiEMzEUKm9m8p7UKVKFY4cOfIXFMpzsG3bNqpWrYqFRQo49CC1G1rGLwSEQLIhIAIh2ZhCOvI6AitXrqRr166vlhrU/Z9//jnq79VSg1xCQAgIASGQdAREICQdS6npPRMICQmhcuXKnD9/HoPBYIw92LVrF9WrVxfvwXtmL9ULASGQ+giIQEh9NjfrEavAxFatWhkPxypXrhy7d+/G0dHRrMcknRcCQkAIJEcCIhCSo1WkT/9KQB07rGIRrly5YoxHKFy4sHgPZL4IASEgBN4DAREI7wGqVPn+CKilBRVzsGfPHr777js5zfH9oZaahYAQSOUERCCYOAFiY2MJDQ01ronL9WEI6HQ67t+/bzx6WK4PR8DJyUmWcz4cbmlJCHx0AiIQTDSBCpLr1KnTXyLrTaxSir8BASXIZFvjG4BKwltGjRpFnz59sLKySsJapSohIASSKwERCCZaZsuWLcatd8rlnSZNGhNrk+JCIHkSaNOmDbVr12bQoEEiEJKniaRXQiDJCYhAMBGpEgjdu3fnwoULeHl5mVibFBcCyZNAnTp1qFChggiE5Gke6ZUQeC8ERCCYiFUEgokApbhZEBCBYBZmkk4KgSQlIALBRJwiEN4NYKJej4WVFSo5sj4hAUuNxvhnuZInAREIydMu0ish8D4JiEAwkW7qEQg6jm5dwxG/cAoXyYlv7k/Jn+EdTlA0JHBx3yqW/RLIl18N5sLm6Ww458qECZ1w1ViaaA0p/r4IiEB4X2SlXiGQfAmIQDDRNqlCIBji2D+tH3/4tqNjlXTsnj+BiCqT6V7B429f/VH+J3mamJMs6V3/lWz805207bKDeesXYHFyAY3nBLJx/WjSaD+eQEgMPs3lwAwUyOlt4oxImcVFIKRMu8qohMB/ERCBYOL8SB0CIZL5bWpxPl8/JvWpj0vUec6F5aN4TnuiIwJ5eO8RGrf0eFkHMb5LK7wbTaRV4yp4O2qMdGMjArn/wJ9EGzeyZEmPTdwh2rfcwPS1C3C8tJxakx/yw0uBYEgkIvQJz0LisYzxJ9LWl5xZ0mGli+Dhw0eE67RkzpYJbUIk924/RWuTgMHJF2dDCE+ConBLm5G07naEP3nEE4MrthH3ibLxIqOrFbfvPcY7Sy68nG2Iiwzm4d37GJx8SOeayJzu9QktMYLeHeviYRmN/8MH6B29yejlTPizJ8TbaAkLiSeLryv+xrE4kdbXBwdN6tjyJwLBxAeFFBcCZkhABIKJRksVAgEDIdcPMWLIWE6He9B10CjaVC+Cje4Ca7bcoUBOZ6aOnEaNoRO4M6sVnu2X0aJ2SVxtrcAQzuLBPUnfaBAX18/Ht9cUWmQ8T6dW/ywQDInxHJnXg/HHnOnWtAir5y+n8sgl5D42iguZu1Io5AdO+naipddNanVcQe9+tYgz2HLslobhNSz5coEfC74bwdF5/Vmvq03fMjEsnrGBWj36YXVtJz8ElmDNuKJs3fAHhUrmZsWkCWRsNQqr71vzrPIsutXKyvYjfpTM7cR3o0dQfMB0nmz8ijsFW5LDVku2uNNYFW1Hwv1LZK1ShzzujqkidkIEgokPCikuBMyQgAgEE42WOgRCIlFROhKjn7B/0zLmLttFmX7zGei+jpG/Z6V+uZyEPn1CjtKV+X10XdL130HDkhlevDj1+B3dxaNYW3YtmYt7nyUMKXKVzv8iEMDAzTUDGHWxCKsmtWHP1+1YFtWQBU3suPBMy7NT33HcowOTP4USTb9jy+F5ZEgM48DvV7GPPMf4Kb+z5Oe1PN48jFWGHixu782kdk2pN3E9Wf23UOfre6zta82ozdC6QTGigp6SJl8FHs+pz9P6a2jse4Lx22JoUDo7sYFPyFSqOrdWDCK46WTa5/Hi6o/jmbgtgMoNmtGiUSXcbZ57SVL6JQIhpVtYxicE/k5ABIKJsyJVCARDFOtWHaZm86q42Wi4vHoQAw/58l2je/Q+ko9l4zvhaPmEe4/i2Tms3l8Fgu4O47qOodbIWVxdMYTHtScy5JNrRg/CjH9aYsDArbVfMPpKMVZNaMXJb/uwKKIqJa4twb7VbCrEf8esuxWZUMmCEp+vZcex+Wgvb2DCYU8mNbSiS9ulfLNjNQFbR7DashcL23gzuWNjGkxYR6bH26g1/ibrBtjSa5WOtUvG4GwVxPVb0ZyZ2oCn9b/nM9/f6PhtImtnd8FDq+dBcAQn5w0iouVk2uXxIfjeHWJj/Zk0aAxp+3/PiEreaCwtUnxWRxEIJj4opLgQMEMCIhBMNFrqEAgRLBw0nCfp8pLDx4k7F8+TsVZ3WpXQMKp7X06H2FG4xKd07taK2/Oa8WNcdQYO7EFuTxuIu82wZh2IL9Ec27v7uZm+MSM+DaP/0F1MXLMWxxNTaDP/Pqt+WkAhLwcsXgiEDhsTGNCxCn4XblOlVXPOTGjLIduKVM0VzKY/3OhTzZ0ug39g8d4N5A7fQ7svD9OycX62z99Em7mLiNw5ng2Jzfm2gy+TevWm0shV5AnYQIfZt9n640i2fjOGnbcSKFSsPO27d0L3Qydm3ihA/77N2DVlEEef2FCwWFnaN6/O1vG98K8ykgmtKnJq/hBup6tE4oPLZKjXA68Ts9gRX5lxnSuhScH7NEUgmPigkOJCwAwJiEAw0WipQiBgICosjJj4eCMtg4U1rm4uqE0H0eFBBIdFY+PsgYezPQlRwQRFgYenG9aW6o2ZSETwMyJ0VtjbWBCr1+Jil0hIWCwuHp5YxoUSHKnHwzMNtsZdDM89CMPO5mX+iMZoNba4ONmhiwgy3ufgbEdMVAKO9haEhkbj4umFvZWeZ0+D0Dg4QGwsti6u6KNCiTLY4u6oggvDsHF2R6uPIjQyAU9vTwxx4QQGR6B1cCWNmyOGmDCeRiTgnsYdQ3QoQWHRaOxd8XDWEhYURILWCQ9XR+LDA4nSa9BorHB0ciIhMpgogx3uLvYpOhZBBIKJDwopLgTMkIAIBBONljoEgomQ3qq4gYvLejLuSjHWTuuETQr+Kn8rLB/5ZhEIH9kA0rwQ+AgERCCYCF0JhM6dO7Np0yY8PT1NrE2KJ+pjuXTiNx5G2VG8Yik8rVPHNsLkbvm2bdvStGlTBg8eLIc1JXdjSf+EQBIREIFgIsgdO3bQsWNHHB0d5cFpIsu3Ka7X64X32wAz8d6goCDUcc/9+vUT7iaylOJCwFwIiEAw0VIhISHcvHmTxMREE2uS4m9KIDg42Hiq4LRp03B3d3/TYnKfiQQyZMhAunTpTKxFigsBIWAuBEQgmIulpJ+vCDx69IjChQtz/vx5eWHJvBACQkAIvCcCIhDeE1ip9v0REIHw/thKzUJACAiBlwREIMhcMDsCIhDMzmTSYSEgBMyQgAgEMzRaau+yCITUPgNk/EJACHwIAiIQPgRlaSNJCYhASFKcUpkQEAJC4B8JiECQiWF2BEQgmJ3JpMNCQAiYIQERCGZotNTaZZ1OZxy6EgjFixfn9OnTr3YxaLXaFH9gUmq1u4xbCAiBj0NABMLH4S6tviUBg8FAr169uH//PjExMRw+fJiKFStiZ2dnzIWgciJIJsu3hCq3CwEhIAT+g4AIBJkeZkNg+PDhTJky5W9JqZo1a8aqVauwsbExm7FIR4WAEBACyZ2ACITkbiHp3ysCfn5+lClTBpVJ8eWlRMGJEycoVKiQkBICQkAICIEkJCACIQlhSlXvl4BKZz1mzBgmT56MOotBXd27d2fmzJnY2tq+38aldiEgBIRAKiMgAiGVGdzch/vgwQPKly/PvXv3UIGJv/76q9GrIJcQEAJCQAgkLQERCEnLU2p7zwSUF6Fv374sXLiQxo0bs3LlSmOgolxCQAgIASGQtAREIJjIU7m6z507R0JCgok1SfE3JXDnzh2GDh3KpEmTyJYtm2xvfFNwJt5naWlJkSJF0Gg0JtYkxYWAEDAHAiIQTLRSWFiYcU++EgjW1tYm1ibF35RAZGQkDg4OIg7eFJiJ96ltpmp76R9//IGHh4eJtUlxISAEzIGACAQTrRQaGkquXLmMwXNqbVwuIZASCURERFCvXj3UThLJN5ESLSxjEgJ/JyACwcRZoQRCnjx5jGvhNWrUMLE2KS4EkicBNc+zZ8/O1atXRSAkTxNJr4RAkhMQgWAi0hQrEAwGsLB4YzrKBW3xFve/ScUG4F978Jb9+3N776OvbzIec75HBII5W0/6LgTejYAIhHfj9qqUeQsEA3cuHOf8rQDsPHNQtmQ+HDVw7dg29l9KoH2nxjhqXi8S9JFPmTN3K/V7tyObU9LEYVz/bSOHE8vTvpwPGsv/MZIhkh+Wr6FC8w74OLxde/roYBbO/4lq3dqQ01kyL77p9BeB8Kak5D4hkHIIiEAw0ZbmKhASYoLYOPNLnmSuz+eV8/Hw5E/8+IcF/QZ1weHqSlpN9GPV+ql42LwQCIYYbt4IIHPOLPxvDLshPpoTJ66Tp2QBXLRW/07UEM/NkxfxKVYYR6v/fev/tVjIQz/uWWagYFp7LP+mURLwO3+BDHkLY6/973r+tzOGhFhOn7pGjqIFcLX+j76aOC9SWnERCCnNojIeIfB6AiIQXs/oP+8wV4Fwde90Gs2OYv/6Yfg6W2NI1PHtgMYcz/0Vi6r40Wb4GRYtG4aVpT2ujlac/H40iy/4MGRgF3L6OBD+7CHRNl74uNhggYGooBCs3FyxIZEonR5iIrBwcsfhT5//d4+upvPYY4z7dixlsnoQHBqH1jIBWxdnLCKf8SRKQ3pvDywtwRAfQ2CsljSOGnSRoVja2hAWFoe7h6tRMMRER6C1cUBjoSM0IhHrhFDi7dLgYv/coxAbEcTTaC3pvZyw+p+lj+jgECxdXbC1sCA8KhZbKz0h8Rq8nGyICPRH6+KNnRIPBj3+Dx9h454Od4fnsighLgz/YD1pfdzQvKg3LiqYgHBLfH1csLKAiKePiNU4YefkhONbChgTp+N7Ky4C4b2hlYqFQLIlIALBRNOYp0AwsHlkLaZbDmffmArYa59/ou/7tgedNqblxLwcdOqxiRqNSnPm8GEy1h1I9YjlTL2Ug/EjunFr3RTuZq2C9S8zcWw2i7ppH9Oq62q+3DCBe3N7csSuAgXtQlj+qyUbNowmy4tlh5u7ZlN39BlmrxiD9fm19Nscx+d5EnHImpEHEWkoZXWRzaHFWTqoHNtmDOFAhpGMyn2M/sPXU7NlQy4f2kvWDtNpm/URQ4fPY9TcWRyd3Z+NQQWoX9CCPSeDmTV7LGEH5rP1SQ6qZrzDjI0P6NT3CyoXSmeMZwi+foQ2XZcx8ofpOP4+j/F7rGhaxotNS9ZStGUXXKNusO26G0snNWDNoNFkaNqac1s30vLLWTjf2s6Cwwaaloxj7rJj1O8xlPTBZ3iocUdzcwsHoyvSvSKceOZJ2tBbPCnamFZ53IyiwdwvEQjmbkHpvxB4ewIiEN6e2V9KmK1AGFGDKRYjODCu4iuBsH9xbzqu9+HEvGz0HH6CheumE31oFs1mBLCis54pV4qyZFxz/A4fIsLBjt/n9CTw01mMre9LrVqjmbBnKc5rOrAuTW9GVXWhVon+TDy6g7Lp7I3Moi78SLm+v7N999fEnVpDnYVxHPm2JYnhd7gRqMd//3LG/ZaOQxsHc2X9UBbG9WT5Zw9p32QeX236ngcbh7I0piWr+uZmePt29J61hnvf92dRRH1WDa/CoA7daTttGudGN+dR5dmMqK+labeVLFowDm/H554FfdhDGtQdwpDNSygev4lOUxNYMKkVu3qX4kGNZfSr5EzdZlOYsmECkUdOYe2pZcX06TSYvga2jma9RTuW9s5E73bDGTlrOtOHjSBHxYr4aCO5F52O6pluMWLRFVp17ED58sVI76T990BLE+fehywuAuFD0pa2hEDyICACwUQ7mKdAgKt7Z1BnQgC/7JpIZictYGDxF405U+RLZpa8Qpvhp1m8dgp2l1ZTe9I9FjYP4etLRVk8ujHLx32Fc61W5Do6kK3ewxlV15c6tcbw1Z4luK7rxE/p+jOkohN1i/Vg9OHdlPf9u0DQnVlH3eVwclgGpm4AACAASURBVGFLHhxYyNawXNRyuUnHJaHsXT+Yqz8MZ2FMd5Y1eUSnz79l4sbvuL9pOPNDm7B6QAFGdGxNrxlreLBmAEviPmfFwPIM6dSVZlPmkPHeZqase0CF4m6EO5egeY2i2Lz4jE80CoShDN68mOKJW+g+PZF545uzr19J7tVYSe/yjtRtOpHxi3rxw4TvqDdsAJcWDiJz3wWUSjjDyKkHqVo1G4H6TLRrWIq+zdtT+asFNM2fhicBT3G0iuXmLT/WLPqWqHJjmNul2Ku2TZxqH7W4CISPil8aFwIfhYAIBBOxm6tASIh6wndTxhOWuQql86Un2v8SR/30dOnVAc/w3+g1eD31u3Qg5vpxInI2oLFmC20XPqR7r87smToIm2rtyH9rMXssGjOqXT7aN5vA0LUL0G7oxe60vRhezYkmVQYwZMceGhbyMcYN6G7/Qo0Ws+kwaSxZAvfRakUsh74fxOONQ5n7MC+fpffnq+/9WbbuS+5vGM2S6JYsbBhCz+4rGbd2JQ/WD2NxUE2+G5CP4d360XrqCoLWDWJ1TF1WDCrN4K4DqDN+HhlPzmSJnxclcnni6p2dcp+WI51RBEHUvTPUaTiC3qsX80n4OvossWT2hNbsGlCFR5XnMqCSDY1bTWXYN+2ZO3QODYcM4MH2b7GtMYRaLheYsSeEioXS45ImI2U+rcD1dWOZuv0WxcoUJ2eRSpSwPsuF+AI4PjnBQavKTG7zCdYpYI1BBIKJDwopLgTMkIAIBBONZq4C4bm/PRb/gGfoEy3QGyxJ4+2Ng40KzosnMMCfyHhLbO0d8fJwwSIhkjt3A3BOmxnLiMc8jUwkrbuGwChr0rppuP/gGe5p06IP8yfayh1vFysePHiCh28WPF3snrvZ9bE8uHMXS7d02MWH8jg4gUxZM2CdEMadB4G4uLkQER5N+ozpiHz2iJAER9I6g/+zMLx8MxAfEkBogh2+aWzwf/wMR+/0EB5AuN4BX087/B89wd7TG78tq7jl6IttbDjBDy8SnbUjg5rlN8YCxEeFcOf+E1zSpsdWF0JABPh4uxPu/wC9gydejnD/URCeadOiC/Yn0sIJF5t4oizdCDu7g+MRtrgmRBAacJPL2jpM65Kfp48fERFnhW+WTNjogngcmoCttRZnjzQ4ppCdEiIQTHxQSHEhYIYERCCYaDSzFggmjj05FtdHPaF35wFkqlSbgr4uhAYFkbFkA8rmcjMxFiCRaV90ITRTWUpm8yI6NAinfLWoUdjzb7skkiMXU/skAsFUglJeCJgfAREIJtpMBIKJAJO6uEFPwO1zHD/tR5zWjU+KFyerr8erLYmmNBf88ApHj58nwuBAgaIlyJ3FG+3fkzSY0kSyLSsCIdmaRjomBN4bAREIJqIVgWAiwPdUXKVTVqmaLZM6/fOLelVa6RSwe/GN6YtAeGNUcqMQSDEERCCYaMqUKRBiOLDpR/LVaIqP04t0xHFB/LprD5E561Err/O/7u2PD7nH1s0HyVanGYXtb/Lj4Sjq1SxpjOQPuH2Jy1cv8ighM5UKOnP3+iXuRHjRqH4FnJPZWn3ow8vs3HmEsk06ktnjv9M5hz28wKrjsXRpVAy7v+WFNnGCJZPiIhCSiSGkG0LgAxIQgWAi7JQpEBK4cvI4vgVL46SJ5NqdGHJlcWft+M78XuBrZn7my78lCNRHPqFHo/aUm7GWtrliOXElik8KZkdrEcyMr5dQt2kDNv20D13IA1r37MuuH3dTr3P7V8mU3sUciXHhXHtiQS5fJ16TwfmNq9cFnqZFhS703fYbFbM7/L2cPpJLfqHkyZ0eXehDDl7XU614JrQpYMfCP0ESgfDGU0duFAIphoAIBBNNaZYCwaAj4P5DIhO0uLpoCQuNROPsjadtHAGBEfj4ZsYqMRIrrSO/rx3D/Ct5mDK4EedWDWJfhuF8WdEGa2cPHG3+eg6CXhfN06dBTOvVl8ITltOmgCsRkTHY22rwv7uFwaOOMXTcFzhxmtGDfuKLbyaRO5sPtlaJPH0Wjoe3p9HTEBsRQaLGkngLO5xtLYkLDyTc4Iinsy0WBj3hsQlYG2KJsXDE1V7Pse+nsDKoKGNal8fXw/G569+QQEioDiuVytnJCWtLA4FPnmHn7omD1pJEXTT+gVHGnRMOtlrjSZSRwc+I1Trj4WSDhe46HYu2oP1PP5NdE0q8vRdedrH4B0XgnS4D1/fMZuR+N+aNbkLmNPYEh8Ti4e5gPAAzKugJsVoX3J2f797QxUZjpbUhLDwSVxdnLC0t0EWFEhRtiYuLPXZazdscnGnijH234iIQ3o2blBIC5kxABIKJ1jNLgUA8x9ZPYdgBb1aPLs78LwZS5IvF1HC7x6T9cfSq7szUr+bQf/pczi4cwPyHRZk7pgMPfhzB2ugylLc6zbF73syfNRSXFyIh/MY+Vu65T55sTkwdPpdWqzZS7PFKph72Ys6oFty+sJSRE87RZ0gvPKzPMG7YbnqMGUUBn2gOnn+Gh8Vttp9KoF+bYowavpRCn+bgsXUlmmYLIsLCllt7v8dQphNFYvaz8loaSntHsGX7Db5ZNZ3bm8bxXWBpJnavT/4snlgSy89LJzDmVy2VPYLIU78j8Q+v4+EQwbafjtN90iiu795OxkL5+O1iFD2al2HvssXosxcixu8QzzI0oG8DD3qXaEm7zfuxu7icUSdzsm5wUVaM6EaeHjNJ/HUuI455s2xCG3Rn1zFgvxcHZjfk9x+WE+KRn7Arh7jrXoWuFS2ZOHI2patV48LRX9BWHsqEegZWbPAjT1YHrpKJdlWLYpvMz40SgWDig0KKCwEzJCACwUSjmadAgDj/c1SvO4Ep2+Zxckwz/Mp8TbtsoVjkqUBRbwtGt2lMyyk/EL5nIpPvV+aHUdX5eW5vtrr3Y+7nega0HMfw5d+TwVULiRHMa1sXq/Zr6F7RlcGNW1Fw4kraZthHq5HP+HZGL5wN++jQ4zgzvx2Lq8UROrRYz7Q18/llSj+OOOSjuI+WWzdCaNKtKWPaDaXHsnmU9LBkxBcjKFCyNNrwu4R4lKJR9ouM2pOJb4eWZVrNshSefoxsAQuZ96QB89oXwfbFUZN+P39L09Ua9s9uhv/ptcw8Ek2lHO48uXGTEi0+Y+uoYThU60vbuqVxDjlFtRGnOLBhGPZB56nVdCbTNw9hcfWOtNt8mPQBG2mz0ZG9U+qzeWh9nNssItujn+h+MBM/T2lI4B8/UnXmM44M8aTjiMMs+nEmaZ78StX645i+fT2bhveg5dR1OJ+ZQ4/dHmwc4UmHbuuo3WcENUvlIJ2b4z+cWGnixEzi4iIQkhioVCcEzICACAQTjWSuAoHEaLZ8UZffHGuRu2guNq48QN3PytC+5ec4aeMY064RzSdv+B+B0Ie9vsOYXj+Oga2GMWjxGjK6WYPuGQOqVybD4G0MqOHFsKatyfflctpmPUCbYQHMn/7vAmH72NZcyDeA8Z/nRxcaQpwN9G45gv7fz6esu46WzYcwaOZU8nnYEBISSvzD9Yz7JSfz+pdgVp1S5Jx4mOxPF/9NIFw/sIhmPzjx29xm3D4whdEn8rN0UFXsEnWEG2IIvXGdI3t/YusVRwZ2zkunYcc5cGA6vrEPqPPZOL5aP5ClNTo9FwhPNtHmB4dXAsGpzSKy/0kgBJ3bTNUZTzjQ05rGw39l7c4VZOUSTcv3ZuDWH9gytg9dZqzB+tQ8umxxZOM3Dbh27ix7flzNzTSfMX9YE5xUgqpkfIlASMbGka4JgfdEQASCiWDNViAAcbfW0eHr60yd3odN/dsQW/9rhjQqSHzkQwa1akWDrzfgdXUp/bdZMmFYG/zWDueXtP2Z1lDP4I5f0m/ROopkdMECHYfn9mPmWSd6d67LyjGjKTT4W9pnOUTHic9YMGcINk/X0nHIWabNn4B77F46dtvM5BUL0VxdQ8+vt1Giek18PNPzWdW8dGs9gs7LFtMolxfzB7Vg+wN3apXPRfrcZcgRt52vDudg7sAyzGpUmRxjf6acZidDdrjwVY+aFMqRHisLPac2TqPVBit+XdYbu+AztG03lHSla5I/gxtV65fg+E4/SlbIx5KF22j7RRNWDRhIjjYjKOMTzqbzlvRv5EGPSh1os/YgpW3O02DgjwzuU4+jSyfg23EeNe3/oN2C+8wY3xWXB7upPzeA35Y0ZeWYMXjW60MJp8cs+TWR0b0/YVyXfrSZ9j2Op2bTZ7sd6wanZ/f1TJTIEs/CfU8YUDctc/fHMbFfzWS3m+PlPw8RCCY+KKS4EDBDAiIQTDSaOQsEiMM/IAJvbw8iH90h3j0THvZW6KICuXr5Fs6Z85LeNpqLfo/wzZGVyIe3CNV4kTWNBbdvBZA2Z37SutkaA/EM8ZHcuOpHRKItWvQ4e6fDWR/Izad6cuTKjj74Djf9Y8iUJSva+KfcfBBGhiw58Paw4fGNazwIjiN91lz42MVx6epd3DPnIouPK7qwJ1z1u02cxoXcubMS++QG9yNsyJbBnYd+17DzzUMGVwOXrtzDN2defFztVE5nAu74GdvOXyAXrnZWPLt3nVv+oTh5ZyVXJkfuXL2DlaMTVjZO+Pq4oQt+wO2ASGxsbPBMnxHbhGAuXrxFmmz5yeCm5fqli8TZe+FhGUacvS++bnDl8m28s+fGOsofv8dxFCiQC2tdIDcfhmFja4tnel/sE0K4eu0ebplzYx1xn/shFuTJ6sT9R5E4Otli6+yFs0U4lx/qKZQ3PdbJNPGSCAQTHxRSXAiYIQERCCYazbwFgomDl+KphoAIhFRjahmoEHhFQASCiZNBPThz5MhB8+bNKV68uIm1SXEhkDwJREVFMXz4cG7cuIGnp2fy7KT0SggIgSQlIALBRJyRkZG0atWK6OhoLC3/mhfAxKql+L8Q0Ol0nDp1imLFihmXBOT6MARUroj169fj6ur6YRqUVoSAEPioBEQgmIhf5fxXXgT1W64PQ8Df358KFSpw5MgRfHx8Pkyj0ooxmZQSB+q3XEJACKR8AiIQUr6NU9wIHz16ROHChTl//jzp0qVLceOTAQkBISAEkgMBEQjJwQrSh7ciIALhrXDJzUJACAiBdyIgAuGdsEmhj0lABMLHpC9tCwEhkFoIiEBILZZOQeMUgZCCjClDEQJCINkSEIGQbE0jHfs3AiIQZG4IASEgBN4/AREI75+xtJDEBEQgJDFQqU4ICAEh8A8ERCDItDA7AiIQzM5k0mEhIATMkIAIBDM0WmrvsgiE1D4DZPxCQAh8CAIiED4EZWkjSQmIQEhSnFKZEBACQuAfCYhAkIlhdgREIJidyaTDQkAImCEBEQhmaLTU3mURCKl9Bsj4hYAQ+BAERCB8CMrSRpISEIGQpDilMiEgBISALDHIHEgZBEQgpAw7yiiEgBBI3gTEg5C87SO9+wcCIhBkWggBISAE3j8BEQjvn7G08A4ELl26xOXLl2nYsCE2NjZ/qUEEwjsAlSJCQAgIgbckIALhLYHJ7R+GwJ49e2jdujVFixalQ4cO1KpVCxcXF2PjIhA+jA2kFSEgBFI3AbMSCAaDIXVbKxWNfvfu3UbvQXx8PLa2tuTPn5/Ro0dTtWpVgoODKVKkCOfPnyddunSpiIoMVQgIASHw4QiYjUAICwvjq6++IjY29sPRkZY+GoE7d+6gvAgvRaGFhQWOjo6UKFGCOnXqGOeCWoIQgfDRTCQNCwEhkMIJmI1AGDt2LEuXLqVixYqol4VcKZuAWkY4fPjwK4GgRuvg4EDx4sWNSw4DBgzg4sWLIhBS9jSQ0QkBIfARCZiNQOjbty9+fn7s3LkTKyurj4hMmv4QBP68xKDaK1WqFGPGjKFcuXIob5IsMXwIK0gbQkAIpGYCZicQ1IvD0tIyNdssVYz9pUBQMQdt27alcuXKuLu7G8WhBCmmiikggxQCQuAjExCB8JENIM3/M4GrV6+i4hCU58DNze0vy0oiEGTWCAEhIATePwERCO+fsbTwDgRUcKL6+SdvkQiEdwAqRYSAEBACb0lABMJbApPbPz4BEQgf3wbSAyEgBFI+AREIKd/GKWaEkZGRJCYm8vjxY8qWLcuxY8dImzatcflB7XCQ2JQUY2oZiBAQAsmAgAiEZGAE6cLrCajlBrW98dy5cyihoOITcufOjVarJUOGDKxcuRIPD4/XVyR3CAEhIASEwBsREIHwRpjkpuRAYNasWQwePJiEhIS/dEflRJgyZQoajSY5dFP6IASEgBBIEQREIKQIM6aOQTx79oxPPvmEhw8fvhqwj48Pv//+O5kyZUodEGSUQkAICIEPREAEwgcCLc2YTkAtMyxbtoxevXqh0+mMsQcqw+bIkSPFe2A6XqlBCAgBIfAXAiIQZEKYFYGgoCAqVaqEOg5anc1w8uRJ8uTJY1ZjkM4KASEgBMyBgAgEc7CS9PEVAb1ez5AhQ5gzZw7Dhg0znvBobW0thISAEBACQiCJCYhASGKgUl3SElBxBzdu3EBlVjx79iynT58mIiICf39/Y+pldTZDsWLFyJcvHzlz5iR9+vRymFfSmkBqEwJCIJUSEIGQSg2fHIetdifExMQQEhLCoUOHjMc9K2EQHh5u7K5aWqhZsyZ58+YlLi4OJR727dvH/v37jQc4OTk5GYMVa9SoQZUqVYwnPdrZ2YmHITkaW/okBIRAsicgAiHZmyhld1AFG164cMGY9OiPP/7g2rVrxsOYlDdAeQby589vzHeQNWvWVy/7l6d5qqBFJRRiY2N58OAB169f5/Lly5w5c8YYo+Ds7EyuXLkoWLAgpUuXNtanRIRcQkAICAEh8HoCIhBez0juSCICKn4gMDDQ+DJXQuDo0aPGZQP19+rFrURAmTJlKF68ON7e3ri4uGBra/tWrcfHxxu9CSqY8fz588Y2rly5YvRCqP+nvA8qC6MSDSrBksrEqJItySUEhIAQEAJ/JSACQWbEeyeg4gV27tzJrl278PPzM8YPuLq6UqdOHeOSQfbs2VH5DNQXv9q6mNRXdHQ0AQEB3Lt3j4MHD7J9+3ZjJkYvLy8yZ86MOlK6Xr16Rm+DpGtOavpSnxAQAuZKQASCuVoumfZbBRCqJQO1XKB+X7x40RhToESAegGrJQP19Z4xY0bj+QnKQ/ChXsovlySUYFAiRS1DqB/lzVDCRfXjZf8KFy6M+vH09HwvoiWZmk+6JQSEgBB4RUAEgkyGdyagggqDg4ONwYJKEPzyyy9Gt75aMlBueyUEKleuTJEiRUiTJg1ubm7Jzp2vDn96uSShAiKVh+H48ePGYEnlzVDCRgVHqqUPteyhdk687bLHOwOWgkJACAiBj0hABMJHhG+OTauvcLWmf+DAAY4cOWJ01avUx8pVr16kJUuWJEuWLMbdBMpDoM5H+FAeAlN5KrGgxI0KfFRjUmNTwufXX381xkqoZRAVJ6FiJNSyhPot5z+YSl3KCwEhkFwJiEBIrpZJJv16+vSpcXeA+rpWuwNeBhWql6USBUWLFjV6CNKlS0vUswc8CIzC2TsLeXJmxNbqP+IJ9HHcvXSCqxHuVCmdH2urJBxw7H32HrxDxWoVsf2H85ti7x3n4D1HqlUowOuOd1JiQS2bKE+JEguKwc2bN41HTkdFRVGoUKFXeRjUEoqvr6/ZCKIkJC5VCQEhkAIJiEBIgUZ91yGpKH/lWlc7AFQegr179xrX5tULUm0tVB4ClWNAbTtU7na1ZPD/QYUGwm4eoFmTgXScu5lGZbOgtfwngWAg7P5D9D5eJJ6bRa91biz9pgtO1q8PTtRHB3I/wonMXjb8Zyyjzp9fj9yhdKUy2PyD8ND5/8Fvd22pWDoPb6tLlAdF8VDLKnfv3uXnn382elMUM5X6We2MUN4F9aP+rPIw2NjYvKtJpJwQEAJC4KMREIHw0dAnj4ZVDgEVN6DyEJw7d84YsPfkyRNjQOHLDIXqz2rZ4OXL7t+WDAxhZ2lYsgV9fjxB1XwuRAU9IdHGGa2d3Stvgi70FiP6z6HykAFUT3OYTt/omDWuOZZWNjjba1EywaCLIjBch4eHG/+vMeLYPmssx7w/Z3CD/DhrDMRbWaGPTcDBTktI4DM0ju4426u0ywZiIiOxcXDC0hBHZAxo9RHEW7viqFwKBj2RUbE4ODqgi4oCGy0RITG4pnFGY1QeBsKCgtA4ueNgbfmvhlJiQeVxUAxV7gblaVHLLyrbowrOVLwUuwIFCrzavqm2bsolBISAEDAHAiIQzMFKSdRHtb6ulgzu379vXDJQwXjKba4u9fWrAvJUMJ5aNlBbANVWxLf5+jWE/UGjks3p/eMJMkUc5niIC9prp7Gv34V62ZxRr9qQq7/wWftpNPlyFJ2K3KL90AtUKeLGzp9vMHj+XPJzkb0nA4h5fIF9AVmYOaYlXnYaDDGP+bpPVy5na8+I+pnZOGc2NsUK8+ihLSVcHqHJVoaLvxym1pARpL21icnrHzFt6gB2TO3Pz9EFKeLqz9mnHkz/qgdXN3zJDwGFGds6B0OGLKJwzU/wP7SLNPXH0q9ebtbOWoBTkaJc37aa8IzV6dm7ORns3yxXggrcfBn0qHZIqDwMKnlTaGioMbZBeV8UY7U0oXZyqGyPcpZEEk1wqUYICIEkJSACIUlxJs/K1Nftjh07jKmL1ZKBWj9Xuwrq1q1LtWrVjMJAvaiUSDAlD8GfBYL1qUl8/ZsD4/u3JlO2zHjaPXfmJ0Y9o3mTofRfPZcyFptpOTqYeVPbsrxNFey7b8T3YA/+8GxKFsdofjv9iAGTviJPmucu+g3jO3OuyDjG107P8i+aE99xNi0y23Dz9yN4pvVgyvCvyDZ6NQPynKN9x13MXj2Dc992YUlkA1aOrMaAdj3pMnMe2c5OofO+dKz8ujU9G3ei8cx5VA1cRM/t6ZjcowRNui1lxbpJxK1qwxqPvoxrUYE3WAH5V+MrD4PaVqkSRKmlm23bthm9DWoLpQrmVDs96tevb0zi9DJLZPKcSdIrISAEUhMBEQgpzNoqY6BaKlA/L/MQqL/LkSOH8etVHWqkXN7q69Xe3j5J8xD8WSAUc3nMLz/v48fthynedSp9a2QzLhf8r0BoPymWuZOa8X37yiS0+Q67Te2gxXKalc6CIfQBie45cbV/7ub/f4Hgy6oh7bDtM5Pm6RPZMGseTqWacn3DZBJbTOOLwpfo2HY7M1fP4OKibqzQt2TZF+X4okM3Wk2dQ77z0+mw28coEHp/3oe2i+ZQ9ulSuq11YtaIhnw7eChONZridGU/6Rt9QaW8aY3eD1Ovl3kYVJyHWsb5cx4GtbSj/r8SCco+L/MwqEyPpog2U/v8j+UNsZz97TD3gmLwzlGUEnnSowu8xZGTl7FPn49ShbKjTQpg76XzUqkQEAJvSkAEwpuSSob3qaBCFV2vlg1UdL3ajqfWvtWLRuUhUC8ZFVio3NkfIg9BxN0DNKjShe6rDpIl8hCGjOUIPLCIA46f8027T9BYWpAYE0LnJl0oMWgo9dMcpe88PXO+bsXqTjVJbLmKBpYb6L3sHrXqVMAq1p6WPVrgY/98r8GOGT3ZEN+AEa0KsGt8bzSdp9MtVzA9G4/kszHjOb7oS6KqD2RImSD69N/LjO/mcn5BJ9YkNGXpF2X4olNvmnw9l7znp9PrZ2+Wfd2CPi360WLOHEoHLKXPRidmj23GzC9nkrdiWXxc3MiSNx/Z0rlj9R4yPBo9KomJxjTQKgW18u4oD4OKB1E7JJQwUDtFKlasaEwPrXaOeHh4GGMbPu6VwK1Da+g8eAHdZq2naeksxIfcZPTUTTTr3oVPMnr8KXbEtJ4q74tiJJcQSOkE1L/r5PYxIALBDGedEgEqcl6tb9+6dcu4Z/9lQp8SJUoY9+q/zFSoXNYfJg+BgaB7Vzh6xo90uYrhbR3IvTANzlorvLPlwNtRBQ+q+L8Erp36jacWacjqGM7FxxYULJiVe2dOYOFbmGI53Lhw8jiPwi3IXbwM2T0dXr1sQh5e5fcrzyhcKDv3Lp0j3isfxfN4c/f0b9yPc8HLQUcoXuROE8MfVwMpWKokodeO81DvRYncbpw7fZk0eT7BMfQafkG2FC2QjnMnL+KTtzCu0be5/FRDkbzpWbJ0HY52lsTERPE4yJ4+Y3uT0+XtzoR4l2mlhJ2KE1GBjy/zMKgAUpW86eTJk8adI8q2KkZEnVZZqlSpjxa/YNBHs2dOH2bdKsnqqe0JO7CAO+kbUblwJjQWYIiP5klgBO6eXlhrLEiMCyMwysoYiGpja2MMRn2Ta+DAgcYYDrmEQEomoOKQFi9ebPwISE6XCITkZI1/6ItyRb+Mjlc5CJSnQF3K9ay+Lj/55BPjz8uzDD7+12UyB/qa7j0+u5aJ24Np9Okn2BmiufkwjlqfVcfL7s2CFJN69EosqG2VKl21WjZSc0DNBxVHov5epYZWgkEtS6gTMJUw/FBxDDHPrtK3dVc8q7bEwyMrnVpWwdVWg+7Rb2w5FoRt/CM2/BbOkG5l+Onnx1QtYsnlR250aluNN6GpBFOFChWMX1XVq1dParRSnxBIFgSUh2zOnDnGjwD1AZCcLhEIycgaaslAnROglgwOHz7Mvn37jEl51ItA7SZQD0v1oFQvAvU1qXYZfBjvQDKC9J67Eh8ZwIGdu/ALiMIrW2HKlSmCr5sK3nzPDb9F9Wo+vNyNotJbK2+SOoxKnYipgk0//fRTYx4GJSBVnImaO+/HdZnI41+n0njcBRZtWEoBbzss0HNkbE12ODSnWEZrLly4R+VPczPpm/U07t2HqkVyky2T9xt5EF4KBDXvJ06c+BaE5FYhYD4ElNdQbSNXS8QiEN7Rbn379jWu0e7evTtFvRRVwJr6MlTrzmrLofo6VEl4VEDhn/MQqGh39bBXrigRBe84id6wWGJCPPH6RCyttGg1yTfa7mUeBrV9Uu2SUP8+VLCjysOg5pSaK0pM0SP10AAAIABJREFUKi9D6dKljUsSKrlVUl6JzzZTv8NuFq9dQDpnFSsSz/Y+pThbfCaDPi+BRehDAhOcCL5/ll0bvuOKpizfTu6Fk/b1iksEQlJaSupKrgREICSBZVKCQFATQX3pqe1uKqGOEgVqp4H6ulNff2qngXqQq9TF75KHIAkw/3sVcf4cP/uEYiULJ6sI9YSYUK5cuIxdzsJkc3N4w90G8Ty6eZ0bN+9jZ2eF3rMApfOmfaOv2vfKOAkqf5mHQQWvvpxjKmZF5WFQYvRlrgsVuKpEp0oN/Ta5Lv7cRYM+Hv8/FtG0/yFmrVjAJ9nTGIM5Q04uot243eQpVQZvV18qFHbnYICWKr5P2bDlMSMmfIHLi32j6t+EirdQSyP/6+UQgZAEE0KqSPYERCAkgYnMUSCoB5z6UYmJdu7caVwyuHHjhlEkKAFQu3ZtYx4C5VZKnz698XCj9+MKTgIDxN1nzy93+bRaBWxed4BBEjT35yr0cTGEGKzwsLX+/5e4IZ6Hj0LxdtewdHA76DyXLkUyvfZsBVVv9MXVzD7iQPWMt/nxeAQl6nWkfqlMbygu/jq42MBnxLm646J526TNSQzpP6pTHoaXwlQdsKVyYijxoHa2KIGgdrrUq1fP6GlQu1/edA4a9AkEPvDD73EUGbLmxNfb5cVuj0Tu+13k3rNoMuQqgI9NDFdv++PsZIeNsw/pPZ1e2VEtqZUrV86YB6J///7GZbOX18cWCKr9l9ebMkkaqxpIjIkg2soRx//I5Jk0bSWnWlQG1CislKfU8qXnzkBEeDT2jvZY/WPq9uTU/3friwiEd+P2l1LmIhDUl5qKPFfLBS/zEKgta8rV++c8BOrBnNR5CJIA839UYSA6MgpbB0csiSc6FmyIJs7SAXtrC0JDo3BwcXpx/oKe8OBQNM5u2L9w0cdHhRJtsMXZ0fbVy0EXEUyslQPO9v9zVoE+luCwGJxdXdEkRrFn1TweZa9G4xKFcLV7rk7u/r6BQRsTmDWiPmfn9eRR/Qm0yu5u7J+18UFiIC4iBJ3GASe7/69fr4tg/5T2bLNty9jOn2KvMaDHFhdHG+JiY9ForIiIScDFUW05er7rIiwkAnsXV7RWFiTq4wiJSMDJwRqLuKd8M3I+xXv2oGoOX7N4gCmxoF7KahlL7Q5Q3oWXSxMqBkbN0Zd5GJ4fwpXuvS5pqb4ocay2MyoPWuPGjWnfvr3Ro6AuFX/wwWMQDIlcP7aLo3diyZDWlaAHd7DMVIb6FfJi848HkCUQHq7Dydn+zb1Q8ZFEJtgbd8v8vyLSER1jQKN7zJhufcnedxmdy3q933/Wb1G7IS6UWJyxs3n7ZbdEnY4oSyscNVb/wshApP8Feg1cRK8Z31Dc57mITNRF8v3SHynR4nNyu33s7b1vAestbhWB8Baw/u3W5CgQVIS5OqRHrf+qNV8VZKK+zFRUqlr/VQ9Y9XWmHrgqa55a/zXL44ET47l6YCmz9kTxzZed2DplIMctS5JXe5PfHzvRsqIXh/bsw7F8b4a3LsP6WTOIS5+O3zcfo+eMmXg9O8DWa1a4hZzjV79YWvXqhsfTs1x+ouPC4V/J0XggbStkQT1746MCmD7zezKks2bL7wamjKrB2lE9eVqsLT2aNCZ3OicwxLJz7nD67rNj6aRuhP80kjPpSmNx5Qz33Woze0QD7h7bxZWncZw7dIh8zQbTqlxm43bJmJCbLBzQhqMuTejfrSl3Nk3gvFcL+pYIZezCI1TM78H+AyepMXgOLYs5sGPbz0SGB7DrRBSjx7Xg9KY9eOby5uZDCxqWcqVt5ynUGTaUbrUr4pCkR1ImwT+aN6hCfSWr1NAqD4MKiFXBsb/99psxD4O6lJAtX768MQ+DepErUfvnL+s3aOI/b1ECoWDBgsZcEOpSHgy19NG1a1ejWGjdurUx6PJDBilGPThAl5F76DNuCCWzpCHy0SlG9Z9I1VFzqZIzDZYaG6wtEoiLT8TWzpZgv70sO2JHr7ZlcdBaoscCQ0I8lhotVoZ4ouMS0NrYYoiPQ48VNtZwYeMC/DJ/TuMSaY3nfxgSE3h8ciWHg4vzWdWsTG/XHOduS+lW2h0ra5tXW33j4+Kw0Fobc4r8+UrUJxhFsQENVlagi9NhqbFG80LQGONqDJbYaF94ugx64nR6rG1eeOUMicQngqVBj8FS87x+QyJxcTqsNFosEmM4vnQicRVV4rA0WOj1GFTiM30C8fEGtLY2GHSx6C002Ko6LUAfrzP+t7VlAmcPbOdRhuJUy+6LrcaCBJ0Og+X/x/io8esSEujToRftps6kTDrnF0JCfZhEo7W3Ny5t6vUGLEgk0cLS2Md41b9XfBKJi41HY2P9Km+JIVGPLiERa6Nn7DmxxAQd8coORq+fwVgHVhrjx8HrI2NMnfF/Ly8CIQmYJjeBoL621JLBkiVLjCf6qf9WD7c6derQuXNnSpYsaXyYfrg8BEkA+T+qSAzZTuueR1mwYiJn5rZjeWwTlg6pzpDWbSn75TzqWu6g2/RnLJjVn/37jpI7K3zdti015h0ncXMf7FvPoVLCMaoNPMHW7Z1Y2H8e+WpXJ+z6SR45VWB0nzrYWVqgiwxgx+8PyJp4nrbtV7Ho1G6ClnblUe3xdCya9dUJkX4/L+LzTS4cmd2EI1PacaHMCHpkuEOTTj+ycEs/lg5bRP7qVQi59juBnlUZ0b0GNuoJYdCzf3wj9voMZnLnsvw2pzNLYpqyclAB2rQcxdAZM4jZ2JvVhlaMLXqO6YcdKJbTleP7DlG9VX1WTlhGtcFfUSW/F+k87OnYfCBdlsymos/LB9r7tcP7rP1lHgY1l5XQXbNmDatWrTK+vJWwfZnd8eW8Toq+KIGwdOlS4zkVf75Ue23atDEGXKrljw8nEBLYN7IaS226smx48xfBlPr/Y+8swKLM2j98w9ClYit2d8fajR2oqEiJiojYnSg2FgZid4u5dheu3d3FKiomPfW/zhjrt99++18dZBk473Vxicycup8z8/7e5zznOewf04KpCR3wyf2UE0Z1GN7YjsXBi2nYoz9nZvZk8ZPCjOvbnLsHdqLKl4tLW3eSplwb/DtXZ9n0WWRu048qRieZu/l3/DpXZZS7N0b1+jCilxM5bS2Ie/eYSZ1bcDenOwP6ubJvsBeR5VrArcPkad6PLg2LcXb3r9wJf8KNF5b07tsVh7SfDia7d3Izy7aewZZ3UKIVdTO958az59yLMMevT2d4eIo9F5/y4tpFSrbrTZ1CFmzZtIeY6EgeqfLRy7UCYeuWcMuuMPHn9/K7VWXGDnPn9eUD3HqVwK07r6lfKwMjO/SnhF8gzhUUrFpzhexZI7mtKk7W11ep0G0IpeIOE7I/gcG9XIi+tocjd9/y+OoNqjVzZPvMccT/4kwP53ZYRZzi+LWn3L7/hjY9/Chq9ox1G49grIgmePkpAtcu/CoQIu8eZ+qcI7Tq78bzHQt5ZJIH5fObXI8uRNuqZuzdcZgibQbSqUZWts9bQrStCU/eZcSvhwtpEp6wZv1h7KyjufzgIxlKNaJJzvccu3yPW5duULtTP8pa3efI9Xe8fBZODWc3imS0SXKRIAVCInyTJDeBIL5Mo6KidF+eIlmRWFIQSwsi4Eqs94r1XZGfQHgRhNtWLDGIQESDvWL24t7lMLOWTOBaiBdLNK4s6lePoa4e1Jw6B0f24DnsJrNm9yF04SKylCvPhTEe5PU/StEXqwl9X5R6aSPY9Tw3o93N8PNYzfD5k8lkYUT0hxgy58ime5KKe3uH4KWHqVg+G6PcJjM+bC/vlnjzrMl4vMrl/hpjcOfAQtqGpiFsVmuOTu7Ek6Zj6Zz5IU5t5jN1nQcT++9g5OwAMoj6P8Z+qv/T8wOHxrZiT9ZBTO5Shd/meBPy0Yllg8rj1TmACTOnErXJj+mvGjM42w7mfGjJkA7VMeMjygQFDy4dZdOW7UTaV2fakPb4uQ6g2+JZVM9kY7CmFTfnBw8e6JYaxLKYyLXx8OFDncdL5NcQsQliHos00CJORuyiSaw1eeGp+NaDIPJ4iJgEIQ5EfI6Tk1PSehC00cxvX44z1aYwu0czPmf55tI8N9xO/sKMuq+ZdKs8W/1rMrePG5UHzYcDk5j2uArLhzZkU4A3YTk60KeyCVNHBdF61nIeBPVD3XYyvco/o5vvBsbNGMZiX3dsOs2mZ4NPolerjmVD34ZcLzOOYS6lmdmpLdGN/OlW4TGDgp8z3KMoK05EULeEPYdXrqBcj0m0rJBXd1x53PN9dHSeic/kYZiEX2LdFXPa1s7Dyc1ryOI2nMc7NuLc2QOz65u4ZFaJzI/Wcj97O1pVyMCyPp2w6jiDIq/WMO1GGQI7OTC913i6zFvP1RUj0ZRqSwE7UwqXTMtIRzfqz91OE4c3tG47BJeAIeTNkJn9kwbj0DuYziXv0qnfMcYObcOk4H306dueqJNreJ7LkYjQiajajMLVIZKxgfup1bwatw5u4EV+d3LfWIVJYz+cS9vg4zUcv+A5XwVCwtsnuLYZjNey2RTa15fRT2sx0rUUo917U2noTOpmvMOQVZHM7VOdoJUXadckLbMCljFw3hpij09n7qOKTO+clWE9J+I1dgqHNqykSLmKJFzeyFmretTT7OOcVRNqlcxGzqLFcPieZaJE+sRLgZAIIJObQPirIYkIcrG2KwSC+JIVngUhHMTTkJ2dnS6hjfjSE/+KYKzEfBJLBMR/U4WWhNfbcPU5yuylgVwN9mC5xoXFA+oyyNWL6pNm05DdeI26xbRAd7p0ncyQcd3Y5NuazL4baGh1nFNxRSlXIBuZsuckRyYjAr2cuZKpMa3KpiXOtjyuzUphamTE62sLcQ/6yPjOeenexp9em7aT4bA/J4t70alCCXJmSadT+A+Pr6BJ0EtWTmjL3aWD+L1ZAF2yPqJt+wVM2T6T0H7u3MnWhJalbVHa/0KHRiU+ZfjTxPPr8Bbsy9yXaX71CJvZmfkfW7BsYCm8Ok9i7KxpRG3qycxXDZnSwZQOXRdTs10HciY8p2il0px9lJaWVW2YNnUJfUcOZVQnX6oNH4Vz2YJYm/2T9D8/11L/X+1C2IqndnFjFid6ijkqdtOIeSv+li9fPt0cFSdOiuUFIRAsLH5eFslvYxDEzgqROVHkcPgSrJj0MQhqjo9rypSY9qwc7f55t4Wa/QFOzDPrTr+8lxl9qThbx9RnQV8XyvWfj/nRKQQ+rsGaEY3YOtaHG9VGMKKOA6FDOvDEeSqWK4ahdJpInyoRdOu6mrEz/Vnu54pt1/n0qJn1s8mUbO3vyLXygQxvV4RAt3bYdF1EjyovcO35K10ambHucVEGtCyDhbEWy3QZsBdxMqJ01G94Oc9l+IolxBybzqizOZnSrZrufVqLWPoPWsaUGaPJlc4cZfwrprk3I0fPlXSolp/bs9sRbOJJ+8xnWfq6KbM9sjCpgyv1JoSS4cVexk9dgipfIyYMa86Uph1ptHgPTRw+0Mp5DEPWzKZqegXjPd3I0H023uUf49nzAAN9KtJ79lVWz+xFFhsT3dLBpjHexHeYgFPsftoHPSBwrBdpTUCpVDGsS3/aLV5Cyzx2+Lp3p+OkqV8FgiY6Es82fXBZNIdqp4cyMqIxE7pUxN+xFaUnbqVpzod0GHGQBRPcOLFhLaaFCnIwZCFdZq7F/MoihuyxJmRkJWaPW4XPSD8CRobg09tHtyXXyNQSReQlJowP4pGiEAGBYyiZ5Z/uhPr/Pmn//HUpEP45q//5TkMQCN92XogFEaPwxcMg8huIOAXhMhVZ8EQQVqFChahQoYLuy1j8nmzjE7RqXt07zb5zL6lWvy4vz+/moTYXDcpn5ej+E6QvVZUcmoeEXY+iRr2a3AvbzTuLbOTSPCYyQ0Wsbq5i/0MzUMcTG59AjfbdqJAuigNHzmJsn5eatauQ5XMqZmVMBLt+PYy1Q25UD2+T8ZfG5NQ+4OCVd9SoW4tsaT4FHMa/e8q2HcfJX7YcH+6cJyZrWUqki+Jw2B0qNW5Gupj7HDh2EZP0+ahZq/LXVM+q+Dec3LWLlxa5qV6tLOGndnNHmZU6xW04dPwOxatWR33/OHfis+FYtwwPTh/i8sO3ZC9elar5FBw9foP02TOgMEtHySK5uHJ0F+HGDjSoVgZzoUCS4SVEgTjRUwiB06dP65YPxG4aIVBFro1vvVzirAcRP/M9uxn0GbIQCCIosW3btrp4HXt7+6+ZIP+tXQyxv5+mS68QOvgH0qREJj48OMagoYtwGTeNDPfW0Xm9gnUjqzJt4ADqBSwj84Vgxl8rxqy+zfktpDdnSw1jcsusLB7Wl5I9p3Jnti83S/TDu/B1+o47xswFk9nUzxWN0zQ8G+cnk4UpRqj4dVADzhQcRLdmFVnZxw1b78X4VY2go982BnoWwWfoOrr286OQ1Vts8lenVJ6MnwXCSTq1DWb4ymWkfbKFFr5L8RwyiALmURgVLMuq3u6kadiD9iUVvNA4oDgbxCaTdgT51ePUmHY8rTuZ4m/XEfKqGXM8PwmEuhPWYxlxg1yFc+kOL8vaeRCXB3Sh6sQN1CtuTGeXsQxZG0y1jKbM6NqO6EZjaOdwhl5Bd5nu34EBXr2o2n0odbLHEZWuFC83BRDpNBxn2yf07hpA6c6Dqe6g5XfjPJyd1YPY2kOY1q08ndv44TpjNvXzZdTtKtJEv8ajdR86Lg6m6qkhjHzZhIk6gdCSUhO30SznQ9oPP4B/ewe6Bz9k7dQ6BPYOoPWo+ZQxu0rQnne0rl8U2ww5KeBgQ78OrTGu5Iprzey8irEhU8xT7EtX5PjSydws0RvfvC+5F5+VGmU/xUQlxSUFQiJQNjSB8FdDFk9oImWu+LI+e/Ysp06d+poyV7hWxZe1yIMgnuKEgBBf1onlyk0EE/xQFdqom4zqOYtfvLzIZmPE25cPsc5TlfIFs/3QtsIf6kQqKyQyLYpcG48ePfo6z0TKbrHE9WXpS8TIiHkmbsji7/9W8i0R0Cs+E6IfySYPglbD02thHD53DwsbG+JiE8hbriaVimRH9fI6gVMWYVuyLmkjTmNRoSM1Mzxl1oqTNO3qy9PVg9iqqkjbknZobfPRvEElIs5tYU7oJco5VuBB2C1qu3mhOL+KbQ/t8PNzJYvYEYOW348vJvhQNG1c6rN//izMK7vSJFcEs9fdxNXbndfHV7Hjwgtyl2+AZztHMlp/8liFX/6VKSH7adx9KLULW3Ny00I2HH9A7vKOeLk05t2lX1m04ShmDqXp6NoaB8VLVq3chknGLJhZZKZR/VKc2xzCrsjCeDfMTui8ZRRt1w+zu3v4kDY/xKmp3rAG99dO4TejcrSuko65szdRs2sfWlbMx8Mjq1i49wGVG5fnxrF7NOrYEbP7u1i56xJpC/yCu0sz3p9by5KTsXTzdiHh6q8s3HySdAWr4OnRFvPwEyxedxjLHMWIen6fck3daFg+t27J8eOTi4yduJRy7T3JeHs9B2JK49msMGumzMKheQ9+sX3I7E136OhcnT3rNpK5Yl3MHp7ArpYPJaMPM2ZVGHaWJpiY2lCmlR+1rK+ydN1+1OkK0rGTK5qzq7igzEVaMw1FqztidGkjB98XxqdtZZ1HMykuKRASgXJKEAh/hUFEjwuPgniq27Nnjy5TpAhsFGctiDXfRo0a4ejo+DWtssEJBlU0F4/uZv+pW5hlyE3VGlUpWSB3sn3aToSpmqRVfMm1IQILxUmQu3bt0okCEQsjhILYfSDybYhlLbFkIPJvJFtP1Z/I/VseBH0MuG50N27qlhhyJKuEYvqMyTDLalk5ZyaFGrenQDozYp9fZfFpOwZ0LIVlMsstIQVCIsywlCoQvqARk0RkuhMuV+H+vXbtmk40iNS5IoBM7EcX2yVFQJdwCYvAMUM5mElsYYqLi0crtkBZ/LFlKxGmRaqsQjx1i4BCsWQlAmNFYKFYwhKiUixVFSlSRDdXxL8i9kUsJYglA0O7DE0gaKIiWDp9Ag9ztWJAuxqktfj+fAGGZqPk218tJ7cuZs+l56S1z0iOPAWoVK0KOdJ9jttIRh2XAiERjJHSBcJfIRLR5SLPgjiYRzwViidEcWMQX5xinVjskhBBXMWKFdM9GRpsnoVEmB8ptYoveQpEEKHIUyByFIhjvsUOGuFNEsJRRP2LH/G7WEIQOw1SwvVFIAjvSJ06dZL9kDQJMbx5+wGVkaluyUQccy2vf4+ASAX+4f074lRG2IqgcLMkTgH7D4cuBL/YLi++4+VhTf8Q2p/flhoFwrcMxCQSSlMEPYotaGJr5W+//cbhw4cR68siuYzYSimS2ogocHE6mMEtR3z33NASF6/E/Euyl+8un3wLCEEgEm8J+4qMh8LmwgsghEDNmjV1ngJxWqMQBGLJIKmOeE5qYlOmTNF50P6tGImkHq9sL3USEPPb399f93lOTpc87jk5WeM7+iKerkTQ45eAtAsXLujczY8fP9bFNNjY2OiWIkRyG+FqFrkYhIchpYgGdew79s7043xubwa3q8Hns38+E4znwtEjRBuZcPHsdcq1dKNKvk/bI5PjJewolpW+LBsIW4qtsiL7psheKJaTRAyBOGgpTZo0OtumVEHwZ/uIJTchjOUlCaRkAuJ7WSwFJjchLAVCCpp14otUBD0Kj4LIsX/w4EHdtjYhJsRNRSxFCO+COPZX7JAQf0tOAWsibavGSKHbXvRJyGhRqTQoPqdA1Wo1uv+LPouXX63yYFKCGxM61cNcpHZVqTBSmGCsvsOogSvpPd6fsGmerDPuwPJhjZMsKvnvppSwkbjpCU+QiCE4cOCAbuurOMNDnEcgxICwkdj+KpYMxNKRWE6SlyQgCUgCSU1ACoSkJp5E7YkbkcjDIJ5OhYtWBLGJYDZxM/oS9CiWJMSTqcjDIIIf/81ANs2bq+wOe4oy+neylGtCuWzG7Np5XJd6+ZVtaTq1KsGhTb8Sq43npWlRvFpUIja0C+NjXBjvXpXLBw/w8MUzHrxNQ5cuLYn6/RnZ8uZl+ZAuRNYYzOBmRb7ms08iE3xtRiwPiSUhkYfgzJkzXwNPhYdAbG0VXh6xZCAOKxIeAnH8cnISbknNS7YnCUgCyYOAFAjJww5J0guxS0LsORfua+HGFjEM4ihq8TQrnthF0KPwLoiblcjDkDlz5iRyeWl5vL4vwU9/wcUxL8Y2Dnw4tZ6rDg1pmeEZ89ffwLdLSVZuekrtMnb0mX6cpSvGY7+ru04g9KpkxPxjb3AsZsP2kPnUHDKbJqVyoHl3lcVbH9DKuQmZrJImQEl4awRjwVUIMSEIxI9gLPINiMyEwjtQsWJFHWOx7CM8OSll6SdJJrJsRBKQBJKEgBQISYI5+TYiXNsicZOIkBeHT+3du1cXIS9uZOKJVuRgaNCggW4L3c88eCr+xQVGDhzJqTcZGBcUyI2Q/mTsPYeWudJirNWANooty1ajtM9G8Lw9hKybQbY9vjqB0D7LeZaFl6VX3QKYoiVNlqyks7Lg7eENvCnVnPz2Py9V8JcDjoSnRiwXiFwWwlMj4kCEB6du3bo6hmLbochDILwGUgwk38+D7JkkIAn8QUAKBDkbdASEG/xLHgYR6CjyMIjoeZGHQbjHhetbrI+LpQjhEhf/ir8lzqXl8ZEdvMtZghfHQtgRXY9a0RuY86gEk72r8frRI4ooLhFwMhujPUvi5ruYSYvHU/DkUCbGutC95Etchh9iyDAfcireYJW3AkWyWnJ282Yy1XYid/rEPUdebD8VOSq+HNAlWImshWLniAgGFQmuBCshsIR3QOSrkEsGiTNTZC2SgCSQdASkQEg61gbXkjhPQgQ9ijwMYofE8ePHdU/HIr5B3PDEjVBsqxS7JUQw3Zc8/t8/UC33tkxjw7N0FM6sJV2RhpRJ/5aZE6bxRJuZJh0609DhMUMnbiJ3+VrcP3WEaq7e2JyezR5NTQZ7N+bkkslsvfSKwtVa0sOzGRlM3zJvwDCKd59EtcI/vnVIjFUsGYhth+JwI8FA7FcWIkF4AkS6YrH1UKQuFl4XwcBQElh9v51kCUlAEkhNBKRASE3W1mOswsMgfoQrXXgYhFdBrK0fOnRIt9aeI0cO3TY8EfAoovCFePieLTtatQq19tPuBSNjY11AodiVIP4mxIixbkeDGoyMxZGMGCkUoFGjwRgThQKRrVGl1mCsMMFEITLYaVErVRiJsj+QU13EEIixiVwEYvuhyEMgkt+IA4WEIBDeAZGHQJw6+DOXXvQwmSwqCUgCkoBeBKRA0Atf6i0s1t7FkoTIw/D8+XPdlj3xI26kIqZBiAOxFCF+hFgQrncR9Jgc199FHIYQAcJDIDwl4qhuEVQo4i5EIKFYThEBnOJ3kbpYBhWm3nkvRy4JpCYCUiCkJmv/5LF+OZlP7JIQN1zxBC5SAwt3vLipCg+DSJkrliXEkoT4W1Lv8RfLJiIIUywbfPGAiJwRQhCI/gshIDwgQhR8SV0s4wd+8sSR1UsCkkCyJCAFQrI0i+F3StxsRRS/SAok3PVCMIhgPvF0LoIfhUAQeRiEh0EsS4h8AGL//8+4hCgQQYXiDAPRvuiLOA5ZeAREu0IMiK2dIp5AiBbRj9SSqfBn8JZ1SgKSQMogIAVCyrCjQYxCeBKEO18E/InlCJHlUWyvfP/+vU5MiK2AIg+DyPgozpYQaYa/J45BQBBLHyKoUsRJiPTFog2R80Ec+COWB8RWQxFQKBJECQ+ByEMgUpzKSxKQBCQBSeA/CUiBIGfEv0pAxDCImAWxTVAsSYg8DGKJQsQrCJFQv359XR4GccqZeKr/85P9l0OshOgQeQhEeeEhEHkIxPKFyEEglgyEh0AEUoqgwuQYB/GvGkE2LglIApLAXxCQAkFOi2RBQDz5i7MIxC4JcXMXyxBiSULkYRCeAHGzF8GOX/IwiGUAETsgtl2K94mTZPh1AAAgAElEQVTtmGKJQAgB4YEQeQhEXgJx9LHYdvi9nohkAUV2QhKQBCSBf5GAFAj/InzZ9N8TEN6ByMhI3ZKEiCEQAY8iB4HYNSEEg/AGCDEggh5FLIPwOojjUv/NMyWkTSUBSUASSCkEpEBIKZZM4eP4ktJY7DZo1qyZzjswZ84cnYdA5iFI4caXw5MEJIF/hYAUCP8KdtnojxIQyxCNGjXSeQ6EQJCXJCAJSAKSwM8hIAXCz+Eqa/1JBL5HIKgTYnj/MQYTSzvsrMx02RUTYqL4GKvEysYWS3PTn9RLWa0kIAlIAoZPQAoEw7dhqhrB9wiE2MjHbJo3iV2vCjJnYk/sLY15fec8E9dfxterNfmyp0tV7ORgJQFJQBL4HgJSIHwPLfnef53A9wgE0dn7myfScfouKrqMIqBzXdIoXxKw6jr9OtXG1twYjSqe2AQtVpYW/MCRDf86D9kBSUASkAR+FgEpEH4WWVnvTyHwvQLh2c4Q1n3IzO5JATQftwLf2pkIXHuTXu41MY+5xerNp1BGPSfCviZ921fBxlQc9CQvSUASkAQkASkQ5BwwKAI/IhD2ZnCijnI3fSfvwX3ocK5ff00fl+Ks7tmejF0WUy9fDAOdvag+fj2u1XJhZFBEZGclAUlAEvg5BKRA+DlcZa2JSEBscdy/f78ufbJI1xwUFKQ7y8HT01PXSoUKFXR5EP4qQ6LwIOzL5Eyn8mk4siyAsatvkL2uF8HeOelatRlua8/RtLQli90q8rLZMoa0Ky8FQiLaTlYlCUgChktACgTDtV2q6vnWrVtxc3PTZVtUq9W6sYv8ByJL4tGjRylTpsxf8njy62z2ZnShS6X0aJXv2D7dj+nhDdkxuQmbezbkfs2pjGxXmHHOXvwycSmNimZIVVzlYCUBSUAS+F8EpECQc8MgCIjDnBo3bszBgwf/o79du3Zl1qxZWFhY/Nc4tOoPnAhdw02LMrg0Ko+NmYL4d0/Yef4jTWoWQR15k027zmKTPgPm9vmoVakQVjIGwSDmg+ykJCAJ/HwCUiD8fMayhUQisGrVKrp06aJbZhCXSLcsDniqWrVqIrUgq5EEJAFJQBL4QkAKBDkXDIaAOBZanO547tw53bHOzs7OLF26VB7XbDAWlB2VBCQBQyIgBYIhWUv2le3bt+Pi4qITBSL2oHDhwvL4ZjkvJAFJQBL4CQSkQEgEqOJpVl5JQyAqKooGDRrojnYW3gMTE5OkaVi2IoWYnAOSQCojIAWCnga/fv06q1evRqVS6VmTLP5PCQjPgdjmWKRIkX9aRL5PTwJix4jYVlqoUCE9a5LFJQFJwFAISIGgp6XE9ruOHTtSo0YN7Ozs9KxNFpcEkh+Bt2/fEhYWxqZNm2jYsGHy66DskSQgCfwUAlIg6IlVCAQfHx8uXLige6qVlySQ0ghERERQuXJlFi5cKAVCSjOuHI8k8DcEpEDQc3p8EQhXrlyRAkFPlrJ48iQgBEL58uWlQEie5pG9kgR+GgEpEPREazACQZ3A+/cfiFNqsU6TFmsL0/9KKRz/4SX335lROEdajL8cSKCJ5dHdZ2TJlx8Lk/88pUCTEE3405fY5MxJOuMYHj37QI6c2VH8wGEGmoQYfg9/iZWDA/amiRt4+O7FI9R22bC3MvvvNMrqGB4/jCBbntyY/kjHf3D+xEe/43n4azLmyYe16bfAtMS+jyTigxKH7FkxSQZnR0mB8INGlsUkAQMnIAWCngY0FIGgjX/H3jUzGb89nuA5gyie7RsR8JnB6zsnWXnFEt9WpUEVg7GJJSaqF2xcupuaHT3IbPufN27lu8f09BpO87khNLR7zsYdD2ju5Ijln4TE3yLWJvD2XQJWRm8Y5juEWlPn0SSbHf/kvhj76hWKDBkw+9tzmrXcOLiR94UaUMkh7X/Vq417zMZ1v+HY3pk0Fv+kVT0nzOfiLy9somOPdcz4dRXFM5j/UalWxbMzCxi89D1zgoaQzuIH1FbidPFrLVIgJDJQWZ0kYCAEpEDQ01CGIhDEMK9sn0LTuWoubhtAelMj4tVGGGvi0SgsMDcxQquO5220FjvTaLatXUahWh0plCsTqugPmNqk1T3NquKjideaYmUhnsa1DHJxp9q0uTTLYk1MdCxW1lbERX8kTvnpvASMTbGzs0aBhuiYeCytrP7wTgCPf1vF8svZ6O1ZneCeXhTxn00DewssLM1R6G78WhJiYtCaWWL+zeN09MtbBI5aT7uxfSmc3hql2ggjrQpTUzO0qjhiErRYW1vqPAbK+FhUCjMsTRRolPHiEAcSEtSYW5hjhIaYj1FY2NhhbKQmPl6LggTUxuaYmyp0Q1Cr4olNMML6LzwQCQlKTBRGxCZodEw0yjhUxmZf+yrai1VqsbK04IuO0Shjif39NG1aBTF573pKZjRHFReF0tgcSzNT+PgrHr0vEhQ8knSWUiDo+RGVxSUBSeAHCUiB8IPgvhQzJIFw9ddpNJmn4eLqjhxaOofr9mXQXtjNY9MKTA1w5/LGmSwLL0NAYxjQayQ1PIZQMa8R6zecoPe4QMyeHmTx0QgsXlwhS0M/3GrmYZirB79Mnkbuq5tZeVaLf383tq1ahcbaDm3EafY+y8PUYW0I23eYl+F3uKMuxqg+rbG3UIA2mpBezqx+W4mJo/04Prk3FrUq8WDvCfK2HEQfpzJcOridK4/COX0unM5Dh1A+p61ONFzdOg3HPgfwn9kX23tHuWGZl8iz12g5yI1r+85jpYogInsz+texZvmsELJ4DKbs21MELdhDwULZOHvlCc7+U8j/fA8Ltt1msH9fwpZNYv/HAmR9E8ZTs9JM8ffF/PUFVvx6jWxm4Zy4r6R43Q50qF0QhZGKO0c3MGX3S+rmjGHb3ks09+jA3bB93NSUYur4zqT7eIsNuy+R8D6cV+lr0btdJZS/X2D17muYRV1l7sKbLD++mXQvfuPIlSfcuHiTap79aJzvHF5+55kRPEIKBD0/n7K4JCAJ/DgBKRB+nJ2upCEKhEubenF9/VCmPapFkGdGxnkNo/uS7ZheWoDLtoycnNWA8V29cJm4kkK2t/BsGsDIzb+ivLqVhxlLE7d5FJvVLVk9vj3+bh78MmU2DYz24dn/AvMWjuFtZCSW8Y/p59WfOqPmUyFuD3tfZKV4+jg2bTiO74QgyuVJA2g4MtuP4HdNWTbYkVm+LqTpMpamMdvpv1bDkpmNmDxpJxUrF+fGzjVY1+uLb6sKiOf6j9d3U7bDJrYcnk70gfGMu1KZMc6FSGP2jDPhaUn/dA/dNygIC+3LsXFePHeejHf2J3RoNAKfRctRnpzJcqUbS9u/xttjOVPWL+PB+iGMvliAJSMbMmPoMDymhvBkfk9OZu/FaCdTPLsvYMLMQPJlstZ5T6JeXqNltxCmThuOcpMv8xLaMsatNENd+tE6JJhnQb3I7TOf6g7v6O3UicZT5/N8w2zKdJtECeOLOLWfx8xdU9g9ZT4F6zfkxdld3LWpw3hvBd17X5ACQc/PpiwuCUgC+hGQAkE/foYpEDb35f6O0cz/6EKwix2jnTrQYuYO7O+voc0Ga04FN2V8Zw/cp62jUNo7eNYZysDQ7Zg/2suvt+Ip8n4/C8OrsCbQg9E6gTCHZmlO4NH1BLMWjyOt4j0rJgziVIZ2jOtUgyvzvDmTpwsdKuXBSJOAXbps2Fmb6ciHhfRi9rsWrBxch2ndPSk0ahZNYnbgHnCHeVOL0ndiOEP7tcfGRAOm1mTNmE63bBB75wCl2oayK2wWsUcnMeNJM+Z2LUPC72dZufsG+dJ8pMf8Fxzf5c/lqV240zQA3wKv8Gzgz9DNm4k7MYURN2qyta8RPm3nM27dMp5vH8XY+1XZOKoek3t4UXt0MJYHApl/twgjPByYu/ImQwZ7k054P4D4j09x6jGPJcH+WOz2ZdTLlgR2rcigBm2pNDaArT2603VtGPWLmTKvTSlim/UjbPF2/NdtpZjZJVo0msy4Dd2ZOXAr/aaNwN4MVCoF2dJfoEtP6UHQ86Mpi0sCkoCeBKRA0BOgIXkQrmwPpEmIlktb+/Ngmz/zojoy11UIhPa0CNqJ/f3VtF5vzal5LZng2Y42Y6aSO20MvVuMZNCm7RwZ50ac6zTK/ObPtOslmDvHjxAvL6pOn0szuxO4eR9nzqIA7m4cxeTjNoTMGsTbx/eJurUen7kP6dfPHcsXtyjW2JP8mSx15E8t6MPkR5UJ7NGEDf49KDJ6Nk1jd+A25jYLFnjQqUkXSrj0pm62D8Smr0r9yvl0gYbx9w5TotkiFm6bjPWtRcx+2pz53cpwY34nVlh70SnTFZqNuc+2bSMJn9+H+83G0j3/SzwdRzN0y2biT0xh2PXqbO+roJvzPMatW87zbSMYe78aof71mezbiVpj5uJwbQ2r7zrQunou0mbLR1Z74T34dMV/eIJTjxCWzB2Nxe4ejHzZkilCIDi2odLU5UQFu/Ki4XSGtMjFyBYeNJg2mb2DumLjOY8epV/h5BTIpO0L2NzXg+hqPXAuZc6TmNy0r/ucrr3OExQ8lDsHt6Eo6Uj5XP9eEi4ZpKjnl4QsLgkYKAEpEPQ0nKEIBG1sJId3bmTb+Xg8u7Tg/fnthMUUoX3V9OxYuZkirTpj/+IY6y8Z09/XiYcHlnEhriANSpuzYc0h6nj2wvrxXrZd/kD1ojacvqPB3bkKm5auJVvdNpQ2vc3avU9p5daes+uDeZ+xJCVypuX3N2oa1SzKodDVXHupoUT1pjSuVvTrToe3d46ycOtVajeuwYWd20lXtRXFuc6mE5F09OnEh3Nb2X78FunyVaB1y3pks/sU8a+Nfs7imQuwq+RIhjfnOPY6J94dHLGIOMHC7VcpWiQP507fpaVrcx4eDOV1noY0yBPFqhUHqePeGdX1PewLz0SHKuZs23GZRl5d+XBqPUdeZqFT00LsWr+FbHVdSH99DUvORWJnqsUIE0o274lbzVwojDRE3DpOSOhlmrdtTvyF9fwWV5TW9fKyZeEqcjp6USd3HNv3XSRNBntM7QtSu2Je3tw6zvrd58mUKyvP772mjktH0r+7yKotR7HIVpzmTo2wenaI5ftf4OTanqcH12FS3pk6RdPrOVN/vLgUCD/OTpaUBAyZgBQIelrPUASCnsNMlcW1qhgmjZnBL23bktvWhI9PznIqqgJejfKg+JooIuWjkQIh5dtYjlAS+CsCUiDoOS+kQNATYDIurtUoObZ1Oceuv8AyTUYKlyhLlcqlsbc0Tca9TvyuSYGQ+ExljZKAIRCQAkFPK0mBoCfAZF5cq1by4cMHlFqF7jAus+SQ2jCJmUmBkMTAZXOSQDIhIAWCnob4cppjnTp1sLGx0bM2WVwSSH4EPn78iDhie+PGjfKwpuRnHtkjSeCnEZACQU+0N27cYN26dWg0Goz+NuWvng3J4joCKpVKxztjxow4OjpKKklAQKvV6ua2m5sbBQsWTIIWZROSgCSQHAhIgZAIVhBfoPJKGgLx8fG6p9hixYoxZ86cpGlUtqIjIAWwnAiSQOoiIAVC6rK3wY82Li6ORo0aSYFg8JaUA5AEJIHkTkAKhORuIdm//yAgBYKcEJKAJCAJJA0BKRCShrNsJZEISIGQSCBlNZKAJCAJ/D8EpECQU8SgCEiBYFDmkp2VBCQBAyYgBYIBGy81dl0KhNRodTlmSUAS+DcISIHwb1CXbX43gS87Rf6XQJAR9t+NVBaQBCQBSeBvCUiBICdIsicgxMHatWu5efMmSqVS97u9vT1NmjTR9b1BgwZUr15dbsNL9paUHZQEJAFDIiAFgiFZKxX3dceOHbi4uCCy+n17CaFw8OBBSpcunYrpyKFLApKAJJD4BKRASHymssafQEBkqmzatCm7d+/+j9r79OnD5MmTMTMz+wmtyiolAUlAEki9BKRASL22N7iRh4aG6tL9ijgEcQlRcOLECSpUqGBwY5EdlgQkAUkguROQAiG5W0j27yuB6OhoXZrlsLAwRFxCp06dmDt3LhYWFpKSJCAJSAKSQCITkAIhkYHK6n4ugUOHDtGiRQvdyZnCe5A3b14ZnPhzkcvaJQFJIJUSkAIhlRreUIctvAjNmjWjQIECBAcHY2JiYqhDkf2WBCQBSSBZE5ACQU/zfPjwgdjYWD1rkcX/KQGxtCB2NAiBULhw4X9aTL4vEQiIHSOmpqaJUJOsQhKQBAyBgBQIelppwIABrFq1SufyllfSEBC5EITnQCZHSjreQpht2rRJBoQmDXLZiiSQLAhIgaCnGbp168abN28YPHgwCoVCz9pkcUkg+RF4+PAh3bt3Z8uWLVSpUiX5dVD2SBKQBH4KASkQ9MQqBIJwuwYFBaX69fC4uFjMzC0xNvoLqNo44uJNsLBI3JgBbUIMMVoLrM2Nv9OSGmI+xGBua43C6K86/J3VAbFx8Zibm//3+NVKPiYYY2OpIHFa+v6+6VPi9u3b1KlTh40bN0qBoA9IWVYSMDACUiDoaTBDFwjvX9xl9bTxPM3XDG+nBuTJZPv9RNQJXPt1KrPO2DMjwAfrrxpAS2xcAgr1WxYM7IyqwSR6tyzxj26SCXExmJhb/bXY+KaHD46t5cDH4nRuXPw7bvRaLu8IptfKWDYu70smfUWLKoYLG8ex9FlpJvd1xuobDaRVvmfLHH8OZenNNOc8mBugk0kKhO//SMgSkkBKICAFgp5WNHSBAGrW96zDZccgxjQpg+mfHnFVSiVGChMUn90CWo0apVqLqanJ1xu9RqUk4eYivOZGM3/WAGxFHJtWw8cXZ9l3VUPD2mXYM6A+NyoFMcy5pK4+489P7WqVEg0KTE3+8AAoY16ze8sufmnengy2ZmjVarRaDUYKU4y0KpRqvravTogmWmmGnbUpItuiiEtQqTWYmny5E2tRJihRmJp9FRuizYhzm6k98jpHto8kq+WXwDstarUWYyMNaq0xJgpjVEoVxiaiv58mihirxkihe+3LJepTXplO982ZmT3aExsT0HEzMdGJlpPrhjL3oxeLOhVAXy2i53T9oeJSIPwQNllIEjB4AlIg6GnClCAQNvVtwBXHaYxwLP2HQNDEcX7nNh7Gq3j2LAYnT1cyqZ6xMjQMSyJR5aqLa6PSRFw+zIHrr1E/2sm2B0VYFTJYJxDUUa9Y69+eLXE16OPnTeTC9hxK255c2geYlGiLT4sKqJ6Ese/cUx49eEb1jt6UdUiDsVbF1T1B9J10gk4DR5CDqxy/Egvvb5K3SmOiI15ioXqJUcGGtK+Tj4Or5nHbpiatCrxjzcF7lLCPY8+5Fzj1HETN/HacOryXB48f8yDWAR+vxiien2PP2ad8vH2YcQfTcXq3/yeBoI3l8IbFnHifk5yxF7kd54B7tTSs23qCzNXd6dqsLOGXj/Lb/Ve8evCEMs1cqVo4A49O7SXsURSxt0M5GOvIooCO3Dl+gLvPnnL7pQVdu3Xk8d4xBL/zYKEUCHp+2mRxSUASSEoCUiDoSTulCoTfL22lz/oEAv2qc3/vDFa+rsngKvGsuJmeFnaHmbANVi72ZurYpbTu0gnbm/MYuM2G5cGDdAJBq07g/iJXgqKdCfBpwvGRjuzP0ovuddPRd8ohFs3wIGjoQmp2bMyHS1s5ae7EdJ/qWJoaEf1sK15++5g0fwpG54JpN/MhEwc0Jurl75xXFsXRfC/TD9uxLGQAYTO6sDDGiWW98tDJdRSdRvjzYZs/J7L1YGLDSObvT6BcAWuWzVqB04ABXFy1mgYDRmB1ZzNOQa8I2znqswdBw9H5AxhxJhfzB9djqf9QcnqOpLbiJKMWPmfBom5Mn7AGl25eWDzegv/ql0wd247AGXvw6tYOiwuB+J8vxUSP/Cze94iaxezZt2g+FfsEkfXxEkKkQNDzkyaLSwKSQFITkAJBT+IpUSBoVCp+WzeIgEft2Dq4Ih8f7Kb+wFNsC2rNrp2nKJD9LbNXvmbp9BJ0Hf+SpXMGYPN0CZ4z3jJ35uclBrS8XOlKYIw7E73rsmtAXa6Un87gJllx8pzIuFHNad99Mwvn9SSLlQK1WQYK5LDXLWVo3u7Bo9teZq2Yjun5+bQMfsvGFYMxi7jGyi1nKJD1BXM3J7B0WQA3l/gxLaIha4ZVwruzP2NnTydqSz8mP63D6Nw7mPuuGZ6OJTHWqDB+eoKOYy6ycd8sbG5up8rgyxzePuLrEsPldaMZdKkk28e3ZHG/TqTrG0Rb67N4dN7M1CmV8R73hBXzR5DOIhy3Vn3w6/8Lk7ZkZPkkd6zuz6TbmnT0rPOWkIsO9GxaCjM0pMniwMN9E6UHQc/PmSwuCUgCSU9ACgQ9macEgbCxVz0uN5yOf6MymKLm2N5jGBvfpNuUp/y6cQzmDzcz+oAVzW2OsTamJeMqXKZn4FWmTHemf/cQ+syeS8UPK+i8IJqFwSNJb/lpwT5yjQejI1sytF11Tk9y4mr5GQxpmhUn9wlMnNGFMS1cKdFrAi3LZuReVAaaVc2PmcII7Yf9uHlsZdL0YZg/206H4DdsXDWUUyF9CcWZYcVP0y/kKVNnTeb11r5Mf9mItcMq4O01mrFzZhC9tT+THtdmWuPfcZl4C98+nckYdReFhQlD+gbRc+kGyn7cT53Bl9m/dyK5bc118RSX1o1m8MUSbJ/QikWfBYKzzVncvTYxfYkvPT0D6T13PlXs79Jv6GZ696xIpx6hBIRMo/jvs/DdlgV/l8x0HboNv4E9KGj5BhOH8kSfCdIJhEVeBWUMgp6fN1lcEpAEko6AFAh6sjZ0gfAm/AZLJ4zihm0ZKubLjCbuLZFWpejVpgx7l4Xw3DI3GW0UlKrVDLOHu5mw4gL1GxXn4r7LtB46nHeHFrP72gdKF7Xm+n0LvPv6kD/9pxuu8v4Whs6/gmOHttxfM4Hf83WgUxULxk/fhvPA/uR7fZQZq45glrU4bl07U0rEIIiCqnCCRgRiXtmDUqojBO+JZMi4oZje3MK0jTeo16gI5/bdpN3QwTzbMJ7d74oyuHV2ps3eSUvfXiiPz2X3m6KMGtCS3cGBHL7zkWLVW+LpVJm7e5ay4XQkBXPacuquigFDfSmeLQ1GKNm3aByr72VltHd1QoNnY1anC/XS3mLmkrN4+49FeTGUQ/eV5M1kRuaitalRIiM7F8/g2GMNZYqYcu1JBrp0acmVDUHsuBxJ3nL16OJSk7Nrp7PtXQXG+jYlaxrDO5ZaBinq+SUhi0sCBkpACgQ9DWfoAkEMX2TJ+/Oly1Ko1fLllU9ZC7XiT1+vP79HvPDn7Ia6uj/X9el1XbW6X3Q1fq7wL8sh3vOpD/+r/T/K/1Hvl07+Z/+MdG3/5Rg+j+jbvnz6/X+3/7W/3zD6Ov4/cftfY9Rz6iVZcSkQkgy1bEgSSFYEpEDQ0xwpQSDoiUAWT+EEpEBI4QaWw5ME/gcBKRD0nBpSIOgJUBZP9gSkQEj2JpIdlAR+CgEpEPTEmmIEgjaBqGgV1jZW/yjT4fdgU6vjADMU3yQX+p7yP/JetTIBpcIEC+PvTcH8I639uYyW+LgEzCw+xWIY+iUFgqFbUPZfEvgxAlIg/Bi3r6VSgkCIjrjJlrC7RN09Q1SJTvRpmBeTvzxQ4TtgaVRExRuhjrzMpDEzaDd8FqVzp/uOCvR7643DazlpWgfPKpn5JkmjfpX+g9IaZQxhy/35NeoXxvZ2wjwFKAQpEP6B4eVbJIEUSEAKBD2NaugCQavRcHOzPzvtnOhcJgPPY20p7GCnC88zFiJBq0Wt0WKsMP76NPwp6E78GGNkpEWj1mL0zevitbf3zrHuWXa8qloR6N6SegGhVMpnj/E3T/QatRqMjb+mXf5iCo1WqwtO1GiNvqZ41mg+/U28X9xzRVkjY5FOWYNardEFFAoPxac6FWgSYog1tsTW7I/3f2lLrVahxVgnHERaZmNjhW6sGo3605iMPwVQfr2+MBB//xysKdo0Vnw+fEn3+qd6xMvvfx1MzzNFWRDggYVAqNGgEf3TV3TpOVd/tLgUCD9KTpaTBAybgBQIetrP0AXCu2e3WRfYl3PZmuFeuyzPLx3D1Maeh+8s8Havx/mT5/kY9ZbYdKVoUiELp/ds5kMaB6Ie3uaJcXHqFIzlxImrlGjRmXrFsqAQN8SEVyzy78026jPOuxa7RnmQp1E3Xjx9RsEmnWlULD3Prp/k+sPnPH5tTDPn5mQXJzxpE7h/Zj/7HoJ95FXOvzSlUzdPjB6FseOuMenf3sC+dicKxt/i/rOn3H1hTKsm5Ti2cQ3qCm3pUNmBC79uwLxUXd5fPszvOVvSobwd988e5sHbOCIi1dRr1oDY6zvZc8sSrw6/sGvxIkwqedE8XyRHzv9OXEwkOcrWobhD+k8iQRvFucNhRKPmgyIb9SsX4GLYSd68fc1TVTZcWpbj5uG9vFFpeKXMRNum1dEeHInPyUIsGOPGx3sXOXfnMfdvh1OzrSvFc6Q1uGUHKRD0/JKQxSUBAyUgBYKehjN0gaCMi+J4kDeHC3TDr0ZuFnrWRd18HGWz2cKlNTwr3osmxYwZO2A8dYZMJ8fRviwzbk2PGmnp12k8LlNnkDvmODPP52ZtQFtsxbHL6nh2LxjIGiNXglzzM69LY7J2nErm8N1MvlaYX4fnYe6iC1SvX55di+eQruVY+jfOh7GRmmeX19Jx1GkG+jXn1prR3CsxAN8y7+kw8SIB3Wtjly0zZ87coWqprOwOmkhR3+lkvb+SxR8bsdinOFvmb6NWZxfOzO/LtowjCCx9jgnrX9C7lxPnVgeyO74OU1q9pteUp8xbMISNA9pyv+p0vNVBLH9Xn8YV0mGeuTAlcmVGRC9oXhykb8BxOvi05f37WHJzk50vctCqqDGzZu3EZ7ATW5YcpVGbaoybsJzR84LIfWYc3U8WImRoc+bMXknpCqV4vW8m1/J1Y3SnBgZ3oqMUCHp+ScjikoCBEo6NwssAACAASURBVJACQU/DGbpAEMO/OMeLfUX60b9Ofpa5lsPOdwdtyxjhXr4GTZZepH1Fa1b3aMDZ4mPoZ7WCeZadGdMqJz6lGtEq9DcqmpykzZR7bJvjQ7rPxxWeWDWE5cZdmdMuM9M9m1Fr1EbyROyg0fQINnurGLTDipG+jhhr1FhnzEPuzDa6J+v3z/bhNuEuK6b5YBu5FKcx0QT6FMR9zkP2zvUm7s4ixuy0wrtZecxQky57buyib9G43WyGjWpLRJqyuFbKzrGl/Vhm5EeHyHGERDYidEIb3p9cQoPBZwldUp1RE+8yd8EItg9vx43ykxhe8Rn9B0wi3LokYycMp5TDpyd9bfwLFgUMYfmpN3gMGEPOi1N5UGMUXasWQoFY9ojjaOhaXljnJnTBMgYunEux8xN1AmFmn8r4Dl9L765O2JmDWZqs5M2WQax0GNQlBYJBmUt2VhJINAJSIOiJMiUIhPMzPdlXrD8D6hZgmWtZ7LrvwLlyWmZ1qENk02BGuZZmYXcXFB1m0PDRWOZZdWZ0q5x0/yoQfqNN4F22Bf8hEMJWD2FenAcz2qZnvm876vhvJM/LnTSa+pydY3PTrf9mvEePIq/payItilK9WKZP6/fP9uE86gprgvtgdns6AYcK0aOeGc7TH7AvpBvaiH2067WF7gN7UNT2A/G2BSme24aN/dsQSiOmj+2Og60Zhxf3Y7mRH4PSraXPqg+sXjme+LCF+O20YtmgNPj1Pc60+UNZ3a89T6tNo3e+cD5my8uN7XM4be/CRPcqWChA8/IKxx+bkzb6AhPW3KRL+fdMv5CdAL+mxD2+Sgazd4xd95xJEzwZ2m04XlMmU+5uML1+K0zwoAZ4t+vGL53706REWl5EW1LMwZRHH2wpkScDSbipQ69ZLgWCXvhkYUnAYAlIgaCn6QxdIMRGPmbF+H5czdGabo5FCA3og1nDUfR2rYXmyXFmLT9G1nx5UBplomXjMpwK7ssBq6b0bOrAOJ9hVB8ym9LKk4xc+4ypgYMp4ZBGR/TRmfX0n3sRL7ea7F8YTAnP8RR6t5fRG18ya05/7m8JZvH+OxSs6Eg3b1fypTfXlRMCoWXXVbh2bETC83AqObuhuRLKwGUPCJwyhLIOFoTOGs3G08/JU7YuPbxdyJ3ekrgHm1l2Ki2d29fBVPOW1YFD2aGsT5BvJQ6tXsgzizykMzGiVP2WlM8eR9CQEbxIWxL7dzf4mL8prcxPcSCuAPnTxmNXrDF1SmTXxVOonxxgzKLLlK2YlzdxtrSsnpOQCZO4HWND1cYdcS4dh/+YJWSv0pzXF3aTu7E3RZ6tYvHtHIwf60fE/vnMXHsC21yl6ezbjUyv9rDoVj5GuP6ChYlhbHGQAkHPLwlZXBIwUAJSIOhpOEMXCFqthoS4ODTGJpiZKFAmxIPCDHMzE92ugYT4eJ0j3VhhionCCFV8HCojBWYmxrrXFKYWGKMiQaXF3Nz8a6S+VqMiNk6JqZkJaqUSYxPzT+9TajEX+QE0SuISlBiLtsxNvwbuCYHgOu4miyd7k8ZCgamZKVpVAvFKrS6vgNh+KXIcxCtVGClMsfhSVqtGpQYTE7GzQfQ7DrVWgbm5ma68UuyCMDLGzNRU56lQxsei1HzayaA1UmBipEapQbejwsTU9I+dFRoVcQkq3e4LsWvC1MQYZXw8SrUWU3MLTI1FzoN4tMYmGGnVuj4ZaZWoNEY6HkaifHyCrg0LC3PQKElQG2Nu9nkHhJ7zLymKS4GQFJRlG5JA8iMgBYKeNjF0gaDn8BO3uFbJw/MbGbL4KePH+JE/k3Xi1i9r+yECUiD8EDZZSBIweAJSIOhpQikQ9AT4bXGtklfPnvEmRkW6LDnIlMYiESuXVf0oASkQfpScLCcJGDYBKRD0tJ8QCFevXsXd3R2FQri35fWzCahUKqKjo7Gzs/uv0yN/dtupsf6nT58yZ84cduzYQZUqVVIjAjlmSSBVEpACQU+zT5o0iW3btmFpaalnTbL4PyUQFRXFrVu3KF26NCYmJv+0mHzfDxIQgkxcQiSULFnyB2uRxSQBScDQCEiBoKfFEhISUCqVetYii38PgYsXLyI8N3v27MHe3v57isr36kFAiOBvU2XrUZUsKglIAgZAQAoEAzCS7OJ/Ejh37hydOnXiyJEjpE+fXuKRBCQBSUAS+AkEpED4CVBllT+XgBQIP5evrF0SkAQkAUFACgQ5DwyOgBQIBmcy2WFJQBIwQAJSIBig0VJ7l6VASO0zQI5fEpAEkoKAFAhJQVm2kagEpEBIVJyyMklAEpAE/pKAFAhyYhgcASkQDM5kssOSgCRggASkQDBAo6X2LkuBkNpngBy/JCAJJAUBKRCSgrJsI1EJSIGQqDhlZZKAJCAJyCUGOQdSBgEpEFKGHeUoJAFJIHkTkB6E5G0f2bu/IPC/BILIaBkeHk6GDBmwsbGR7CQBSUASkAT0ICAFgh7wZNF/h8BfCQRxoFBISIgu/fKSJUt05zTISxKQBCQBSeDHCUiB8OPsZMl/icC3AuH58+ds3ryZDRs2cO/ePczMzDh8+DDlypX7l3onm5UEJAFJIGUQkAIhZdgxVY1CCIQOHTrQrFkzdu/ezZ07d9BoNDoG5ubmBAUFUaJEiVTFJCUNtkCBAmTMmFEe5Z2SjCrHYpAEpEAwSLOl7k6fPXuWJk2aEBMTQ3R09H/BKFiwIGnSpEndkAx09A8ePNAtFTk5OaFQKAx0FLLbkkDKICAFQsqwY6oahfAguLm5MX78eDZt2sShQ4d48eKFjoGVlRXLly+nePHiqYpJShmsOKXTz8+P9u3bS4GQUowqx2GwBKRAMFjTpd6OfxuDYGtry6lTp3RPnVu3btXFIAjBIGMQDHN+ODo64u7uLgWCYZpP9jqFEZACIYUZNDUM58+7GLRaLe/fv0csPQiR0KtXLwoVKpQaUKS4MUqBkOJMKgdkwASkQDBg46XWrv9doqS4uDiMjY11ngR5GR4BKRAMz2ayxymXgBQIKde2KXZkMpNiijUtUiCkXNvKkRkeASkQDM9mqb7HUiCk3CkgBULKta0cmeERkALB8GyWKnscHx9Pnz59eP36NZGRkZw/f55atWrplhKyZs3K2LFj5dbGFDAzpEBIAUaUQ0gxBKRASDGmTNkDEYGIPj4+LFy4EPH7t1ePHj2YMWMGpqamKRtCKhidFAipwMhyiAZDQAoEgzGV7GhYWBhNmzbl3bt3X2FkyZJFt62xSJEiElAKICAFQgowohxCiiEgBUKKMWXKH4harcbT05M1a9Z8Ta08dOhQAgICMDExSfkAUsEIpUBIBUaWQzQYAlIgGIypZEcFgWvXrlGvXj0iIiKwtLTkt99+o1SpUhJOCiEgBUIKMaQcRoogIAVCijBj6hlEQkKCzosgTm/09fVlypQpugOa5JUyCEiBkDLsKEeRMghIgZAy7JiqRnHp0iU8PDzYuXMnDg4OqWrsKX2wUiCkdAvL8RkSASkQ9LTWggULOHjwoJ61yOLfQ0Ac7Xzjxg1dYKI88e/vyf15x8f3cP72vWI76ahRoxAnZf7MSwqEn0lX1i0JfB8BKRC+j9d/vbtbt24cOXJE90Qrb1Z6wpTFkyWB8PBwVq5cqfPYVKlS5af2UQqEn4pXVi4JfBcBKRC+C9d/v1kIBHEFBQXJSHo9WcriyZPA7du3adCgAaGhoVIgJE8TyV5JAj+FgBQIemIVAkEk6JECQU+QsniyJSAEQp06ddi4caMUCMnWSrJjkkDiE5ACQU+mUiDoCVAWT/YEpEBI9iaSHZQEfgoBKRD0xCoFgp4AZfFkT0AKhGRvItlBSeCnEJACQU+sBicQtFpeR4QTFaf6ZuRGWNlnJqOdBUZ/wyP8/m3Msucjg4XJ377vUxVaYt+/5P7zaArmz42ZibGepP+muFbN24hwXsUqyJc7O4pvB6FR8urZY14pslA4mw3GfzfAn9dDg65ZCgSDNp/svCTwwwSkQPhhdJ8KGppA0KpimTUrmEy5HDi9PBiTym5UyJrAA7tq9G1ZCov/uLt+C0fL0dDV2NZuQ5n0fy8ktAnv+aC0Qvn8MJ4j9rJ44UQy25rpSfpviqvjuR46gvFn87JgUndsvsm6rFVFsTN4EOvNurGwayks/iYjc1RUNFbW1kkuIuKiP2BqaYfiJ2oofeBLgaAPPVlWEjBcAlIg6Gk7gxMIaiU3H/9OPgcrJjeqjLlPKH2b5OTKYzWlC6ZHqdRgjBoTkZ0wIYZYtQJrq0+CID46Cq2FFRYKY1TKeN22zrgEDRYWZl89Clp1LIcWTOZZcS86VDHHvdMkZswej62ZCdbifaIirZro6FgsrK1R6P7w+dKqiYvXYKZQE68xwdLchLiYWBQWFph+fvRXxUWRYGShe+1LyYS4aJS3FtJ9hRlzA32xMdESFx2NkYU15gojLu8MYOrD5iz0Kf0fAkEdF0WsxgxrK1Oiwi+x5NcbtGnbiqzprfj2Xh0fE4XWzApTdTwfouOwtLODuChilMakSWuLkUaF2sgYjVKNqakxai1oVCrMBEN1AtGxKqytrXRjVyvjMVIoiI9XY2FpRuzL26xavZv6Ll3JmcnmP70fes7NxCouBUJikZT1SAKGRUAKBD3tZWgC4etwNW8YW78C5t03MbBNaYy0sRxeO5fV99KS7e1Vctd0JDLiI2mi7qAq2gaPckYsmLWSkr0GkfPeHpZsu0aRXLb8dvUV7YeMokYum08i4u11fFt6Yt5iGMN9fqG/9wha1i7BsbCbtOw/lrr5TTm4/wivI55w5qktA/u7kt3WFLRxHFo9i41Pc/CL7T3OPjLCo0khdu88jDJ/K4Z2rcvDU3u4+DyO9/dvkPGXNjhVL8j1Q1u58FKD6s4mdr2uwvLAzlw5eoDwyAjOXIjAa0AflJeCmHq/6X8IhPArB1hz+g3Wr69jXb41hd+tZvjKt/Qe0BfHaoUxMzZCq1Fyev9OwqPjOXfsGs07u3JnyxzsnQZTNuEiw6efYcg4Fw6tWIFZgWxcv/6R3CZvMMmZg4ePNPT2acLlM9eIeHqHp1a/0KboW1atD6NQYQcuXn1C497DyP5oGb0DjtJ12BiaOZbCJhm6EaRA0PNLQhaXBAyUgBQIehouxQgEtFzaMgXXNcasHN6A6Mi7vEhbAtOjs5h2vTg75noyv4cnWUbNo43iOO3dVjNm2WwuzevD+UIjCHIrjELcVFUfGeviTJrui/CrZYGL8wAGTR5P5IpuHMzWj97FrrL0vC1l85gTujgUl3HzqVs8oy5m4fz6cfjsTseWQGfWDu+Kqdtk2ttfxmfgQeas7MX0gPX0GjkIuzf76TZ8H0EhvkyYvI+Bg72xuRFEz63pCexRhFkbb1GrtAPnQpeT33M8RaNCmf4ngXD1YCj30pdCuT2ANR/qs7w3+E18yfTA3mSwMdWJnbjIMPyXPKF/V0dubl+NZaW2PF/Vg5cNJ+HmEE79psHMPbKUc+PcedLQH6dc1txbNYiTRXvjWTYLL3dP4EqaFuS1fMXS0CsMH9OEcd6z6b1oMW93j2OzRVdCnH7Hp8cuApfOIGuaPzwxek7LRC0uBUKi4pSVSQIGQ0AKBD1NlXIEAtzcPRv3HVk4GtSaN9cPsvnSBwopLzLuWEZ2LO3Jyt4epBkymw625/D0CGXG2rmcn9edjRbdmO9TBhOxDKCJZXzHNqTzW45vVSNcPMcxffYk3qzuzLz4DnT7P/bOAjqK6+3DT2STjRHHg3uQUlKCu1Oc4i5BCxRoKVLcHYrTUtyLFSsuxYq3uAaXCEkgySbZ7H7nXZp+7b8GbBKyyZ1zckjpzsy9z3vZ+c1r13kjqwxNCaj9ATaGSBzS+eDl5mCywuWtUwk44MO+aZ+wYUgHrHrMpGW6X2jT/Bsmzq1L7yFn+G75ZLwdntGtaQ8+/ao6g+fpWfF1H5zvLaTLIiNDWlgx7gcHhnauiqO1EWsnN56fms20/xEIt078wM5b8eQL28e8W8VZM8SBXmOfM2taX1ztXgcvXt5YRLdvNcwb3R43u3heRsZyZGpHHlUfR4fsT6le52vmHl7B5WkBRLWdQtv86flpcjsulBlKr7LZWdmlPLEN51Lnw8wYI8Nxdg2lb+s5DF+3kufbRzDtSV1Wd3lFQI8dzFwxCw9tysygVALBzC8JdboiYKEElEAw03CWKhCM+ueMqFYKbff1fNncz5SYd3nHLNpu8+LI183ZO74D58t8Re2ny+m7yY6V3w1gx5BuuH8xm1bOZ2jf6Xtmrp3H2Xk92GDflUW9PkIjCY6GaCa3a4S+4XTa10rHZ90nM33uJF6s6sICXQuGlntIq+HH6dizPV5hV8lWuQNFfFxMVvh10yS6HfBh7/RPWD+4I8YeM2ntepF2Lb5l4prRjO82iHrjFlAjw12+Gr2TQcNq067ZBDpPnkXpiO/ovV7LlAGl6dplInW79sTPPQz73FWwu73YFGL4tmcJHDSmJAgWf9aK4EbjKfXrFCb8nJOF47MyZMRdxn3Zliy5smJvbUVM2Dka1h9CjZ59KWS8g7ZwQ6z2DuHHLAG08r5K627rWXDge+7M7cHLtlPoVDADRya242zpIfSrVIBLizsx+LA3PTvUJuL6PcrXy86QjvMZkSAQHtdmTU89AR3XMXz8IDLny4lTUlZ7vONaVwLhHcGp0xQBCyegBIKZBrRUgRDx6BLLFi5D41uLpvUr4aWN58zutWy8YKRHt6YYbx9g9ZEHlCyUgdOXQmnWrDLHNm/AtkQjyrgGsvqHK9Rv35oH+9dw2aoI3ZtXwtneBjBw6ceV7HvoRJ3S3mzcep5qjRoSdWYdFw1Fad/EnxObVnHmXiR5StWmfoXCONlJSqCeMztWsPWmE12blOD4lg3EFf2YMu6PWbflAnU7dcfxySkOXwkls6cDGfKVpHheL87+uJ6j18LIk8eFh8+cqNe4Oo+Pfc/e849In780Tep8yI39azkQnJOuzSqT/rdqiqtHNrD57AvKFEzHmRtxtOlQkV3LNpPBvz7VP8qBxup1DsKFfRvZc/YBmQqXo161khifnOS7zWfJXzAX1369T8W6Fblz6AcictegiX9Wjn+/hPte5WhZuwxOsU/ZsGI1d17Z4V+zCb7aWyxfd4Jqrdvx6twPHAvLRq+WH7J/1Rri89emQYX8/1JFYuZCNeN0JRDMgKdOVQQsmIASCGYaz1IFgpnTVqenIQJKIKQhY6upKgJ/IKAEgpnLQQkEMwGq01M8ASUQUryJ1AAVgSQhoASCmViVQDAToDo9xRNQAiHFm0gNUBFIEgJKIJiJNS0IBIM+hpAnj7DxyIaH07+0InwLlga9jtDnj7BNlw03Z81bnPmHjxrjCQ9+QqSVJ5m9XldCqCPxCSiBkPhM1RUVAUsgoASCmVZKCwJBF3KN/q26UXbcFlr7uZtJ7PXpUSFXGNz4E8pO3EOz0lne6ZpGQwQLB3TmRtFhTO1Q7C8tkg26F8Rau6H9rWzxnW6SBCdJK+pogwuO2hTaW/l/5qwEQhIsAnVJRcACCCiBYKaRLFMgGImJjsZWo8HKRmN6sBridMTEW+Ogfb1nQnycDp3eGkcHO6ziQxlc62PyjdlOx1Iepuz+6Jh4HLTa162Tfz+MxEZHYbTVYq+RigaI0+uxsTISZ7D+/e8w6NHpnjOtbmlyjDlG63JZTZ+NiY4kRg9OTvboXkWBvRNO9jbEx8VhbY3p/2ntf/M2GA1ER0exc3I39mfqz9cBJUAfgy4OHB3t0UeF8OOc8bg3HIp/XndsMRCti8Neq/2zkDDqiYu3grgYsHN4XaoJxOqiMNho0WrkIW40tUa2tjJgLczkPnorHBzsTQ2VjIZ4U6tlY1wsVrZ22FoZTJ+3S2hBbTQQFRWNnYMjVvpXHPlmCpGle1KrWAbTZ3XRsdg5OLy2g0E20TKij7dCY2uDLlqHrZ2d6ff3dSiB8L7Iq/sqAu+XgBIIZvK3PIFg5OrR3VyPMPDk7FUqffopmSKvsu/nuwTfv4V3hXZUcbnG2gN3cYi4Sbqy7Wng782IOvXIM2obbYrFsXfPUR7eu0145mr0bFgcx99q9y8f3sKJJ7E8v3Gfam07YHdlE7vvWuMZ/YBTD535YkQfcjtGs3XTduKIZu3YwTReeIG25V8LhKe/7mbCvOP0G/cZt7Yv5JD2E1plusDGH6/i6fiSc4F6mg8YRvW8Tpza/T0PdbYcXTGdmJpzmPOJhtVbzmKjD8KqQCPKu12mVd0B1B69gE4NfDlz+CRBD2/y3Kk4PdtWI52d7J0QysZ5M7ljl5eQC3shby2G9G7C08PrOP7MmpAbN6gV0BPdL9tZccWezCHn8a7SFP2DO2h0z9Dlrkt7P1vWfbcWNz9fbu47TFSmCnzo9phDp+9Ts/dQauSy5vS+PQQ+e0RgVBaaV/WkX+Me5A2YxGcdKnDj2GEe3A/k6qsstK+TlR3rt5HRQ8sNQ16aFrYhMMaJoKehNG7RCjfH9yMSlEAw80tCna4IWCgBJRDMNJzFCQRDHNMH9MVYsiHVPWJxLVmUbcPHULLPWJyfHmdPSB4qWx3ltLUf+R4vYumTSswbWpdxH4tA2ELRX4dxzK42ue2fsWDdL4xdNI2i3vamt97ty7/B+yM/dozsh1XThQzw3Uub8c8ZO7w5q/p0JM+Xm/B7OItjTo1pWd6LMbUr4zf9FG1+Ewj6Zz/RuPYExu7aSNThiYy604CVdW7SvMd6hswdT9Dumcw6n4sFXTQsPeXB4N712Ta6A2fyf8W4YhfY9jgHWeOOM+NUdpZ/WZTu5TrQ6ft9eN9dzfGXPhRwCmb1+tMMmDydIlmdwRjLykHN2WnfjJGtcjH582EUHrgA75Ob8KpShctze6FpvoCqjudoNPkOi4bWxVr/mFu6rGS6v5Mvdqdj//JubB/Wnvs1h9Iu4y1691rFwHkzeHlkLt9GfMy0D8+x6BdvavllYOuqTVTq+yn7enXlo0kbqWG7gxVnHSiezZaVC9bSeuQYDo3thm/v6RT0tuHItNHYNficj3Jo8S3sZ/KmvI9DCYT3QV3dUxF4/wSUQDDTBhYnEIwGLh9cy4JVO3lhl5dB/SowvtM0Bn+/gaIZ7Xn54iXhd35i+y/RfOh5jjkncrNgVGPG16tHnpHrYVFdourPpVaxjBh0UXjlLISbg7jhDfy8az3XdW483T6NoIrTmVjrPJ0mR/P1uNas6lSNmFYLYXk7PHptoE359EytWZzMw4/QupyPyQqG0FM0rT6GkTs3Ent8Cl9dr8vGZo9o02M7c76fR7obG6jYax9dyj3jnHd3Fn1Rh53jOrDLuw8Tqr5k4+EnZE4fwYydVqwdV46epdvQfccRXm3ow3XfLtT3zYjRoCdDphykc5JQSjybh7fiULZBzOj8ISuGNONcodE01R7jnsYHmyMTeFRpCk0yBdJ4XjiH5rfH+OwC6w/cJIvVA75YF82BzUM5Nr4rQS0n0Dn7AzrXHc/gdevQHZ1GvxMFGOy1iY3GRgxq/gFWcTHYe7gw7ZMW+E/fRvELn7NcX58O1YpgZdDh6uXN4r4tqfLVOkrlduHSjyuYt/YAhkx+jBjWm4xOr/eISO5DCYTkJq7upwikDAJKIJhpB4sTCAY9+w5foHiRTKzuVw/bljN5uuAzIqoNotkHLpx96opu3zheVJ1IR4dlDD2QnomD27O4bSPyjt5G4bM9GXWuAJ91qUPopRv4t2xJNtNujOH0bh1A20mzODmqFVeLjWBWo9sETI9jzoTWrOpcFV3LpeQ70ZeV1m2YNaAKU2r7k2fEQbrWyIuVdC6M/IU2FXrRbfUanmwZyawXLdnV6RVtum9kzuYlWJ1ZQt89rnxZ4DiDftCwYvkEDo9tyR6vHjR5MpaTBb+iQ74bBCyLZunQcgyv04kWS7Zhf3sRw7fqGda3CTZBdylUqTE+HtrfBcIuz17M71OeuYP7kbFBJ9Z8MYJOi2YSPqcNt4sPpYFvBO0WhHN0YScuL+rGlgwBtHY8QbNpT9i0cQhXZ/UlqNVEuopAqDOewetFIEyn7/ECLK58iS4zr9B/eH8cgu7hWbIEa9q2oOCQlZTSbKX39Kv07tcRz5BLeJeuz7ahbak8fC2lc1mxY8MFSlXJyzejhlPwixnkfnSO6Ex+lMjhmqxCQQkEM78k1OmKgIUSUALBTMNZokDYvmY5Ua5ZsAkN5oM6DXF8eoJv1x1Ak7EgDZo2IubMWjaej6RipeycPPqURi0rsWvuHLyq96CZn5ZlC7/jXpQjpWo3p5Z/rt/aA8fxwzfTuRSTiQKaR1wjP/VzB7PyFLRrVYWj387GUKINLT9yYPnKLRg8s6MJPI939S40Kl/o9UZPxigOfTeDE+EZyJvFhishHnQtH0/Hzt/SenBvHOJ05C9bjQIuEWxauZLbsR6kjw8iMpM/dTLeZ/VPIRT2K8z5n6/SrGNzHm2aw6301fikag5++G4Jt17a82Hl+tSvVBQHW3kXFw9CS5aHlaFb7VxEW3tTrbwvuxfP4rYmJ/7eTzkbWQD/9CGsOPiC/v07ku7JQeZvv0mJwln56fgdWndpwuUfVhJeuBG1fEJZ8u0+anX7lPiLm9l0y50hXStzattKjlwPp3C5ujSpXZxfVs/mRFxB2n1SisOrvuX0Qx0FStWm5gfObFi4hMw1u9KgTEZ2LVqOVa7C2MTG4F+jBle2fkNo7oY08sv0P8mhZi7i/zhdCYSk5auurgikVAJKIJhpGYsTCGbON7lPj7/3A026/sCcTfPJ6pzYMfh4vv+qJYd9BjGza4m/lEkm91xT6v2UQEipllHjUgSSloASCGbyVQLBTID/cXrgsVWMWXyabiNH45c9XaI+xA2xIayYOJzLbrUY0a3Oe0sCTFqC5l9dCQTzGaorKAKWSEAJBDOtpgSCmQD/4/SXoc8Jj4rDyT09bo6aRHWtQeUQTAAAIABJREFUG+N1BD0LIc7KjvTpPdHYWEbjoqQl/terK4GQ3MTV/RSBlEFACQQz7aAEgpkA1ekpnoASCCneRGqAikCSEFACwUysIhBu377NyJEjsbFJ7Bi5mYNTpysCiUBABMLnn3/O1q1bKVOmTCJc8Z8vUbNmTdq1a0eLFi3Uv6ckJa0urgj8NwElEP6b0b9+YvDgwaxbt46sWbOaSvXUkfQEQkJCMBgMeHt7J/3N1B2IjIwkIiKCNWvWUKJEiSQlogRCkuJVF1cE3oqAEghvheuvH3748CHywFJH8hEYNmwY4eHhzJgxA1vbxNldMvlGb5l3EvGbO3dunJycknQCSiAkKV51cUXgrQgogfBWuNSHUwIBcUGHhoayefNmNJp33Co6JUxEjeEvBJRAUItCEUg5BJRASDm2UCN5QwJKILwhKAv8mBIIFmg0NeRUS0AJhFRr2tQ7MSUQUq9tlUBIvbZVM7M8AkogWJ7N0vyIlUBIvUtACYTUa1s1M8sjoASC5dkszY9YCYTUuwSUQEi9tlUzszwCSiBYns3S/IiVQEi9S0AJhNRrWzUzyyOgBILl2SxNjvj+/fsEBgZiNBpNTamio6MZN26cqczRy8uLQoUKqT4UqWBlKIGQCoyoppBqCCiBkGpMmboncvLkSWrXrs2rV6+Ij483TTahc+WECRPo378/1tZqLwVLXwVKIFi6BdX4UxMBJRBSkzVT8VxEFDRv3pxNmzaZvAgJR5EiRdi9ezeZM2dOxbNPO1NTAiHt2FrNNOUTUAIh5dtIjfA3Atu3bzeJhKioKNPfSHe/WbNm0atXL+U9SCWrRAmEVGJINY1UQUAJhFRhxrQxCck7aNiwIfv27TPtxZA+fXpOnz5NtmzZ0gaANDBLJRDSgJHVFC2GgBIIFmMqNVAhcPToUerXr2/KRRDvQUBAgNqPIRUtDSUQUpEx1VQsnoASCBZvwrQ1gQQvwrNnzzh8+DCurq5pC0Aqn60SCKncwGp6FkVACQSLMpcarBCQRMUnT57Qs2dPVdqYypaEEgipzKBqOhZNQAkEizZf6h+8VCyEhYXx/Plzrl27xvHjxzl//rwpKbFKlSr4+/uTPXt2Uz6Co6Nj6geSymeoBEIqN7CankURUALBosyVdgYbGRlpSkA8cuSI6c8LFy5gb29P2bJlKVmypEk0iFg4e/Ys3t7eFC9enFKlSlGhQgUKFiz4e4+EtEMsdcxUCYTUYUc1i9RBQAmE1GFHi56FeAnEQ3Djxg0uX77MqVOnuHr1Klqt1uQZ8PX1NT388+TJY+qa6OLiYqpiCA0NJSgoiIsXL5rOuXv3LsHBwSYhUaJECT766CPy589vOs/Z2dmiGaWVwSuBkFYsreZpCQSUQLAEK6WyMUrTo5cvX/LixQvOnDnDsWPHuH79Ok+fPsXOzo4yZcqYBIF4AnLnzo2Tk9MbERCRcfPmTX799Vd++uknUygiXbp0piZK4mEoV64c+fLlMyU2SjhC+iioI2URUAIhZdlDjSZtE1ACIW3bP1lnLwJAwgXyI6EBefOXHgYffPCB6QH+4YcfmgSBg4ODSSi86wNcBEhMTIypFPKXX375/V4SppDcBbmXn5+fycMg91a5C8m6DP71ZkogpBxbqJEoAkogqDWQJAT0er2p0kA2WJIHs+yl8PDhQ1NugLu7uykEIF4CEQiZMmV6Yy/BuwxWwhHirZDxSOhCxnLlyhXThk8yHmnXLGORcISMx8PD453FybuMT53z/wSUQFCrQRFIOQSUQEg5trDokSS8tYubX9z7kkAoD+E7d+7g4+NjSh6U5MLChQuTM2fO997cSLwLIhYkHCFjlZ4KGo3GlK9QrFgx03jFyyDeBfl7tRFU8ixPJRCSh7O6iyLwJgSUQHgTSuozf0tAkgtv3bplcuNLvF9CBw8ePDC9hcuDVlz54inIkiWLKbFQkg5T2iHeBdnbISIiwpQHIXO4dOmSKeFRvA4iFkQoyJ9FixbF09NTeReS0IhKICQhXHVpReAtCSiB8JbA0vLHxSUvHgIRAT///LPJVS9VAzqdzpQIKG56eZjmyJHDJArkzdsSD0mgvH//vinhUeYoiZQyR/EmiPCRJEoRCxkzZjQJhoRtpy1xriltzEogpDSLqPGkZQJKIKRl67/B3OUNWx6U0o8goUnR48ePTW/U5cuXN3kIJNFP8ggkqfBdEwvfYCjv5SPiJYmLizMxEC/JiRMnTPtBSKtnCZfI/IWD/Li5ub2XMaammyqBkJqsqeZi6QSUQLB0Cyby+MVLIGEDcbfLm7O43OXvJHFPPAOSRyDiIOHt2dbWNpFH8M+X0+vjsLGxfa8iRBo4hYSEmJIvhY2IBqnOkJ4MefPmNfER74IkPGbNmlXlLrzl6lAC4S2BqY8rAklIQAmEJIRrCZeWB154eDi3b9829SOQ8kPJ9peYfKFChUydC0UQSP+ADBkyvNnDOT6CM/v3svf0Pfw/bkzZvB6cP7CZn27HUrZaHfwLZcb6DXsQGOPjMVhD0NUjzNt0ib6fdcfTKalCF0b0egO2tjZvbDoppxSxIE2eJOwiDEVASIMnEVTCT8opRVBJTwZLDbu8MRAzP6gEgpkA1emKQCISUAIhEWFayqXEIyDZ+/JAEy+BiAIpS5Ryv4SkPPldXObSlfDtY+wGHp3eStlmK9h0ZiXFPbREnZ5J/SmPWbNkAuld3vwBf/3YMaw/KEEu2+d06jiacfPnktXVPklQG1/dYcepWGpVzo+t9ds3UZJQhOQqSDnnuXPnfu+/IOJLKjcSujuKl0H2j1CVEX81oxIISbK01UUVgXcioATCO2GznJMSNju6d++eKWwgLYml6kAEgTQjEi9BQtdCSTSUVsaJkUcQdHEnHzZazq4Lyyiczh795Xl8POYBa74bh3XITW48DuNVhI5CH/njronk5u1HxETF4JK/GHnc7JDHc1zQFXoEjOGj3v1oUy43/QI+p2vPrjx9/opiZSuQ3d2awJs3ePwsGE36ghTPm/73B3vsq1BuBT4iNPQFXrmKkj+rCw9vXud5WAQxNu4UK5IXbcxTrt0NRherx6dAfs4sGczsy/mYOqwthbK48g4a4U8LQ7wLkqsgCY8iGIS9/HdsbKxp/wgRCtIcKleuXKZSULFHWj+UQEjrK0DNPyURUAIhJVkjEcYigkAeTBI6kE6FklAnjYokyU7ecEUMSBa+eAokyS6p9igwCYS6kxg4sSdZHWyJf7iHOUfd2LpsJFtH9ye8VHOsvx+IdavvqOJwkoNheSigu8fT4o1ont8VGyuICblL57YDqD58NM1KZKJ3y85UbdWeW1vmElVlDF8Uvsq2WxnJbH2Pccuu8vWyyRT1klJKA/vXzCPI+yOcr6xnc4gfE5trWLw7ghoV87F+xmzytB9NxeD5HLVvTBarR6QvWYWn60Yz7U5xFo9oSS5vZ5NIScxDEj7FuyBllOK1kX4RItpEmEnOgthG2kGLd0E8N5YSjjAaDcTGxBCPDQ720gETjIbX3Syx0aC1e3OPkRIIibni1LUUAfMIKIFgHr8Uc7bEveXBI2JAkuckhCB7GMjbqQiBhI2LZB8C+fukdm+bBEKDb1l3ZC4FnO2Iv76E1jODWbd0LE9O7uRqlD3h24dxv9wMOhR4wvApm/EpXoWWndri623/+uFsjKdX8840+fprKmfQE9B2AENmzUW3bQCTH5Sn7rPp3C0xkjJ5nHj8JJxSNevg46oB4wuG9BhIt4nzyGKvI+RVLCcmNOZCsQkMb1eGa9/2YPiV4kz6OI5R354ml39NunRowuMtYxh7uywbhtfGXhRKEh7iRZBmTVI2mmAzEXHi6REbSbmohCQk4VHyP0QwpNRDH/WCc0e2sWjrdToPGkTpHK5EhT5iz9pvwLcpH5criK2N9RsNXwmEN8KkPqQIJAsBJRCSBXPi3kS6FkrWvLirJVwgpXeSJCcNf+TBL65rf39/04NFEuWkSVFihA3eZhYmgdBwObsu/hZiuDSXuhJiWDSUhUO/JGvLnuTY04s92YfRs0oGnj0PYeuS+dwv2p/53UpiJw9oYzy9m3Wk7oyZVM9kpEenLxkx+2uif/icsbdL0zx6PgczD6Bfi3Lon9zBPteHZHSxBeNLhrRuRu7uM6hfIB1P7z3k3rav2ObYidlffMKTtf2ZcK8sw+pl51lECJu/W4JD00lUffot42+WZOWQOrg6akxvwsl1iOdHykcl4VFsKiWlkrsgYYc/tqYWwScJkCLyktum/8YiLuIBXZo3IcSnEQumDSSLi4arWyaj/7AnRbPJTpri2YrFRmP3r/kdSiAk14pT91EE/puAEgj/zSjFfEI6+8mDQ1zTklwocW3pPyBuaXFPyxun7IAoSYXv9eGhj+Dw6jk07ruJWbvW0LRoBs6tGECXpSHMmjmWQzMG8CB7FarbHmDrq1p0LR3B+Rd5yGJ4SFCuRvSpmfu3h4iRyd0+4Xbuj+lXzZu+n31N7ymz0e8YxPwHJfluSAkG9BxLuFM2/Ku1pE+XWnjav65AOLdlOn2mbCdX4Q+o06o7DfOH8dXopfh8VAb9owf4twzAatMXHPOoQYb4+9h/1Ba/kM10mHqKL8aPpc4HWXnDl94kWR8JuSNSRinhCAkVSVKpJI5K3oLYW3ovSDJpcpaa/tNk9VFhLNz4A/f2rOJhoU+ZN7AWz/bORl80AN/MRk7t3MWjGB1Pw+xo0aYpHtq/rxRRAiFJlpO6qCLwTgSUQHgnbEl/ksSrHz16ZIpRyxulPBxkXwMplZOSOWlOlJANL938UtQbpVHPi6BnPAl+hVdmH7xc7Ah7/oDnLw14Z8yEdWQQwVGQ0d2W4Cg7vJ3iCX5lQKuxxcXTCyfN/7ujw57dJzTGjoxutjx+Fo5b+ozw6hnhegd8fNIT9vg+Ia/0eGfNjqfz6+RGOeJjo3j04CEx1k5k9cmEg60VL549IiLWCo3WmQxe6YgJfkBwjC32dra4eXhhq3/FvYdBeGT2wdXx/6+V9Nb+9zuIx0jEYVBQkCmMJMmO0qtCulgm7E4pISQRh9KLQdZIch8iEBbtvECdQraM6DOIAp0nU9fpFDbFu2F7bSUTT2VmTGc/TqyewA5tC+YHlMLhD3ZOGK8SCMltOXU/ReCfCSiBkEJWhyQQSj8C+dKXB4CEDWQ/AAkjiItZ6uklLl2gQAFTyVxKjkmnEKSpehiScyJhpcuXL5u8SpJ3IgmnIh4lb0HWi6wVWTvJkXOSIBDa1S9P1NXN9PpqA0VKZqdhuxHcWdub1Zq+rPi0GIFHF1Frto6zq3vh4fDXJltKIKTqZasmZ2EElEB4zwYTESBf7hIykJ9r166ZvtilykBcyRI2kBI42ejIUrLa3zPSNHV78TRJwqPkn0hiqqwhSXqUH/l72TBLhKV4m+R3yUdJikMSFRdsv0CHhpVwtjNydtM0Pp20ndnrdmB9eibd1lqzddnnBB9ZxIx7xZnbtRSOtn9NXFQCISmso66pCLwbASUQ3o3bO50lZV9S5iaiQPIHZCMgeROUGLK8+YmbWH6kRa90LUyJux++08T/8SQjsbF6NHYa80sK9bHorTXv1OAocef0fq+WkLsg3TDFwyBrTMISUvYqeSkShkjoeyHllBKeMr+iJZZ7F0+y4sAtGjVtjK+PG8bYcA5vXUeOSu3IbB/M90tXovPOg4udLR9WqUVOd+3f2lwJhPe7ftTdFYE/ElACIQnXQ0JnPdn9UBILJXQgOQWSWyCx4oTNjqQMUXY/fPuOhUk4+CS+tEEXwr69pwi8eRFN4Qa0rV4Q23coGzAYjVhbxXNu9RQe52lB3ZI5zRcbSTz35L68eBfEMyUeBhEMkvAoeQ25c+f+PRwhwlS8CxK6Ml8wvPsMlUB4d3bqTEUgsQkogZDIRKVDoXwZS2KhZJ9LcqHkFki5oYgCcfeKq1dK1eQLOa2GDe4cW8G4S0UZ5h/G2efu1K9eBLu3FAhGfQi/3n1FoTzZeBV4kZfOefHxdkpki6aey4l3QcSCbGctPRckHCHrVJJfpR9DQr8MSYCVPIY33nsjEREpgZCIMNWlFAEzCSiBYCZA+bKVVrpSwy5iQH5koyOJ/0rNunQtlC9bEQgSRkhLXoJ/Qhsf8ZR1i0ezNrIOX9XLTNSLlxQrVYqwO+e5FZ2e8oW9uH87EI2nC09vPSRdzsIUyOpGRNAjnj0PJQon8ubw5MS3X7BT50+3lvXRvgrE4JqPnJmcef74AaGh4ehsXMifx4eYkPtce26Fl1UwjyO1+JXwxcnuzTdkMnOJpOjTJfQg61d6LoiHS/JhpIGTg4ODKRm2dOnS+Pr6msSsJEEm9fr95JNP6NmzJy1atEjye6Vow6jBKQIpgIASCO9oBNmUZ82aNfz444/s27ePsLAw0xdqly5dTAlh8hYmGeTq+CuB+JfPWLdwOGt1DRjfxI05A4bRdf4mbE/Pp/3mdOybUYdpvbsQV7kVuR4eZevjYqydWYfVS/ZRxN+XBWNm0WTsbLx+7M4KQ2P6t6rI9i8aEdvkO/pWNDJl5UWqls7B3vnTyBMwmXxB2+m0+DFftPDlwJqVdJi5kaq+GVUo4m8Wp4QeRCyI92vPnj2sX7/e1KJb9uiQMFhSe7xEoCxdulQJBPXFoQikAAJKILyjEeSLVN68ZHvf3bt3m7ZIltwC+SIVgZBQl54nT54k2+/gHYeeIk47vn4oC6I6s7i1E6Nbt6HxlI143VxDk2UGDiwJYP2gtlh1mkEr7XGaf3qA8V2c+TbQn4mf1Sf03j3sM2Qjem1b5toEMLJdeXb2K8OV0nOpFfENa107MOaTUkQcGkqPXfkY09iF1nMf8ePCrhwc2Rhdo9m0LpMX5UP4/6Ug4QdZv5LYKLkK4k2QvTykk6MkM8rmUiIQxLOQ1Ee9evVMyZTvtdlXUk9SXV8RsAACSiAkgpHky1Wa2EhcV75cpS5dvlzFJSudDiXEIN0OJQdBOuHJ36f1L7/j64YyP6oz37RJx7i2Lagzfj3uV5bTcpU1+5f1YNOQTjj1nk1jq2M0776TMV1dGfajC1+P741j1F2CjTlx2d+d2XTiq9bl2P9FBS6VmkOt8IVMjWjEwn51sLo+i8++z8TAWna0XvyC/XPacmhME17UmUbbsvnStEAQr4CEwmTdylu7rFmprpFcBGm0JKEFEbqyiZR4xpJDGCTCP0V1CUVAEUhEAkogJCJMuVRCXbrkJiQkKkq7XKlLl0N6GyTUpcvvafGL1xj1nCUTevNteCNWDqvBz3N7cTD2A4raP+bbM/Ysm9mFtUN6YtN2Ci0cj9FlyH5mLBvJlgmjuG5Ij6/vR7Tr1paMFybScXUUXbu24Zcpzbn10TgmtMzCsJFLKVqlKi7PLpC+WmfS3VpP6wXBbJzdib1jO/Ci+niGtK6E89/U4SfyckhxlxOvlwiChN4b4jEQASB9N6TnhvyIx0D13UhxplMDUgSSnYASCEmMXLwL0iZXkhilxFHKzK5cuWLKJpf/J730pS5dmiMl1KWndu+CMS6Ke3duEax3IV+uLFi/esz1++F4e7sRER1PtkwePL13F6NbNrw1Lwl8EkH2fAWxjnjEnUchePjkIXt6V6xigrl0/Rnps2fj1YMbxDplJl/29IQ8ukNINNjZu+Dj482rZ4HcfhZHrhwZCHt0F306H3L5eKF5y6qJJF4qiX558RJI3w2pUhCBKmtPOnNKHoFU0UgYTMRqtmzZTAm0qb/vRqIjVhdUBFI1ASUQ3oN5JUv86tWrpnCEtFQW964ckq8ggkHCEeJdSAl16e8Bj7rlOxJI6LshuQSypkQQiCiVPhziJUho1y1rTERBUlckvOM01GmKgCKQQggogfAeDZFQly6xYMlfELevhCUki1y8DlKXnlARIV/qkiiW2r0L79EcFnlr6bshaychnCVrSPIKxBsl231LyEDEpngIJPdFkg7VoQgoAorAmxBQAuFNKCXjZ6QuPTAw0LRbn/RUkGY2Eo4Q9690vpPkMRELmTNnNgkG9RaYjMZJAbeS9SFhgnv37v3ed0PEpJTdipdAwlWSTyC/yxpR6yMFGE0NQRGwUAJKIKRwwyW8IUpdekKbXCmplOY1Ej+WcIQ0Y5LySuVdSOHGfMfhyRqQUMGRI0dMa0DWgngJxDMg9pdcAvEUeHh4qDXwjozVaYqAIvBXAkogWNCqEE+CbO4kmejiWZAHhYgFadIkMWV/f3/T26OUpskOkOrt8e+NGxP2kOM/XyN/uQpktNERGPiQsGgrchfIi6v2r1sQJ/cSkRwV8SBJy27xIsnGXtKZUzZWkjwVsbN4kaQVspTNymZf6lAEFAFFILEJKIGQ2EST8XryZim16/J2KYJBEh7F/SyhB4lBi7tZ3i6lF4M8SFT8+bVxdC/uMjCgP01mfofu4Fas8xZGf3YNF7Q1Gdi+OvbJ2EFJ8lAkbCBhAik5FBtKxcHTp09NeyaI4BMPkeSjiPBTnqJk/AembqUIpHECSiCkkgUgYkHeMiWDXTwLIhjkQSMJbOJdSNhKWv6U+HSyeReM8US8CMcunRtaU98BIzGvwtGhJZ3z6y1/4/U6jFZ26KKjcHR0QvcylLBXOmxdvPDQxBIUFoW7lxdaDUSEhmHn4oZWYwMGHbFxEKs34uTkQGxUBFHxdri5/P9WwrqXYeisHHBztjdZ2hAfQ3hkDHM+7065r+Zwe9ki8rbvRZn49bQcHcQ3c7/ATSvjTNpDvEHSTCuhJ4F4CmQXRWmqJZt5iZ1EHCQkFr7PHRaTloS6uiKgCKRUAkogpFTLmDkuEQviTZASt4QaeAlHyN9LrFryF+RHxIKEI5KiYZMxNoitWw7g4Kxh244LBAzrT/zPG7lj7UPso18JdC5Du3L2LJw4kzz+lbn762niSnSlb5k4Jo6eT80h06ns9Yxvl56iSedaXDx0gjji2Lf/V+q0a8yFRV8Rk7sisTG21P/QiYsvfcjKFXb+Ek+zNs2wv3OKJ9ZO3DlzBNeqvajl+ZDvDweSx0fDwplL6b10LR9q9WictJxdPIgz6VvSu2kZNImsD8RLEBoaakoslLCBtDG+dOmSqamWJJ9KPklCLwzx9qhcAjMXvzpdEVAEEoWAEgiJgtEyLiLeBem9IDFtqZOX36W/vpTDSTmlVEiIYHB0dEyUcETkT+OYcs2PIe3KcWzHbjLk9GBwzwVM2LGc7OE/U67K58zet4G9n7egxND1FAneQtMleg4s78XBWX04muNTBua8zaHoojRy2cbgDXrqVS3EqZ1byVbvU3TzPuZly9W0LunOyt7NcOi2ieYF7tJs5DlWj6hApx7L6PJZY2IDT/AzVcl1YxnxzUfS08+dUZ3bUHnsEipmdiE26DaLd92i5SfV8HIwP74gD36pKpDQQQJrKUMUb46IBeEsgkC8BSIOnJzUFtWW8S9IjVIRSFsElEBIW/Y2zVYa6sjDS95qE8IRkscg+QwiDkQsSFa8PMCkw+O7dth7tqodQx/UY87nTbGPe0rgyYPU77mW1Uc3Utg+kMaF69B1+0HOTuhIzTEb8Hm8mXozQ/hxdX8M13dSu8cO2nSqTpOm9Uh3dAh9juVn6hfNsbeKJDLGlj0DykKH7bSrmpNfVg1h/ZOi1Chs4GRITrr5xVGh9Xcs2TiD/B42PAuJY/HnHck+fDndi7gzqVc7Sg2bT8XM6YgIfkSUrRuZ3JzM2uFRKgvEMyAeGwkZyJ+SWCjbfktSoXAVMSZ7HYjHRoUN0uA/PjVlRcCCCCiBYEHGSqqhyhuvhCOk/4I84CRRThLmpCWvq6uraetqeeuVB51kzkuHxzcpqdTf307LT1fgV6s23lZx+FUuxYZRg8jafCgVs7xi3MJfGTmmMfO7taXaqLXkfLyJT75+zo4Nw8lq94qv29flRb1pDG5RFpugQ3TqNgufcjXJ76khl39lzgytRnzrdXza+AOurPiS1Q9y8mEebzLnLUbRnFqmBXTkcY6qlC+WHYdc5TEenczahzn5vFNl1k4YScnB82hW3Ieb+1dzO0N16hZOj40kRbzBIbt5BgcHm5IJxTsgzKSlseQW2NvbmwSWeAmk6kASRoWZOhQBRUARsCQCSiBYkrWScazS3VHegBN2+pOQhLz5SgKdvAlL/b38LiV2/yYWrp/6kUPn71OgQj3KFchAXMgNdh25itbFjYL+ZfCMvc/ObQfJ4FeD9JGXOXwlio+b1CGruyO6Wwd56uJPzgyOppnfPbefXT9dJlPx6lTxdeHQli0YcpSlZoUC/DR9MD88s8EqVkdcrI7ybUbSpGAk32/ZT7RLbpo0qIazPoi923fxnAx4OOhwz1UKf99MPDi7l/vuJSmf2/0fBYKEBhL21RAW8iOJoCIOpEuhtDEWQSDCQLwEIq7UoQgoAoqAJRNQAsGSrZcMY5c35fDwcFP/BdlkKqG/v7jTJeFRHoiScV+oUCHTg1HKKd/Eu5CYQ48LvUXX3rOo274p2Vw1hD28jCZfI6oU9TLrNiIIJMlTwi9ScSDJhRKGkTlKMmGCWJIqESk/lLBBcs/drAmqkxUBRUAR+BcCSiCo5fHWBKRmXxLuEgSD5DGIJ0HCD5J0J+EI+dPd3d3kdUjqWLsh9iU/7djI2cAInD0ykM+3BCWL58bB5u3KEUTwiBiScIt4TiRsIJUHIoakskDmJWJI+hHkyJHDFEpQhyKgCCgCqZWAEgip1bLJMC95w5aEx+joaJNYkIeqiAUJTUiTn4R6fglJSEmliIUkO4wG9Pp4jFj9FvZ4szvJHBL2NUjoSSBdDPPmzWvqQ5CwJbKUgkqjKdW18M24qk8pAoqA5RNQAsHybZhiZiAPW8ldkH4LsiOluOQlRi9/J0JCKiKkTbB0BZQ3cPE4JLdLPiYmxhQ2kITC8+fPm0ImUs0hOQMSNhAxI3sciCCQ3ALVfTLFLC81EEVAEUhmAkogJDMbNVG4AAAgAElEQVTwtHY76QcgFREiFKT0T9z2UmIp/RYKFixoaiMsb+kSjpAYfmJ3eJSwgXg4ZP8KubeMQcbz+PFjU4WB3F/yKKQMMWvWrEkeDklr9lfzVQQUAcsloASC5drO4kYuD2oJPUg5pbjzpYmQvMlLqaDE9UUoSFhC+i9IA6d39S6It0ISC6URlFQaiCiQDa3EayGJlAn3SZ8+vamVsao4sLilpAasCCgCyUBACYRkgKxu8fcExLsgb/YSjpAHuYgGSYCUxkwiECQcIe5++V3CEf/0IJfdD0VkSIWBhDUkD0KSDSWcIF4CKT8UD4F4LSSMkNRJk8reioAioAikBgJKIKQGK6aSOUjDJvEuyANe3vqPHTtmEg+SMChhAKkikB8RDLI51dWrV02fkc/KOeIlkM8lhC3kd2n09K6eiFSCVU1DEVAEFIF3IqAEwjthUyclNQF5+5fkwYTdKUUEyO/Sj0FKDiWPQZIipf+ACAjxEkhppYQNpE9BYucyJPV81fUVAUVAEUhpBJRASGkWUeP5WwLiXZBwhDQs+uyzz6hQoQIBAQGm3AW1+6FaNIqAIqAIJD4BJRASn6m6YhISkCTHKlWq0L59e3r37p2Ed1KXVgQUAUUgbRNQAiFt29/iZp8gEDp06ECvXr0sbvxqwIqAIqAIWAoBJRAsxVJqnCYCbywQjAZioqOI0Ruw0djjqLXHaIgjKioabOxxcrDH6g13blToFQFFQBFIiwSUQEiLVrfgOb+xQNBH8cvhjUydu5USHYbRvc4HxIffYO7o6WSs050W1Yqhecu9GiwYmxq6IqAIKAJvTUAJhLdGpk54nwTeWCAAxrgwpvRoyUWfTiwa0gT9w5Ms2nKPjt2a4uWoAWM8uth47O3sTN4EY7yemLh4bDUabJV4eJ9mVvdWBBSBFEBACYQUYAQ1hDcn8DYCQa766s5eOnSaQNu5q4g/u4d8dZrh6+VAXPhjDhw9y7N7NyFHBVrWLs65w3uJ0MVwPy4bbWoXQ6t5u90g33wW6pOKgCKgCKR8AkogpHwbpfkRSomj7BaZ0KpZyhvr1KlD27ZtTWyyZ89u6n/wt4dRz4nVY+m36jo9Ph1Em1rFsLWy4uCaWdzU5ieX8QYrfnjA+KldmT3mG6o2a0q0Lh21yufHXqOSFNL84lMAFIE0TEAJhDRsfEuZugiEsWPHsmrVKqQ9s+zG6OTkZBIFjo6OrF692tRK+Z+OqHunKFWhH9MO76V6DmcJPrBocGeMlQMom9UFg9GaPLkzsXXeJLaffUKR2p3o3bwczsqDYClLRI1TEVAEkoCAEghJAFVdMvEJiCiQNsvSTfGPR+vWrVm8eLFpJ8h/OnQPzuJvEgi7qZbNyfSxbVO7MedOfkZ2rYYu6BHF/XNz+7aRTJpA2n62lZkbplHU/Z+vmfgzVFdUBBQBRSBlEVACIWXZQ43mXwhIB8XZs2cjHgU5pJ3y7t27qVq16j/vt2CM4fpPuxg7ewO1eg+jWfkCaKytiHh4kbmzFvHMyouytZrQoKwjKxbvJ3Pe7DyNcqFJ3VKks7NR9lAEFAFFIM0SUAIhzZre8iZ+4cIFqlWrZtqPQQ4RBlu2bDFt2awORUARUAQUgcQloARC4vJUV0tCAvHx8QwcOJCvv/7alIOwf/9+0+6NarfGJISuLq0IKAJploASCGnW9JY5cdn+uXLlyvj5+bFmzRrs7e0tcyJq1IqAIqAIpHACSiCYaSB5q02IiZt5KXX6GxDQ6/WmTZqaNGlC9erV3+AM9ZHEImBra6u8NYkFU11HEbAAAkogmGmkSZMmmeLg6kg+AsHBwbi6uqLRaJLvpmn8TnZ2dsyZM+dfy0nTOCI1fUUg1RFQAsFMk3br1o0bN27Qrl07U1a9OhSB1Ebg8ePHTJ06lW3btlGmTJnUNj01H0VAEfgHAkogmLk0RCCI63XmzJnqjdZMlur0lEng2rVrpoqRDRs2KIGQMk2kRqUIJAkBJRDMxCoCQVzdIhBEKKhDEUhtBK5fv06VKlWUQEhthlXzUQT+g4ASCGYukbQhEIwYsSJ5diYwYjTyt8lwxtf/I5nGYebCeNfTjb+xTh7YbzRKJRDeCJP6kCKQ6ggogWCmSVOCQDDoo7h8/hwv4uzJltkVjwx5SOeQODsRxr0K4uSRo2iLVKCEjxeJc9W/hy73On74IK6+lSmWw/tPQiAu7AF79p4ld81a5E+nTZUiITL4LoePnqVYxTpk8XA0c2Um3ulKICQeS3UlRcCSCCiBYKa13rtAMEazf9EEHmaoRD63aPauXkaNwcsoldPMfQTiozh/JZhCuVzY8FU7njecTJ/yBbFNwjdbfXQoS/o1IK7pfLpXL8wfUz71kUF82bEn/tO+oYmP6z8KlbjoMJ5EWZHV858/Y6bJ//50YxT3nrwka+YMfxr329wrJvwOQzp1pumE9ZTO5/02pybpZ5VASFK86uKKQIoloASCmaZ57wJBf4dPK7ekyozv+fjDLLw8uYAn2TpRKIuG6IhQXsba4O6ejtjwIILCo3DwzIyXRsfj4Fd4Z86MHXGEhbzAzsUdZwd78eCbjsCTawhYEs6C0c15uPxTzpT8kvZFMmLn4oaznS0Y4okKDyEaLW6uLthavz7RaIgnMuIlNg72vAyJIJ23J8S+IiJWg6ebEzZWRvS6KEIjoknn5oa9nS1WGNHrdUSER3JiZjvuVZxMQNVCGKPCCY22wt0tHXa21kwKaE+ur2b/SSDoY14R+uIVjq4eONnGcGD5FM6nK0/7WhXxdrF7PRmjgTjdS168isfV1YWIkKforBzJ7GXPk4dBaD2zIvsyRUbrsImPwdohHfGxOmxtjcQatDhprXgZEoJR64qrixZDbCRRsTYQG461oydOdgZ+3T6DjfeyEdCuCVncXns4jAY94aEvMNg54uLsgC1GdJHhRMTa4unmgo21gVdhoUTF2+Lh4YbGOpbJnepSfvAaSuX1Ij42htDQcBzdPHDWvr+STiUQzPySUKcrAhZKQAkEMw333gWCUcehBUMYvf4apRu0ok3T6uTOmJ5nF7cw/5SBQjHnOW1XlaF1HRn+5Uwaj5tHJff7LFr2C626VOLYj6ewtdOzafMJ2g4bTYXcrmCM5afVk+m4LoZlEwOI++ELtmkrkivyNnsf5GbxjA7cP/IDT3Hj0v6tWPl35bOGRV9vghT4M70/W0DZNtV5eXwzQemrUMQzht0/nKD1+LmUdbrGmkMPye4Zz7btF+kydAj5tU9YvPon8hXIwL45w8nZdznVXR9zLdiKkAt7uOpYgVG96zGnZ4c/CQRjfBiTJy6mkG8WVn9/naHjOvHz1K6cy9GKPi2bkC+Ty2uxc3Y3R++B/eOTHAovTN+KQUzbGM3UiZ1ZPaQHYRVGUE+7nUmbHlMsqx3pixTm8Kbd+JcswAu3whS0jcTO041D23dTtHlXQtd9xQ2PauR1esrPL3IwbWAjzs1uy3cvqzDo0858kN0dKysj9w/M51R0IYyhtylQuxkRJ3bw2MqdiONreeXXg4Ze59l02wO3sAs8yN2ZwXWzMKtrXcoNXoOv9glbj93B0/Ypu396xqCxQ8ji/H5EghIIZn5JqNMVAQsloASCmYZ77wIBA7rIl1w8tJVvl63ldnQmxsycTHbdRU6FuWN3biWjjvmwd0VvDszoy6Es3eiX/RYX7UtRM34Fw3a70KByPs7u20ueBn2p75fZROTeqfU0XKzjyNzWXJzVlj0FBjDog0hq1ZnBvH0jWD1oAeU7tCLq9mmuxxfhsy7VcbSxwhAdRpv6XWi+cBF1bTfSYkwY82f2ZHuf6jyrPZcC57/iRdWptK+UnW2fVuTUR1OoZ72XHW7NGfFxIX4cXJsH1ScSt28+2Su3wSniBj/dsaVv3w4s7tPxfwRCOOs3HyVv+jj6d57JkL3bcdvUncO+X9CvRjE0JqdGNAsGdce/92wK2Adx5PIryuW8SreR15m3aBjbhjbnit8kxlT+meYDbzFrei/SOcXxRbuedJmxmMyPtjJoySM6tK7E3TOHiCvUFM/dvTmedwjj2xWgWfsJTPl2Cp47ujMhojkTe9TBznRfI79815uFN3NSu0YF/ErmYvyQOXw+ajCuIRe4EpmerFGnuRzrQ8jPq5kb3Ii9o0ozt3s9k0CIObKI7YYifJxfy+lDZ6jdux++Ho7vJfdCCQQzvyTU6YqAhRJQAsFMw713gWB4xr59IVSsWgDDqycs6F6Hp3W/pm2W+2y85UgN9zt89r0VO5f3w3h9JzW7bKRxp8Z0blMH+72f0f9iaWZ92Qwtr3gRocHb6/XOiH8SCLPb87P/MHrlD6d+lTFM2vEZ03utYNTK+fi42BL2LAjXzJnQWFlh1IXTruGndFg+j6r2O2g/IpQ5kzqyc0A1bpWbiPOmHth0XkWPmkV4tKgpU+M7UfHBYk6UGsP4j305OqY+18sM4/6KyTQYtxS/TI7owp5j55aJmf/jQTDE3GHqtK34V/Jjdo+RBGzajPvWHn8WCMZwvmrRiLJj1lMjnyev7t/BOv4MPUddZc4fBMK4aufoOPwxs6b3xdU+nL4dPqX/jMV4XV1MswVhLF8wCFdNDM+CYjg9oyXni01gWOPstGg3kpGLp5BxR4//EQgQ/vgm+3asZ9WmE9QfO5FtY6YxfNFciqV3IOjpE56cWsORsAIUcLjM6LPF2T2mHPN+EwjPt41il2t7prX9ACtdJNEOzniYwjHJfyiBkPzM1R0VgZRAQAkEM63w3gVC/F1Gdp6GX8c2ZHUxcnzZDNK3mojr8Umsia9EQ5dLjFj/kqVrxlDEPZ7FAQ151WAmfep/iE3ocboETMLFtwwFMrnh/3ErPsz22i3/9Jed1P5yH1NHdeD5uiH88tEg+hR5SZMGExm/awVX5w/iwMtslCuWg8wFq9Cwcn6TQIgJvkPzRv1ouWAOlQxbCJgazqwpAewYUJc7ZSbT1ec0U36yp3Oz8tzeOB/v5qPJFbyZvguu0r5jI4I2jeJ5hZEUfbGVb37SUa18UTJnLUyD6kUY07kDPgNnEuCXEztrK/Qhu2jWazedOlRkwYBx1J65gnIP5jE/pASfNm+IbzZ3wMDBRV8w9Ugc1Urlxy1DET6prqF/17lU79SW88snElLyS4ZXuk73SY+ZNWc4Gazv0b3D5wRM+YZSGYIY2mMwYVk/omjODOQrV5PAr1vza+HhjGySmdYdxzNo4WxK3JxGz73u9AnogF/eDFhbGTi9ZCIhBWvy4vQWnhQLwGrbEE5G+VCxaBayFylDxOZBXMzWgWJWFxh/MiMbxtRmycDO+H+xgg8Np+g9ag1FKlYmZ1YfGjatx97vlpC/aQf8MiavJ0EJBDO/JNTpioCFElACwUzDvXeBYHzJuSNnCdbFgjEeY7qcVCiZn5gnv7D90BXyFcjB/cBgytasTqZ0WqLunuCFa3GyeGhfx+cvHuHI2dukL1KBqiVymfII5NBHBrPrhx/xLlic2PsXiXDzpUhGPUeOXaF4tY/JbhfKnj2HiHHJRc1a5fG0f11zoAu+w/YfT5G1RBky6G5y8k48/qWKcu/kfqLSf0B1/zxcPHqQEIMW5/R58S+cBZv4KM4e2sOtMA0+HvHEu/lSPLczJ/bt5WmcKxVq1iSb3Qv27DqIXd7SlC+SHTsbK4yGSA5s+4Eol6yke/kIbf5y+Lq/YOeRu5SsVoMcHq93eoyLCuHo3j08jfekco3KZHK24vyB7VwNcySnhzU6h/T4aJ5z6lY0pStVwVN/j32HfiFriUqUyJeBsMDz7D54DudcflT3z8HZPbsIdy1AyVwaDh+9Qv5yVSjsEcEPu3+hQIUa5M8gD3Ajj87u4VKEE67OjhQsWhTNy3vsP3ACnXMeqlXxg4c/s/v0E3LkzsadwCDKlc7Pr8dO4uZbntIFvbl56iAnbgST96PKlC6chZN79pHho4rkdrdPVk+CEghmfkmo0xUBCyWgBIKZhnvvAsHM8avTFYH/IqAEwn8RUv9fEUidBJRAMNOuIhAiIiKYMWOGarVsJkt1esokIAKhadOmfP/992ovhpRpIjUqRSBJCCiBYCbWHj16sHr1aipVqoS1dVL2GTRzoKns9Pj4eLV7ZjLZNDQ0lIsXL7Jr1y5Kly6dTHdVt1EEFIH3TUAJBDMtsH//fn799Vczr6JOf1sCw4cPZ8CAAbi6ur7tqerz70BAtjIXL0KmTJne4Wx1iiKgCFgiASUQLNFqasxkzJiRc+fOkTnz674N6lAEFAFFQBFIXAJKICQuT3W1ZCKgBEIygVa3UQQUgTRLQAmENGt6y564EgiWbT81ekVAEUj5BJRASPk2UiP8GwJKIKhloQgoAopA0hJQAiFp+aqrJxEBJRCSCKy6rCKgCCgCvxFQAkEtBYskoASCRZpNDVoRUAQsiIASCBZkrLQ+VJ1Oh9FoNGHIkSMHJ06cMJXdWVlZYW9vb/pTHYqAIqAIKAKJQ0AJhMThqK6SxAREGLRt29bUsEeOa9eukSdPHlP3Sh8fH5YvX46Xl1cSj0JdXhFQBBSBtENACYS0Y2uLn+n06dMZNGgQer3+T3Pp168fU6ZMUa2uLd7CagKKgCKQkggogZCSrKHG8q8EHj9+TLly5bh79+7vn5NchGPHjpErVy5FTxFQBBQBRSARCSiBkIgw1aWSnsC8efPo378/MTExppyDr776yvQjoQZ1KAKKgCKgCCQeASUQEo+lulIyEAgJCTFtjHXp0iWcnZ05efIkvr6+yXBndQtFQBFQBNIWASUQ0pa9LX62kqw4adIkRowYwcCBA01/2tnZWfy81AQUAUVAEUhpBJRASGkWUeP5TwLiRejSpQtz5swhS5Ys//l59QFFQBFQBBSBtyegBMLbM/vTGbGxsaxbt84UE1dH8hEIDAw0lTfKNsTqSB4CkufRokULtFpt8txQ3UURUATeKwElEMzEHx4eTpEiRUxvshkyZDDzaup0RSBlEpDS0tOnT3P58mXVbyJlmkiNShFIdAJKIJiJNCwsjPz58zNr1ixq1Khh5tXU6YpAyiQgQtjPz8/UoMrb2ztlDlKNShFQBBKVgBIIZuIUgVCwYEGWLl1KzZo1zbyaOl0RSJkEZJ1L58qrV68qgZAyTaRGpQgkOgElEMxEqgSCmQDV6RZBQAkEizCTGqQikKgElEAwE+e7CIQ4XSSR0bFYa+xxcnTAxjoJNhkyGtFFhvMiykAGbw8S9RYGHU+fhOGVKSO21n8FqAt9TJiVOxndHd6abkzEUyKt3XB31pIEVN56PK9PMCI2e/4imgwZvLBNVJjvOKT/OM2gj+FFaAjadN44aTVm30QJBLMRqgsoAhZHQAkEM032LgLh4dWDTB87n1xNetGydjk8Hd49E18XrcNeq+WPGxlGRUWjtbPi2o/TmHDAlfkTeuFs9waP2/hYImJscXG0/teHszHyKvMXHKF1r664av9XIRi4sn0Bx6wq0KVu4bd8yBsJ3LeAs67VaeCXB9s3GLKZ5vvT6broaDRaLTZ/gKmPikRvb0/Y1d30nnKEOXPGkNHFPjFv++drGfW8jDbi7KD5k03f9oavnl1mTJ9+VB2ylOrFsrylHf56NyUQ3tYC6vOKgOUTUALBTBu+i0DA8JwBdetSacpW6hbODPo4sLZGr4//vemPQR+HlTXE6q2w19ig00VhwBYHrQ1RkTpstY4YIu7x/e4L1Pq4Dp7p7E0PAX3kM75de4QGjWuTPnYb7Uc+Ze6MT9Ha2mCX8Lpv0KOLjf9ti+QEAAbu/LSNHboP6VwhC1pbo+l68QYrbG2tidHpsLKxw04jYiael2EvcXR1w9qoJ95og1Efg7VGi401xOsieKnX4uZsh0Gvx2hjjT5Gj0Zrx2s5YSBGF4fG3v4vno34mEiijRqctHagj8VgrcGgj8VGY4+VIY6YeCu0dq/bKhvidMQabbG3s/3tAWg0jdPGTvuHt3y5V+xv9/qz4vjj+QZdKGs3/EjFWnXJ7JXONC5j3Es2f7OOrA0b45c+jnYdxjLp68l4Omr+cM9/ur6B2DgjtsSjt7L9nb282cuYtbYQHRWN3miFnZ2GuNhY7LRaXtw4yfrb6WhXrSCuDn9+8zfNTaPBxtrGJB4M8bHExlv/Ppb4uBjiDLL1tR1WRDO7QxXy9FlP7Q99sELYxGBrb/8nAfSmy18JhDclpT6nCKQeAkogmGnLdxMIwQxqUIdKE7dSwv4+69YfJGteH65cfUCVzn3I9PwYPxy8gadTNL/c11O3YwAZn/7Ipgs29OlajW0L5hDv14G8j+YxaFkQ/QcNpHq5AthbG7hzdCmtR+3l8y/7U6dYIF2/OEeDyrn45aE1HXq2I4fDK04c+5kHD+4R6e1PyxpFcbS1xhjzlMm9O3E8Ywu+qJONy+cukM3Nmts2vlTJFsn1YAh5Fk6VFp+gCTzBtp/u07plLfavX8urrL5EXDyM1vdj2tby5dj33/HIsxpNi1mxfM0hfHw9uXD4PEUaBFC3eEZ+2rufGI0Vt249xjNnUepX8UOrsUYfFczBLevQFapDGa+XrP1mA1k+KsW9i2fJWqUxDrePcupWNO16dsc96gY/nLyPdfgjPPzqU7t4Jn49tp9nsTY8DryLnWcu6tcsxfWzJ7j/4CGBkZ60blmT9I6vxUXI3bPs+PkRhD0kfcl6+OqP0+7LVQR89jkf1yiLi501ETcO0qjteGoPGkT3usXo2XUwn3xcnrO/PqJ2x56UzGbPmZMnePDgPoHRGWjXsjpeDrZg1HF693r2PvUmR+wlAmOz0DugBbqHv3LueiB3rgdStPrHOD36ieWHQmnfpiI7d12kecuqnPxmMMuDSjCqV3NKFszyu6B6dvZHLr6wI/LFc8rUaIIm7CYnrzwgJPAmGUo1oJJPOD8cvklcZAhuxRtQ3deNhV0rkaPXOmoVTsfPR0/x9Pl9nsZlolXzWqSzfzuvlRIIZn5RqNMVAQskoASCmUYzVyBU8rxFk8qf0WHhUmwvfsNKYycWV7rMJwHrGPT1GJ7smMHiW8XYMMSd/mOvsWjpKLYMbcEvxScwvMwJuo25z/SpA03xfnlLjAy5Ros+S5g9YxjZbX+kWY/TDB/TkfWDepCp9yqqPJnMQWqS1/E5M787xdhvZlI8gxYMsWyc+in7MvdjQl17hrdtR6VBU8nsrOXB/nX4VG7GnrkTcO01ly4ZT9Gpy0a+XjufNYNacNX3UwZWCmH45DPMWTCGY1Nas9WlOwt7+9Pzk1YU7TOKisGrmHKhENP6FqDfpAtM/PJjlravjluvjfSsV9T0VmuMjzWd+2OBgXxZyYkOxT+mzqLtFNAdpP+qF8wZ0Zxf5/UhpslM/HQ/c87pI7yOz2BpUEXWjf+Iz/t+R7/hn7F/TDuuFxnMiEoPWXDASMn8ziyb+R2NRi2ifomMJouf3f5/7d15XI7Z/8fxV/uufZF1xm5QZK1USrSjFCJhQpGtLENjGduEQmWPbJXslCSy71u2sY9ddkX7fv8eMd/fbL5jhvhOOtc/88dc97nOeX6O+37f1zn3VRTn1duicWg267I7EzW+Lb5+wUyeHUxdQ01kpKAo8wnevUbTJzyUzl/J0tdjOAMnTuJl3GhOfBXAd+0esvKoDC3ryLMidBWes6KwN9J7c4fkePQUhiYos/IHR9ZOn0yPOSs4vHopDUzaknd2HYdlOjCxb2tm+g+nqFknrO1dsGtmyOXE6YTfsWTeoHbIFuRSUFKKnIKETcO8KHCZQLuaJdRs0Ia4hfNo2+NbVG4msP91I7rqnGFvngkaT3ax5J4FGyZ2YI2f9ZuAUC/zGMtvKGBfT4ptq7bgPm0e7Wpq/RI+/t4/ABEQ/p6TOEsIfEkCIiB8ZDU/NiB0qv2U3uajGLsjCdlzEQw72Zad/V7R228HC7csQu3aesyHHGRrtBWTfrjE4pXT2TmlF2eazCDY9iwDJj1gYVggar/sMSjJf4C771KWLpyMbuE2vCc8YMF8PzYNd+SJXQQ14nvxzHY+dsb6lOTnU7WBMToqb79NJob5k1zjO0K7VuEHb0+8QuJooCfHuaT13CqtxvXEZZR4hjPB5AYD3KMIWb+C+MlePO4cyoQO6QwesJAZi+dzfUk/1kj3Y1mADYG9BuA4LwLLlzF8u7SAkCBzhn8Xz4RJvdk93o8GY9fi3MLw/6twbUk/Ygz8mOioh1/jTnjEp2IsOYHz7OskLx7MtQV9ONxkPD2qZ7LncgY6j5JZctOIzWF2TBgaSu9xAVyNnEy2dRBu6bOYlWZNf/vmSJfmo2nQgGq6Km+u9eDCAXZfe43W/USiHrZmQ6gLvj7TmBkWSjX1t3/bobQgkwEeI+m/LBxL/UL69ptMcPgcXm8YQsSrrozS3U7k6070sWmKdEk+2tUaUlVb+c1rL20LYejhOuwKdiQy0Ismo2cRM2UOvX0HU1VFGol8FRrUqca1TT8yPOoyc1euwMhAmSu7pzP3VkcWDKhF3OxwLqbnUatFZzro3mPpxhPIGhoRMMqVmQEzGDsvnDpaChTk5lLw6CSJZ14jl/cTCy42JiHYgeghNm8CguL5pcTmmTHMshbSpaXo1KmHgcrbJam/e4iA8HelxHlC4MsREAHhI2v5YQHhGWOc3u5BsKv1DE/zkYxL3IXs+QX4H2tF0oBMegzcyKJtUcikrmTgFkViJ2ji57eL+aunEh3Qg5/bhBDe7Qb9xt0kZKoP2oa6yEtJUVLwCNcB85gfOppq0gfwmfSQhWFD2DzckUedF2Jzdzxzbrcj0MeBnGtXqGvnSm2Nt2vdSRH+bNEYycwuaswbOoC+c9bToMptfBwDGRIVw4l5w0izm8T4ds8Z2nsVczZEkTC5D486zyWoQwaD+y9gxuJ5XF/an9VS/YgMtCGgZ38c5i+gQ3oMA5bkEzGjN5HhK/naqDlqenWxNKmNQtnX9V+O3+9vdIYAACAASURBVAYE38a29Nh+DmOO4zT7OrsX+3J9QR8ONRmH7sEwXrjOxPLKfIL2V2Xl4oHsW7EQuVot0dU1pF2rhkjOh+P6401GjR6ITs4N5Ot0wugrjTe/SlgxxpvXHj9iemE2P5z8mhXhPRk3cBKTZk+mpm5VFOSkkBRm09/NF9f5c+hcUwYfn2nMiphD5oahhGW4MLndTbzCHxAYMADtrKso1benSS31NyO5uHU2Qw/XJXmWE8sDvWg8JoKtI7zQtB9Gr3ZVeZwuoW1zQ+J3XkDu+X5W3jdm9Q89eHFkFjMutSfEuxnaGqpIScr2guSwZ2sqray+JmbaaNT7zeRS8BCkOgXS10SVu48LyUkYx+POi7CUPcCwXfps/MGRrWOc+cp/PTUeb8Rz3s/MnjYIjcIXaDdpQ/G966jVa0Z1tbL9Cu8/REB4v5E4Qwh8aQIiIHxkRT8kIDy+eZjw4EhqOA7Atm4x4SHrcA6YgOyVbay+qs9Md0X6f7uC3uOHIp+XTX1LB1pULWZtSAgPlRqgV3iXVwYWDHGtxaIfo6hp40VXi/rIS5fdpi/7EJ6GmrEdrdWuEpmcyYDBrhyPnE1mkz4M7aTHkvCl3MtToa19T7paNkLplw/oW8c3Mj/hIT1cmpMSu56mPQNwaqnJltBgbqs0o5rsI36WMcKzRT7LVh2nb4A/p6Lnkl6vOz2+yWbxykO4DRnCk8QwTtCWCb2aMC94MQ26D6Rx1j5WHi1h4ABrFvwYhqyyKjJSMtRs7YyfuxVKclKU5GWwa9k0zqp1wruDNhETQmgz9AfqF5wlNOEJo/1cuL4tglvVu9JB5TqxqTl0bKzE3vMFjPzOnZVBQbyU1URWWga9Bu3w97JhR2QYR+/k0KiNPb26WqGt/PZuyZnti4hOzaNjIwX2XSph5Hc+pCwOpvCrjvTp0h5VeemyXZBsCJ/BXU0TPFqqEBaZQtcBPuQfXcrBvOYEDrRm57JwTt4voFE7B3p1aY9W2R4ECjm0LoJVP6kzvl9bEqOWoWk/hOaSS6zeeAB5/fp08+hC6eUknlS1xVT7EaOnrMZl6Dja6z9hzvKjdOnrjVljw7fLAJJMNoeEU1TPBKWCVxjZdqX0VgpLY/ehVK0RXbq7onZlLStOFmHUpDoHTz/Gx7sjh6LC0LIdjntbHbYsi+BEWinfmNnRp6slySsWoefYH/Oaan9rqUEEhI98oxAvFwIVUEAEhI8s2ocEhPddsuReAt0GxrN4yxKqqf6zzWTva/t/+/8lPDi0jL2vGmHW2IDCnCwOpD7Eq6cTVT7ip55lY8q+FEvUaWXsLb+hKDeHc+fOY+fWB22Vt5sSxfFxAiIgfJyfeLUQqIgCIiB8ZNU+RUBIOxnLuLBjBM4Kxri66kf9Hv4jh1fOL5fw+FQcoRvOoalXFV1dPUzMbWhe1+CjH+SUc30nMyP3oqBdFT1dPRqbmGFmXOfNZkNxfLyACAgfbyhaEAIVTUAEhI+sWNkbZ7169ejXrx+tW7f+yNbevvzVs0ekZxegplsNXbW3G+a+nENC5ounpGcXoqZTFW3Vj3/K339scl495/mrHJQ19dBVV/5ba+tfjuunHUlOTg4jR47k5s2b4m8xfFpq0boQ+NcIiIDwkaXIysrCycmJsr92J47PI1BSUsL169epX78+srJiCeHzqIOioiJJSUloamp+rkuK6wgBIfA/FBAB4SPxS0tLefbsGWX/FcfnESgLZdbW1iQmJqKnV/bcAXF8DgEpKSn09fWRln7HH+D4HB0Q1xACQuCzCoiA8Fm5xcXKQ6Dsbk3Tpk05deoUBgZvH3wkDiEgBISAEChfAREQytdTtPYZBERA+AzI4hJCQAhUegERECr9FKh4ACIgVLyaiR4LASFQ8QREQKh4Nav0PRYBodJPAQEgBITAZxAQAeEzIItLlK+ACAjl6ylaEwJCQAi8S0AEBDEvKpyACAgVrmSiw0JACFRAAREQKmDRKnuXRUCo7DNAjF8ICIHPISACwudQFtcoVwEREMqVUzQmBISAEHingAgIYmJUOAERECpcyUSHhYAQqIACIiBUwKJV9i6LgFDZZ4AYvxAQAp9DQASEz6EsrlGuAiIglCunaEwICAEhIJYYxBz4MgREQPgy6ihGIQSEwL9bQNxB+HfXR/TuHQIiIIhpIQSEgBD49AIiIHx6Y3GFchYQAaGcQUVzQkAICIF3CIiAIKZFhRMQAaHClUx0WAgIgQooIAJCBSxaZe+yCAiVfQaI8QsBIfA5BERA+BzK4hrlKiACQrlyisaEgBAQAu8UEAFBTIwKJyACQoUrmeiwEBACFVBABIQKWLTK3mURECr7DBDjFwJC4HMIVKiAcOTIEWbOnIm0tPTnsBHX+JcKZGdn4+/vT2pqKgYGBv/SXopuCQEhIAQqtkCFCQhlwWDdunUoKipWbHHR+48WkEgkb0Lizp070dHR+ej2RANCQAgIASHwZ4EKExCePn1Kenq6qKEQeCNQFhDq1KmDrKysEBECQkAICIFPIFBhAsInGLtoUggIASEgBISAEPgvAiIgiKkhBISAEBACQkAI/ElABAQxKYSAEBACQkAICAEREMQcEAJCQAgIASEgBN4vIO4gvN9InCEEhIAQEAJCoNIJiIBQ6UouBiwEhIAQEAJC4P0CIiC830icIQSEgBAQAkKg0gmIgFDpSi4GLASEgBAQAkLg/QIiILzfSJwhBISAEBACQqDSCYiAUOlKLgYsBISAEBACQuD9AiIgvN9InCEEhIAQEAJCoNIJiIBQ6UouBiwEhIAQEAJC4P0CIiC830icIQSEgBAQAkKg0gmIgFDpSi4GLASEgBAQAkLg/QIiILzfSJwhBISAEBACQqDSCYiAUOlKLgYsBISAEBACQuD9AiIgvN9InCEEhIAQEAJCoNIJiIBQ6UouBiwEhIAQEAJC4P0CIiC830icIQSEgBAQAkKg0gmIgFDpSi4GLASEgBAQAkLg/QIiILzfSJwhBISAEBACQqDSCYiAUOlKLgYsBISAEBACQuD9AiIgvN9InCEEhIAQEAJCoNIJiIBQ6UouBiwEhIAQEAJC4P0CIiC830icIQSEgBAQAkKg0gmIgFDpSv6pBiyhtESCtIx0uV6gpLgEaRkZpKT+QbOlBbx4mY2WtjbSH9EdSWk+aQ+eIKemi64apOeUoqWuhvQ/6cs/6HbZqcX5maQXyKNTRfGTXuevulWY+YxH6QVoVzVETUHm3adKikh/9hJVbX3kZT8hyD/0+/Snl5L94jHSagYo/zebcupESWEOjzJKqaanivQ/+gfwmw5IinienouWZhVkPuXELacxi2b+XQIiIPy76vEv7I2EVw+usi8pkVM/P0Miq07Db75GrrSIrJdPSMvXYYi/O5dj5hKbWsDQ6ZMw0VXigz8yJBJeP7/PqaOHufY4j7rGZnRs0wg5mbct5mZcITJyB1LKKshK5fHwfjoahoaoysGrF/m07t6ZB1sjOfiiBuHBo6mi8GE9yX50mfU7zyGbd5s9R6+jrpiLSusBTPV1RvEjQsdfFTjtyhGWRywku/14pnk0Q1H2c08HCXdSUzh66zWPUvdztaAWUyeNoIaGwu86Iil4ytaoxWw4/JzpEfOoqy3/uTv6v7meJIdjW6OJWJ2A3+xoLBpofKJ+SEi/e5E1yyLYI3Fh/RRHVD8gjGQ/v8WWyPnszW3B/CBvNJU+0cT9RAqi2f+9gAgI//saVIAeSLiytD9tR6ylVN2ekze20FhVwp1zKYyeuY0pi6eQFNiLeQdzCd2zh14NND/w26+E13dP8v3IUVxRtmLu3Ik001f+3d2Dl/fiCd+YgZtLe1SK9+NoPhufjRtx+0qe/WtWkG0/nEYpAYw7ZsDezeFoKn5YQNg+eyBbdcawrI8um0JnsGPLanJtZxM7vT/Kn+h9tqjwFXN7mnKi/XJih5mi9KEBoTSbn+9m8NXXNfgv3//fPecK7zPGexgewatpUHqF4Ih4vMdOpIGByttw9uAyD+Tr0EBXmtR10+kZfIwtKYk00f99gKgAE/rDuigp4M6BOKx7jycs8SIuzXU+rJ2/eNW9Oz+jY1gbealSNk5yYexdDy6v6ov6B6TFwvxMTs7xwP9ye1JWfIeuyj+aDeU+NtFgxRMQAaHi1ex/0GMJd6P9MB64nOIqdm8CQt3SLO7Kq/BwXwp1O9igkf2UtNel1K5TG2XZsk/QUnIzX5FXLEMVjSrI/Y3bm7lPzhPo5cnOPFM2rQulVQ31P401L/MaGfnVMdRTpSRzO0ZfTyDg4GH6f6NF4eObXCw2RGHnCAbsUGbPxrAPDAjFTHEz5YXXZua51ECqOJPYgW3YXn0sa6d9uoAAJazwaUtik3Bi/Nt9UECQFOdzbst0tj1vQ9AQZ/7JDZSSO1uwcF/A0u3baVJNhYK8AuQUld6EvdL8lyweMxKZXqEMNtXj3s5Q7CfsYmPyjsoTEMpC0tWdNO/sy5ztqeUcECRkP77I5NnrGT5xErW0FNkxqydDznXi0gcGBJCQtsobl+SG7Fo+TgSE/8E7Z0W/pAgIFb2Cn6X/Eu5FD8FoYOTbgHB9A5xK4kw9C9z0lCnOvMvqyBjuvFKiZ1AgrdSKOLh5FRuOv8Sorgo3bj9GTk0bU1s3nC0a/9dvtckRQ3AbswrXGdFM7dEWZZUqaGuo8svqwp9G+seA8PZegYTLkYPw3irD6mmeHNp/hALtpvT3dEBdQYb8V484cewkd9OekF6ghKNrN+obqv//kkhJfia7k+KJmDyeYpsAelmY0N2hJfF+LdlSdczbgEAhP184yYVbz8h5nY68fiPsO7aj6PE51kVv5nkVY3w8LLl1fBu7jj2guaMHbhbNuLovll03Zejn1Q35rHucOHOZ16+ekyHRpaubE/qq0qz0aUd8/RkENnvNsdNXqG3hTlfzhihIFXJqbxI3nueS++Ipusa2OJk1IvPhJRIST1HfpiUX4pMoVNcgad4P5DTxYFAPF5ycOqL5mzWRorx0zhw9xqOMbF5lZFPLxAozozrIZlxi88pFjFt4iMEBI2htZo2VST3ebC8oyebYpiX4jArBuF8Qbo5OGGVswTkokUWLpnMv9ShpJQb09XanhqYiJXkZnDl+lJv3HvEsSwoLhy60qKP3m7tKJdy/dJzkI5do06opxw8eIK1AHVdPTxrpQuq+HVwtMuRrqQccvKWEj29XFJ5f5/j5O2RnvyJLok1nRxuqV5Hi5ul9HLxViHk9FZJTjlKo2YBenm7U/KUfZ48e5eEvY63ZwhJz4zooyZTy07H9/Pw8D0lRNtK6jbG3NEKS9ZhTx09z52EaGUXq2Dg58k11DYqynnD8wGEeZRdSmHaJ70OiWZh0/ncBoaQwm4tHdnH6oQzWJtU4tHc/6fK16e1hw+0TeziSeosapt3oZtEIRelibl04yfmrd0h78ozaLTtj2VSbbXOGErTpCQEBg+no4MT9uGEMOWPJRt9qnDh1AcUGtvR2bImavDQ5z29z/OQlXuVkk5ErS6sOHWlaSwcZqVLS71/mwLHL5JUUk3tmFQsedSAlStxB+CxvlV/YRURA+MIK+mmG82tAKFBsSfCc3hxcEY35im0Mb1wVmcKnBNpasOB4MYuvn8bi8hI69w3m6zHJbPLKw62NK3dNRpK0IpD6Zbv93nkUEOjwDWH7X+A/Loi8n5K4VFCP4NBptK+v9849DX8VENyX32dgf29qKd8jeOZGgrYn4VxHgU2zpiBnM5wOX5cyt78jJ+sHsjn421/XeCUSCgqyGOfSjsJB2wh2qIWakoTYb5v/EhD6kXdhHaMXXWTCj0HoZP/EmEGjUPEMZ2avJuyd1YtxP3Xg4MohKGScwcFqEJ5rdjHEtDrn14Wyu4oDozpUYdaEYIz6j8emVgb+9t1RGJVIuFstoge3IUpixwCb5kg/SGLaJgnbdy+gUeE+rHpvYsGaEDRTQ3CZ/4KE9SE8ObOKwQMXYOI9AN2s28g1caJk/Vjum08mYqwbaooKv/lgLuVg1CSiXrRilq8NWanr8QyMYeSCVXi2qUp26mrMB6xlxdZNNK2piYLcf9Y4JORmpNHd0hqLkN2MsKrB05QwbEesps/QUTQ1yCV8UjDOofGMcKjPgXmjudPwWzzMqrF2TA+iM03ZuWoaWsq/tFeaQXxoEP4LU+jm3pvqmsWkxK3kZdNhLA+yYvt3XmzOMaanrRGXr+YzYpQNkRPn4x68gLZ6BSwa6sHZr4cwf6QVe4J9mXZUQi+7DqjLprNh7QaquIWxeZozP62bSuTj5gT7dSLnwib6BKxhaFgUPVsUMnTCNoKChqCVfZKlu18zuK8tm4KnIt+hHy7GWswa1J2jik5sXTaWlHkj2SNjzbRBnbiyeToeo6NYvvfy7wJC7ssbLBvrw7JrGgzt15MaVTKYPzWcRn0G0KLGV5Tc38/0NU/ZcHAt9V6mEJGSy4A+9hSmLsZt1B4mxsTRKXMlZuPOsWHDYuoaqLM71JNvd+oytb85ypmXmDhnDwv2JGNXq5Tgob4odvkOP9sGJM0dxpxjiqxdE0r14pt87z+J1qPmYFdflgU+DsTK9ebAqvHiDsKneXP8olsVAeGLLm95De7XgFCobMry1aM4F7eOmkHh+DUyQLbkJRM6tSfkcAGLr5/EIHooPaYn0n3NRZZ1zcO7iTmbC+04e3ElTdUV392p0rt0a2JM0uMqJBw5j/aNZXToGYTJ4EUkhAxERf7PC/9/FRB6b5Qiedti9BVfMNzCCp3gREbqXMG5Vxg9xwzGQEmGFz/t53hOY8ImfYuastxv+lXIGHsTCvx2EupUAzmpAmJ+CQhrJrmypH9nztcPIGqKB3JI2B85FNfpj9l3JpZqz1Lo6DqbGVu3YWvwEm9HO/LMp7BxlidrFkVh1duLKqeC8Y4uZV3kD2gqSrh++hCv9VrSsqYyqwa2ZUPNGWz8zhbJi2NYmY7lh8NJOKrfY3XCXUxbfM2zn6LpN/0ySfvjqF/lNq7NPbFatYvBTTSRkMvcrubcbD+NJeO7/26JQZJ5Dk87X1yWbsGjaTWkCl4yvlsHLn01iE3h/shdWUMrr5VE74ynieHvg1xR7gtcTc3pEH6AURYG3E+aS6cx8cTu2olJtULmOLfilstCZjvp0cXSh07fjaahlgKZt09x6KEqc6YGoqX2a+2zjkfScsAyFm9LpkN9dW7umY1t302E7N9NjfXdCLjrwPaFgShLlXIkKoAR8doc2D4JAyVZsq4spo1TDNN2xWN5aQoWC7PYtmEJ9bSliZ87mL6z77Ln8AzC+4/AbsFmejWvgVRBOt+723DWsB/r59jQ32kINTt74dXNFi1VBTRlntDNcwYePu5UVZEj7fIJrmRpMXm4GX17zGZMzFpsammQfSkeE4ehhMSf+8MSg4TLywbQd7syCevDMVQt5kf31pwwW0rM0DYU3j+OtdVAJiTtQSqqDwequGBtVAtpySsO7DyMUd+p9FbcQKvAs2zfvoKvtBRJnN2TgYfbciFuKKqvrmJt0RmvZWfx0N+HVd9EVu2KpKWeKgWP9+HSwReL8Hha3YlkzDYldm2eTFVlWW4v60n3/UYkiyWG8nozrFTtiIBQqcr9oYP9wxLDjS1o3U3lsHY9XKtr/yEgnKbzo614eE9E2mMFMb2L6Ofsj1y3GcTN9ERLQQaJhD//bLHkDq5Nm5P4qAo7jp6nedFRmlm4kt9sMD/vmodW2c8U/nD85RJDvNLbPQgKmYy1aYPs9wn4Se/Hbng8cXs30VT37YdVcXExsrJ/3A34FwFhXCcGdTJDYjeH1VPcKevV9f2LMHUJJ+78GWwMcxjdxZp8+zn41rlE6rUHhG9LY13MKA6eLKSvuw3XFvRk0KFa7IwORufNzvJScnOLUFaWJcqnHTuahL3Zg1D84hzWbQczft8eulUrZWt0DA+LVWlg+IhR359gy744Gqrfwa11f7pv3oXHV1rIlGYw09H0nQGh+MYGmnf+gYnxe3BrYogM+awd5sDCp23YFTMTletr/1FAsB+fxIayPQh6xSx0b87ZDvOZaa1E+w4jCDt0CIf6b3f5l5aUICUtjdRvfqqXfWI5rQatJGbHblrUVCH72TlsWrvTf/1RWiT3IOiFB5vm+KGuIEVkQGdmXGrLyfiJ6CvJUlpwEavG3em65hDeT3/EeoWE3XHz0FeT4XrKEiw8womOG8sY39mM3bybHsbVkaGA2FHOhN03ZlfsdC7FL2beojVcy6pCv8ApeJpk4eAZw6qdkZjoq/7S72KKzs2lUb/DbNobS3N9NfKv7sT4nXsQJFxb4UO/HeokxISiq1zCvD7tOG2zmiivxhQ8PIO1VR8Ct2zn9vfdoH8U47q3Ra5sCUdSQlGJNJybh0nAbwNCL/xSbd/sQVB6dR1rCxvcI07RJX8+rb9LY9fBKFroqUBpGsPbW5LlE4dxahCLHtpyPG7km39rj9Z445wk9iB86DtfZX+dCAiVfQb8rfH/OSA0lC8hXUYOHXlZpH53B+EM/WrKk7R0JrEXSzCqrY6iXkO6u9pjqKFITtpF9py8R8O2ljQyrPKbqxcx0a0FwcnPiN5zEjv16zQ1dUHeejxnYiaiofTnHdjFmdsw/iqIgENvNyn+bg/COwLCOIMrWDmMoNuMaAI8TFGRLiRl71naW7ZBUeG3IaGQ0W/uICQy16nm/99B2Fy2B2FSNyL6dGS7jCNJa6agIS/FT7tCcAi6Q8q+udRXl+V67Ej6Lb9NK2MnJky0Zbq7BxmGdeg9ZiEOTfV4kTyR1v4pTFsbh0frmuQ/+YlVh4vxdWvCWl+zdwSE3bQ+P4W+23VZEzYGg8w4TLpsJm5PDA3V79G9ze8Dwo9Oplw3+4El412RRwbpXzaISl6fxd3MHc2xG4jobYKiVB7LBtpzoOogVk7tjfTlNbT0iiJmZ8J/uYNghuX8g4ww1SYtJQKHCX8OCPO6VsXZzJaGvkuYHeCKhlwpp48fp5FRG1RVfv05ZFlAaOkTRUxiMia11Mh8eADbrvOZvX01Siu6MOG5B5tD3gaEpDBffCLukHBoMy0MVSnJOYaN9Wwmb16D0emJWC4rZs+GMAzUZLmYEILTxKvs3u7DJOc+qI2KZUHf1ihJ57PCz4ndGt5ETTEn7ZEiuioFpETPYOLmHNYuHcpI1960Gb2Cmd/aoCCVx7mjR6il+wzrzj/ivSaB4ZZfU3RtJ8adBjNr21m6muj9Zv7+zYCwbS/SkW7MeWJJVNgEjKqr8/zqIS4WN8E8fxWtAs6wfdsKqmsokBzamyHvCAieVfdh3jmEsduS+bZNNSSFP+Nn24sWszaimjyecRsK2LFvLUb6yqSt7ovjzgbsWVG2xFDCy4xcNDTVkfnQ5yr8rfcLcdKXIiACwpdSyU84jsLcV5xa5It90EZKVM3YeWIjpl/rIf/L7sHi7HsM72RD5Kl8ph4+xBDNn+jpE0KPiT9ipK+CjKw8ymqaVK+mw4FpDrjPOobbtE0sH2PPbz+Wz20LpfewECzGLmNgvad0+3Yq386JY0JPU+T+sMJQlJ/N4yvLsLKaT/91SYywaYCaoiyS4hxSZvVjVIoSW2MWoq/wiDGOdjA0mtld67F9+hCCkx7Som1ramoqULV1NwZ3aYfCfx72U1pCxos7jHC2JssjhkUDTNCSzySitzm7DAazKtgfmWub8J0Ui9WgCTga63B4wzJeNfdlWKf6b0wkWRfxdB6C2fT1+Jkasn+pP/67a7MveiSGKnJIcm8zztubhPvKWJuWPe9AAbvBYzHVyyOsvxV7G84kJtCGgrQjONuNZuimRDrenkWX8DQG+fVBt+Q8U39MYeDk73Buo8pQp5FYLNnICLOGqMkXsNbPnsjnTfD3csba1hYdlf8oF7E/Moix658RNGkEjTSzWTBvPU6Bk+jUQI27u8KwHrmBiLj1WH5Ttvfi1w/0kvxXDHIw41XzwfR0sMTwXhxesw+wYnM8rarlEtLDkgttp7IkwIXzkaMZuzqVuiZtqaevgkZdc4Z5O/9umagsIDTrGUJg2ErsmmpxOXExh6VtGe/VloNBdkx/Zkfc/LHUqapG1p2jBPiNRqPzSAY4GvP8WBR7ss0YP9iRoh0BGE++RtiSuRjpS7Fj5QJemwxhjEt9TqyaxNjYx4ybNJJvtHJZFLYOuxETsal1jaDgM3j07YZeaSqT519i6sxh7A0dxtzEmxi1M6Oauiz639jh59mS+X692HRbi4E+7mi+PE3gjDX4/LCcYf07oi3/1rakOIeDs/syYp8661fOo4ZaLrP6duRsu3BW+7Um++dDuLj4MmjVPnronsNr4FTy9ZvQuslXSMnr0sffl29yE7BwjaCbvz/mbVtwZdUIvrtkwem1fig9u4CToxsOM5IZ16U64QEDOC1jxvfD3Sm5u4/luzKYOC0AqZ8TGeg7EdU2Pehu04wXu0MJuViLBaGTMFU4jt/cC4ybO5VmOiof/qyST/heI5r+dwmIgPDvqse/sDcS0m+fZ8f2BC7cz0Aio0Ab6y7YdGiNzi/f6rMenmfJ8vU8el1E7bYudNE+i3X38dzNLHwzHmlZeQzqt2POsiha5SYyeflJOvlOoq9Vvd+/SUnyOBO/hrWH0zDUlkXa0JxBvaxQf8f+g4xHV9mXsIXj11+iU7cNLq6ONDRQpSjzNusio7mSLo15Zzdqyt5kR/xhSqo3x8ujCzXVi0hev5qjV59RrZktvV3bo/Gbh9BIivI4tX8LiSmpFGrUo7NDZ75Rf8naqI28VKiKXbcemDeuStpPB1i//RAyato0aG1Dp7YN3+74f3NIOH3kEA1amlNFUebNg6aOZunTuZHW/5+T/eQa66PX83OmAtbdPLFpXpNHlw8RF7eDF0p1cHduT8atY+w9co3apl3oZ1+XdUtW8JBq9Olrw4G166nSphuGr46RsO8i8jVNt5eXnQAAA1tJREFU6NvDma/0VMm+tZ/F645Tr7MXTi2rI/ubb4uS4lxOJW9i/8XHVNHSx8yhK02rayDJvc/W6PWcuPGc2i1M6WhpQYPq/7kr8/Y2eOquGBIvZOExwJHL27Zw/NZLjK1cMTF4RfymZLI069Ld3QOjWioc2baWXSduoFHXlD697DFQ+f0SUVlAMPEOp++3g9BUAXndxri7WFL6/BKxK+O4U6CGlYMbnUwbIC8lRe7Ty8TE7iBDokzVeq1w6dT6zd2FjK0jMZ93n8FuHZGVLkG/sQUuHYzfBMqysZ7ZvYW9F9NQ09THzL4LzWpoIim4yZolW8iQ0URLWR5jG2eMamsjVfyaPRtjSDl3j1om9nh2a4+GvAwF6bfZFBvHT08lmJu24OqNB1g6dn3zy4z//MIm7/UdNket5eJLGcxtu1BH5TE7t+/hpWp9enU15+Xlo+w+doXqrRzx6daeZ2XzJ+EAGdK6uHt5YVx2fUkO8VFLuFJQk24WtdifGM+NjCp06e2EwoNLJBw4hU4ja/r06oRWyQt2bNzMpWfFGNSoj71TR6qplQU6CU8v72f1xhSKNBvSpZmE40/0cHCwQS/7DIu23sLNu8ebcz/sCSH/wrco0aVPJiACwiejrawNS3hxMQH/wFDkajVEVU6KwtwMjicn0WrEGiLHOVOYk4+SqvK7b3NKJOTnZlEokUVN5fcPSaqsol/iuP+4B+HDxih5ExCslv+6B+HD2hGvEgJC4F0CIiCIeVHOAqWcjhrDmK3ZzAubTDVVWYqyHjJ3wo8YD/mRPpZ1xTeXchavcM2VFnE3eQGdR8exKHYrlk2rIvs3HqT1x3GWFOVxY7U/brEStqydSz1Djf/6zIwKZyQ6LAT+BQIiIPwLivCldaG08BVnDuwj9eZjkJVDQUWLFuaWfFNT54M+CL40n0o/noJH7NiwnTO3nlOzsTnOzpbovmMT6vucsp9dI35jPNdfltKkbUfsrVug+uYpnuIQAkKgPAREQCgPRdGGEBACQkAICIEvTEAEhC+soGI4QkAICAEhIATKQ0AEhPJQFG0IASEgBISAEPjCBERA+MIKKoYjBISAEBACQqA8BERAKA9F0YYQEAJCQAgIgS9MQASEL6ygYjhCQAgIASEgBMpD4P8AUHrvx9dXHygAAAAASUVORK5CYII=;" parent="1" vertex="1">
          <mxGeometry x="203" y="1400" width="320.61" height="320" as="geometry" />
        </mxCell>
        <mxCell id="ZVaFyEX7qNk-OxdJ1QOL-4" value="" style="endArrow=classic;html=1;exitX=0.496;exitY=1.008;exitDx=0;exitDy=0;exitPerimeter=0;entryX=0.5;entryY=0;entryDx=0;entryDy=0;" parent="1" source="ZVaFyEX7qNk-OxdJ1QOL-1" target="ZVaFyEX7qNk-OxdJ1QOL-5" edge="1">
          <mxGeometry width="50" height="50" relative="1" as="geometry">
            <mxPoint x="350.15000000000003" y="73.16" as="sourcePoint" />
            <mxPoint x="349.84" y="109" as="targetPoint" />
          </mxGeometry>
        </mxCell>
        <mxCell id="ZVaFyEX7qNk-OxdJ1QOL-11" style="edgeStyle=orthogonalEdgeStyle;rounded=0;orthogonalLoop=1;jettySize=auto;html=1;entryX=0.5;entryY=0;entryDx=0;entryDy=0;" parent="1" source="ZVaFyEX7qNk-OxdJ1QOL-5" target="ZVaFyEX7qNk-OxdJ1QOL-6" edge="1">
          <mxGeometry relative="1" as="geometry" />
        </mxCell>
        <mxCell id="ZVaFyEX7qNk-OxdJ1QOL-5" value="set parameters and&lt;br style=&quot;font-size: 10px;&quot;&gt;initialize the training model." style="rounded=1;whiteSpace=wrap;html=1;fontSize=10;" parent="1" vertex="1">
          <mxGeometry x="245" y="95" width="180" height="35" as="geometry" />
        </mxCell>
        <mxCell id="ZVaFyEX7qNk-OxdJ1QOL-10" style="edgeStyle=orthogonalEdgeStyle;rounded=0;orthogonalLoop=1;jettySize=auto;html=1;entryX=0.5;entryY=0;entryDx=0;entryDy=0;" parent="1" target="ZVaFyEX7qNk-OxdJ1QOL-9" edge="1">
          <mxGeometry relative="1" as="geometry">
            <mxPoint x="335" y="189" as="sourcePoint" />
            <Array as="points">
              <mxPoint x="335" y="212" />
              <mxPoint x="335" y="212" />
            </Array>
          </mxGeometry>
        </mxCell>
        <mxCell id="ZVaFyEX7qNk-OxdJ1QOL-6" value="&lt;font style=&quot;font-size: 10px&quot;&gt;Calculate the resolution of each stage.&lt;/font&gt;" style="rounded=1;whiteSpace=wrap;html=1;fontSize=10;" parent="1" vertex="1">
          <mxGeometry x="245" y="155" width="180" height="35" as="geometry" />
        </mxCell>
        <mxCell id="ZVaFyEX7qNk-OxdJ1QOL-13" style="edgeStyle=orthogonalEdgeStyle;rounded=0;orthogonalLoop=1;jettySize=auto;html=1;entryX=0.5;entryY=0;entryDx=0;entryDy=0;" parent="1" source="ZVaFyEX7qNk-OxdJ1QOL-9" target="ZVaFyEX7qNk-OxdJ1QOL-12" edge="1">
          <mxGeometry relative="1" as="geometry" />
        </mxCell>
        <mxCell id="ZVaFyEX7qNk-OxdJ1QOL-42" style="edgeStyle=orthogonalEdgeStyle;rounded=0;orthogonalLoop=1;jettySize=auto;html=1;entryX=0;entryY=0.5;entryDx=0;entryDy=0;fontSize=10;" parent="1" source="ZVaFyEX7qNk-OxdJ1QOL-9" target="ZVaFyEX7qNk-OxdJ1QOL-41" edge="1">
          <mxGeometry relative="1" as="geometry" />
        </mxCell>
        <mxCell id="ZVaFyEX7qNk-OxdJ1QOL-9" value="&lt;div style=&quot;font-size: 10px;&quot;&gt;&lt;br style=&quot;font-size: 10px;&quot;&gt;&lt;/div&gt;&lt;div style=&quot;font-size: 10px;&quot;&gt;Is the training&lt;/div&gt;&lt;div style=&quot;font-size: 10px;&quot;&gt;image&amp;nbsp;&lt;span style=&quot;font-size: 10px;&quot;&gt;at the&amp;nbsp;&lt;/span&gt;&lt;span style=&quot;font-size: 10px;&quot;&gt;final&lt;/span&gt;&lt;/div&gt;&lt;div style=&quot;font-size: 10px;&quot;&gt;&lt;span style=&quot;font-size: 10px;&quot;&gt;stage?&lt;/span&gt;&lt;/div&gt;&lt;div style=&quot;font-size: 10px;&quot;&gt;&lt;br style=&quot;font-size: 10px;&quot;&gt;&lt;/div&gt;" style="rhombus;whiteSpace=wrap;html=1;fontSize=10;" parent="1" vertex="1">
          <mxGeometry x="245" y="214" width="180" height="61" as="geometry" />
        </mxCell>
        <mxCell id="ZVaFyEX7qNk-OxdJ1QOL-15" value="" style="edgeStyle=orthogonalEdgeStyle;rounded=0;orthogonalLoop=1;jettySize=auto;html=1;" parent="1" source="ZVaFyEX7qNk-OxdJ1QOL-12" target="ZVaFyEX7qNk-OxdJ1QOL-14" edge="1">
          <mxGeometry relative="1" as="geometry" />
        </mxCell>
        <mxCell id="ZVaFyEX7qNk-OxdJ1QOL-12" value="&lt;font style=&quot;font-size: 10px&quot;&gt;Train the model at current &lt;br&gt;&lt;/font&gt;stage and update parameters." style="rounded=1;whiteSpace=wrap;html=1;" parent="1" vertex="1">
          <mxGeometry x="245" y="303" width="180" height="35" as="geometry" />
        </mxCell>
        <mxCell id="ZVaFyEX7qNk-OxdJ1QOL-21" value="" style="edgeStyle=orthogonalEdgeStyle;rounded=0;orthogonalLoop=1;jettySize=auto;html=1;fontSize=10;" parent="1" source="ZVaFyEX7qNk-OxdJ1QOL-14" target="ZVaFyEX7qNk-OxdJ1QOL-20" edge="1">
          <mxGeometry relative="1" as="geometry" />
        </mxCell>
        <mxCell id="ZVaFyEX7qNk-OxdJ1QOL-40" style="edgeStyle=orthogonalEdgeStyle;rounded=0;orthogonalLoop=1;jettySize=auto;html=1;fontSize=10;exitX=1;exitY=0.5;exitDx=0;exitDy=0;" parent="1" source="ZVaFyEX7qNk-OxdJ1QOL-14" edge="1">
          <mxGeometry relative="1" as="geometry">
            <mxPoint x="336" y="286" as="targetPoint" />
            <Array as="points">
              <mxPoint x="464" y="395" />
              <mxPoint x="464" y="286" />
            </Array>
          </mxGeometry>
        </mxCell>
        <mxCell id="ZVaFyEX7qNk-OxdJ1QOL-14" value="&lt;div style=&quot;font-size: 9px&quot;&gt;&lt;font style=&quot;font-size: 9px&quot;&gt;has the cost&amp;nbsp;&lt;/font&gt;&lt;/div&gt;&lt;div style=&quot;font-size: 9px&quot;&gt;&lt;font style=&quot;font-size: 9px&quot;&gt;function&amp;nbsp;&lt;/font&gt;&lt;/div&gt;&lt;div style=&quot;font-size: 9px&quot;&gt;&lt;font style=&quot;font-size: 9px&quot;&gt;converged?&lt;/font&gt;&lt;br style=&quot;font-size: 10px&quot;&gt;&lt;/div&gt;" style="rhombus;whiteSpace=wrap;html=1;fontSize=10;" parent="1" vertex="1">
          <mxGeometry x="245" y="365" width="180" height="61" as="geometry" />
        </mxCell>
        <mxCell id="ZVaFyEX7qNk-OxdJ1QOL-19" value="No" style="text;html=1;align=center;verticalAlign=middle;resizable=0;points=[];autosize=1;fontSize=10;" parent="1" vertex="1">
          <mxGeometry x="427.5" y="375" width="24" height="17" as="geometry" />
        </mxCell>
        <mxCell id="ZVaFyEX7qNk-OxdJ1QOL-34" style="edgeStyle=orthogonalEdgeStyle;rounded=0;orthogonalLoop=1;jettySize=auto;html=1;entryX=0;entryY=0.5;entryDx=0;entryDy=0;fontSize=10;" parent="1" source="ZVaFyEX7qNk-OxdJ1QOL-20" target="ZVaFyEX7qNk-OxdJ1QOL-33" edge="1">
          <mxGeometry relative="1" as="geometry" />
        </mxCell>
        <mxCell id="ZVaFyEX7qNk-OxdJ1QOL-20" value="&lt;div&gt;&lt;font size=&quot;1&quot;&gt;Satisfy the preset&amp;nbsp;&lt;/font&gt;&lt;/div&gt;&lt;div&gt;&lt;font size=&quot;1&quot;&gt;parallel number?&lt;/font&gt;&lt;br&gt;&lt;/div&gt;" style="rhombus;whiteSpace=wrap;html=1;fontSize=10;" parent="1" vertex="1">
          <mxGeometry x="245" y="456" width="180" height="60" as="geometry" />
        </mxCell>
        <mxCell id="ZVaFyEX7qNk-OxdJ1QOL-27" value="" style="edgeStyle=orthogonalEdgeStyle;rounded=0;orthogonalLoop=1;jettySize=auto;html=1;fontSize=10;exitX=0.5;exitY=1;exitDx=0;exitDy=0;entryX=0.494;entryY=-0.01;entryDx=0;entryDy=0;entryPerimeter=0;" parent="1" source="ZVaFyEX7qNk-OxdJ1QOL-20" target="ZVaFyEX7qNk-OxdJ1QOL-22" edge="1">
          <mxGeometry relative="1" as="geometry">
            <mxPoint x="336" y="544" as="targetPoint" />
            <Array as="points">
              <mxPoint x="335" y="516" />
            </Array>
          </mxGeometry>
        </mxCell>
        <mxCell id="ZVaFyEX7qNk-OxdJ1QOL-38" style="edgeStyle=orthogonalEdgeStyle;rounded=0;orthogonalLoop=1;jettySize=auto;html=1;fontSize=10;entryX=0;entryY=0.5;entryDx=0;entryDy=0;exitX=0;exitY=0.5;exitDx=0;exitDy=0;" parent="1" source="ZVaFyEX7qNk-OxdJ1QOL-22" target="ZVaFyEX7qNk-OxdJ1QOL-9" edge="1">
          <mxGeometry relative="1" as="geometry">
            <mxPoint x="152" y="393" as="targetPoint" />
            <Array as="points">
              <mxPoint x="246" y="556" />
              <mxPoint x="196" y="556" />
              <mxPoint x="196" y="245" />
            </Array>
          </mxGeometry>
        </mxCell>
        <mxCell id="ZVaFyEX7qNk-OxdJ1QOL-22" value="Start training in the next stage." style="rounded=1;whiteSpace=wrap;html=1;fontSize=10;" parent="1" vertex="1">
          <mxGeometry x="246" y="548" width="180" height="20" as="geometry" />
        </mxCell>
        <mxCell id="ZVaFyEX7qNk-OxdJ1QOL-29" value="No" style="text;html=1;align=center;verticalAlign=middle;resizable=0;points=[];autosize=1;fontSize=10;" parent="1" vertex="1">
          <mxGeometry x="334" y="516" width="24" height="17" as="geometry" />
        </mxCell>
        <mxCell id="ZVaFyEX7qNk-OxdJ1QOL-30" value="Yes" style="text;html=1;align=center;verticalAlign=middle;resizable=0;points=[];autosize=1;fontSize=10;" parent="1" vertex="1">
          <mxGeometry x="335" y="426" width="27" height="17" as="geometry" />
        </mxCell>
        <mxCell id="ZVaFyEX7qNk-OxdJ1QOL-33" value="End the first in parallel training." style="rounded=1;whiteSpace=wrap;html=1;fontSize=10;" parent="1" vertex="1">
          <mxGeometry x="468" y="476" width="180" height="20" as="geometry" />
        </mxCell>
        <mxCell id="ZVaFyEX7qNk-OxdJ1QOL-35" value="Yes" style="text;html=1;align=center;verticalAlign=middle;resizable=0;points=[];autosize=1;fontSize=10;" parent="1" vertex="1">
          <mxGeometry x="424" y="468" width="27" height="17" as="geometry" />
        </mxCell>
        <mxCell id="ZVaFyEX7qNk-OxdJ1QOL-41" value="Save the model and reconstruct." style="rounded=1;whiteSpace=wrap;html=1;fontSize=10;" parent="1" vertex="1">
          <mxGeometry x="492" y="234.5" width="180" height="20" as="geometry" />
        </mxCell>
        <mxCell id="ZVaFyEX7qNk-OxdJ1QOL-43" value="Yes" style="text;html=1;align=center;verticalAlign=middle;resizable=0;points=[];autosize=1;fontSize=10;" parent="1" vertex="1">
          <mxGeometry x="426" y="226" width="27" height="17" as="geometry" />
        </mxCell>
        <mxCell id="ZVaFyEX7qNk-OxdJ1QOL-44" value="No" style="text;html=1;align=center;verticalAlign=middle;resizable=0;points=[];autosize=1;fontSize=10;" parent="1" vertex="1">
          <mxGeometry x="311" y="275" width="24" height="17" as="geometry" />
        </mxCell>
        <mxCell id="2MLf7N2p2UA_cOCvT7zq-74" value="" style="shape=table;html=1;startSize=0;container=1;collapsible=0;childLayout=tableLayout;fontSize=10;labelBorderColor=none;whiteSpace=wrap;flipH=1;swimlaneFillColor=#9AC7BF;" vertex="1" parent="1">
          <mxGeometry x="137" y="752" width="225" height="225" as="geometry" />
        </mxCell>
        <mxCell id="2MLf7N2p2UA_cOCvT7zq-75" value="" style="shape=partialRectangle;html=1;whiteSpace=wrap;collapsible=0;dropTarget=0;pointerEvents=0;fillColor=none;top=0;left=0;bottom=0;right=0;points=[[0,0.5],[1,0.5]];portConstraint=eastwest;" vertex="1" parent="2MLf7N2p2UA_cOCvT7zq-74">
          <mxGeometry width="225" height="25" as="geometry" />
        </mxCell>
        <mxCell id="2MLf7N2p2UA_cOCvT7zq-114" style="shape=partialRectangle;html=1;whiteSpace=wrap;connectable=0;top=1;left=1;bottom=0;right=0;overflow=hidden;shadow=0;fillColor=none;labelBorderColor=none;labelBackgroundColor=none;strokeColor=#FF3333;strokeWidth=2;" vertex="1" parent="2MLf7N2p2UA_cOCvT7zq-75">
          <mxGeometry width="25" height="25" as="geometry" />
        </mxCell>
        <mxCell id="2MLf7N2p2UA_cOCvT7zq-111" style="shape=partialRectangle;html=1;whiteSpace=wrap;connectable=0;top=1;left=1;bottom=0;right=0;overflow=hidden;shadow=0;fillColor=none;labelBorderColor=#FF66B3;strokeWidth=2;strokeColor=#33FF33;" vertex="1" parent="2MLf7N2p2UA_cOCvT7zq-75">
          <mxGeometry x="25" width="25" height="25" as="geometry" />
        </mxCell>
        <mxCell id="2MLf7N2p2UA_cOCvT7zq-102" style="shape=partialRectangle;html=1;whiteSpace=wrap;connectable=0;top=1;left=0;bottom=0;right=0;overflow=hidden;shadow=0;fillColor=none;labelBorderColor=#FF66B3;strokeWidth=2;strokeColor=#33FF33;" vertex="1" parent="2MLf7N2p2UA_cOCvT7zq-75">
          <mxGeometry x="50" width="25" height="25" as="geometry" />
        </mxCell>
        <mxCell id="2MLf7N2p2UA_cOCvT7zq-99" style="shape=partialRectangle;html=1;whiteSpace=wrap;connectable=0;fillColor=none;top=1;left=0;bottom=0;right=1;overflow=hidden;strokeWidth=2;strokeColor=#33FF33;" vertex="1" parent="2MLf7N2p2UA_cOCvT7zq-75">
          <mxGeometry x="75" width="25" height="25" as="geometry" />
        </mxCell>
        <mxCell id="2MLf7N2p2UA_cOCvT7zq-96" style="shape=partialRectangle;html=1;whiteSpace=wrap;connectable=0;fillColor=none;top=0;left=0;bottom=0;right=0;overflow=hidden;" vertex="1" parent="2MLf7N2p2UA_cOCvT7zq-75">
          <mxGeometry x="100" width="25" height="25" as="geometry" />
        </mxCell>
        <mxCell id="2MLf7N2p2UA_cOCvT7zq-93" style="shape=partialRectangle;html=1;whiteSpace=wrap;connectable=0;fillColor=none;top=0;left=0;bottom=0;right=0;overflow=hidden;" vertex="1" parent="2MLf7N2p2UA_cOCvT7zq-75">
          <mxGeometry x="125" width="25" height="25" as="geometry" />
        </mxCell>
        <mxCell id="2MLf7N2p2UA_cOCvT7zq-90" style="shape=partialRectangle;html=1;whiteSpace=wrap;connectable=0;fillColor=none;top=0;left=0;bottom=0;right=0;overflow=hidden;" vertex="1" parent="2MLf7N2p2UA_cOCvT7zq-75">
          <mxGeometry x="150" width="25" height="25" as="geometry" />
        </mxCell>
        <mxCell id="2MLf7N2p2UA_cOCvT7zq-87" style="shape=partialRectangle;html=1;whiteSpace=wrap;connectable=0;fillColor=none;top=0;left=0;bottom=0;right=0;overflow=hidden;" vertex="1" parent="2MLf7N2p2UA_cOCvT7zq-75">
          <mxGeometry x="175" width="25" height="25" as="geometry" />
        </mxCell>
        <mxCell id="2MLf7N2p2UA_cOCvT7zq-76" value="" style="shape=partialRectangle;html=1;whiteSpace=wrap;connectable=0;fillColor=none;top=0;left=0;bottom=0;right=0;overflow=hidden;" vertex="1" parent="2MLf7N2p2UA_cOCvT7zq-75">
          <mxGeometry x="200" width="25" height="25" as="geometry" />
        </mxCell>
        <mxCell id="2MLf7N2p2UA_cOCvT7zq-118" style="shape=partialRectangle;html=1;whiteSpace=wrap;collapsible=0;dropTarget=0;pointerEvents=0;fillColor=none;top=0;left=0;bottom=0;right=0;points=[[0,0.5],[1,0.5]];portConstraint=eastwest;" vertex="1" parent="2MLf7N2p2UA_cOCvT7zq-74">
          <mxGeometry y="25" width="225" height="25" as="geometry" />
        </mxCell>
        <mxCell id="2MLf7N2p2UA_cOCvT7zq-119" style="shape=partialRectangle;html=1;whiteSpace=wrap;connectable=0;top=0;left=1;bottom=0;right=0;overflow=hidden;shadow=0;fillColor=none;labelBorderColor=#FF66B3;strokeColor=#FF3333;strokeWidth=2;" vertex="1" parent="2MLf7N2p2UA_cOCvT7zq-118">
          <mxGeometry width="25" height="25" as="geometry" />
        </mxCell>
        <mxCell id="2MLf7N2p2UA_cOCvT7zq-120" style="shape=partialRectangle;html=1;whiteSpace=wrap;connectable=0;top=0;left=1;bottom=0;right=0;overflow=hidden;shadow=0;fillColor=none;labelBorderColor=#FF66B3;strokeWidth=2;strokeColor=#33FF33;" vertex="1" parent="2MLf7N2p2UA_cOCvT7zq-118">
          <mxGeometry x="25" width="25" height="25" as="geometry" />
        </mxCell>
        <mxCell id="2MLf7N2p2UA_cOCvT7zq-121" style="shape=partialRectangle;html=1;whiteSpace=wrap;connectable=0;top=0;left=0;bottom=0;right=1;overflow=hidden;shadow=0;fillColor=none;labelBorderColor=#FF66B3;strokeColor=#FF3333;strokeWidth=2;" vertex="1" parent="2MLf7N2p2UA_cOCvT7zq-118">
          <mxGeometry x="50" width="25" height="25" as="geometry" />
        </mxCell>
        <mxCell id="2MLf7N2p2UA_cOCvT7zq-122" style="shape=partialRectangle;html=1;whiteSpace=wrap;connectable=0;fillColor=none;top=0;left=0;bottom=0;right=1;overflow=hidden;strokeWidth=2;strokeColor=#33FF33;" vertex="1" parent="2MLf7N2p2UA_cOCvT7zq-118">
          <mxGeometry x="75" width="25" height="25" as="geometry" />
        </mxCell>
        <mxCell id="2MLf7N2p2UA_cOCvT7zq-123" style="shape=partialRectangle;html=1;whiteSpace=wrap;connectable=0;fillColor=none;top=0;left=0;bottom=0;right=0;overflow=hidden;" vertex="1" parent="2MLf7N2p2UA_cOCvT7zq-118">
          <mxGeometry x="100" width="25" height="25" as="geometry" />
        </mxCell>
        <mxCell id="2MLf7N2p2UA_cOCvT7zq-124" style="shape=partialRectangle;html=1;whiteSpace=wrap;connectable=0;fillColor=none;top=0;left=0;bottom=0;right=0;overflow=hidden;" vertex="1" parent="2MLf7N2p2UA_cOCvT7zq-118">
          <mxGeometry x="125" width="25" height="25" as="geometry" />
        </mxCell>
        <mxCell id="2MLf7N2p2UA_cOCvT7zq-125" style="shape=partialRectangle;html=1;whiteSpace=wrap;connectable=0;fillColor=none;top=0;left=0;bottom=0;right=0;overflow=hidden;" vertex="1" parent="2MLf7N2p2UA_cOCvT7zq-118">
          <mxGeometry x="150" width="25" height="25" as="geometry" />
        </mxCell>
        <mxCell id="2MLf7N2p2UA_cOCvT7zq-126" style="shape=partialRectangle;html=1;whiteSpace=wrap;connectable=0;fillColor=none;top=0;left=0;bottom=0;right=0;overflow=hidden;" vertex="1" parent="2MLf7N2p2UA_cOCvT7zq-118">
          <mxGeometry x="175" width="25" height="25" as="geometry" />
        </mxCell>
        <mxCell id="2MLf7N2p2UA_cOCvT7zq-127" style="shape=partialRectangle;html=1;whiteSpace=wrap;connectable=0;fillColor=none;top=0;left=0;bottom=0;right=0;overflow=hidden;" vertex="1" parent="2MLf7N2p2UA_cOCvT7zq-118">
          <mxGeometry x="200" width="25" height="25" as="geometry" />
        </mxCell>
        <mxCell id="2MLf7N2p2UA_cOCvT7zq-128" style="shape=partialRectangle;html=1;whiteSpace=wrap;collapsible=0;dropTarget=0;pointerEvents=0;fillColor=none;top=0;left=0;bottom=0;right=0;points=[[0,0.5],[1,0.5]];portConstraint=eastwest;" vertex="1" parent="2MLf7N2p2UA_cOCvT7zq-74">
          <mxGeometry y="50" width="225" height="25" as="geometry" />
        </mxCell>
        <mxCell id="2MLf7N2p2UA_cOCvT7zq-129" style="shape=partialRectangle;html=1;whiteSpace=wrap;connectable=0;top=0;left=1;bottom=1;right=0;overflow=hidden;shadow=0;fillColor=none;labelBorderColor=#FF66B3;strokeColor=#FF3333;strokeWidth=2;" vertex="1" parent="2MLf7N2p2UA_cOCvT7zq-128">
          <mxGeometry width="25" height="25" as="geometry" />
        </mxCell>
        <mxCell id="2MLf7N2p2UA_cOCvT7zq-130" style="shape=partialRectangle;html=1;whiteSpace=wrap;connectable=0;top=0;left=1;bottom=1;right=0;overflow=hidden;shadow=0;fillColor=none;labelBorderColor=#FF66B3;strokeWidth=2;strokeColor=#33FF33;" vertex="1" parent="2MLf7N2p2UA_cOCvT7zq-128">
          <mxGeometry x="25" width="25" height="25" as="geometry" />
        </mxCell>
        <mxCell id="2MLf7N2p2UA_cOCvT7zq-131" style="shape=partialRectangle;html=1;whiteSpace=wrap;connectable=0;top=0;left=0;bottom=1;right=0;overflow=hidden;shadow=0;fillColor=none;labelBorderColor=#FF66B3;strokeWidth=2;strokeColor=#33FF33;" vertex="1" parent="2MLf7N2p2UA_cOCvT7zq-128">
          <mxGeometry x="50" width="25" height="25" as="geometry" />
        </mxCell>
        <mxCell id="2MLf7N2p2UA_cOCvT7zq-132" style="shape=partialRectangle;html=1;whiteSpace=wrap;connectable=0;fillColor=none;top=0;left=0;bottom=1;right=1;overflow=hidden;strokeWidth=2;strokeColor=#33FF33;" vertex="1" parent="2MLf7N2p2UA_cOCvT7zq-128">
          <mxGeometry x="75" width="25" height="25" as="geometry" />
        </mxCell>
        <mxCell id="2MLf7N2p2UA_cOCvT7zq-133" style="shape=partialRectangle;html=1;whiteSpace=wrap;connectable=0;fillColor=none;top=0;left=0;bottom=0;right=0;overflow=hidden;" vertex="1" parent="2MLf7N2p2UA_cOCvT7zq-128">
          <mxGeometry x="100" width="25" height="25" as="geometry" />
        </mxCell>
        <mxCell id="2MLf7N2p2UA_cOCvT7zq-134" style="shape=partialRectangle;html=1;whiteSpace=wrap;connectable=0;fillColor=none;top=0;left=0;bottom=0;right=0;overflow=hidden;" vertex="1" parent="2MLf7N2p2UA_cOCvT7zq-128">
          <mxGeometry x="125" width="25" height="25" as="geometry" />
        </mxCell>
        <mxCell id="2MLf7N2p2UA_cOCvT7zq-135" style="shape=partialRectangle;html=1;whiteSpace=wrap;connectable=0;fillColor=none;top=0;left=0;bottom=0;right=0;overflow=hidden;" vertex="1" parent="2MLf7N2p2UA_cOCvT7zq-128">
          <mxGeometry x="150" width="25" height="25" as="geometry" />
        </mxCell>
        <mxCell id="2MLf7N2p2UA_cOCvT7zq-136" style="shape=partialRectangle;html=1;whiteSpace=wrap;connectable=0;fillColor=none;top=0;left=0;bottom=0;right=0;overflow=hidden;" vertex="1" parent="2MLf7N2p2UA_cOCvT7zq-128">
          <mxGeometry x="175" width="25" height="25" as="geometry" />
        </mxCell>
        <mxCell id="2MLf7N2p2UA_cOCvT7zq-137" style="shape=partialRectangle;html=1;whiteSpace=wrap;connectable=0;fillColor=none;top=0;left=0;bottom=0;right=0;overflow=hidden;" vertex="1" parent="2MLf7N2p2UA_cOCvT7zq-128">
          <mxGeometry x="200" width="25" height="25" as="geometry" />
        </mxCell>
        <mxCell id="2MLf7N2p2UA_cOCvT7zq-138" style="shape=partialRectangle;html=1;whiteSpace=wrap;collapsible=0;dropTarget=0;pointerEvents=0;fillColor=none;top=0;left=0;bottom=0;right=0;points=[[0,0.5],[1,0.5]];portConstraint=eastwest;" vertex="1" parent="2MLf7N2p2UA_cOCvT7zq-74">
          <mxGeometry y="75" width="225" height="25" as="geometry" />
        </mxCell>
        <mxCell id="2MLf7N2p2UA_cOCvT7zq-139" style="shape=partialRectangle;html=1;whiteSpace=wrap;connectable=0;fillColor=none;top=0;left=0;bottom=0;right=0;overflow=hidden;" vertex="1" parent="2MLf7N2p2UA_cOCvT7zq-138">
          <mxGeometry width="25" height="25" as="geometry" />
        </mxCell>
        <mxCell id="2MLf7N2p2UA_cOCvT7zq-140" style="shape=partialRectangle;html=1;whiteSpace=wrap;connectable=0;fillColor=none;top=0;left=0;bottom=0;right=0;overflow=hidden;" vertex="1" parent="2MLf7N2p2UA_cOCvT7zq-138">
          <mxGeometry x="25" width="25" height="25" as="geometry" />
        </mxCell>
        <mxCell id="2MLf7N2p2UA_cOCvT7zq-141" style="shape=partialRectangle;html=1;whiteSpace=wrap;connectable=0;fillColor=none;top=0;left=0;bottom=0;right=0;overflow=hidden;" vertex="1" parent="2MLf7N2p2UA_cOCvT7zq-138">
          <mxGeometry x="50" width="25" height="25" as="geometry" />
        </mxCell>
        <mxCell id="2MLf7N2p2UA_cOCvT7zq-142" style="shape=partialRectangle;html=1;whiteSpace=wrap;connectable=0;fillColor=none;top=0;left=0;bottom=0;right=0;overflow=hidden;" vertex="1" parent="2MLf7N2p2UA_cOCvT7zq-138">
          <mxGeometry x="75" width="25" height="25" as="geometry" />
        </mxCell>
        <mxCell id="2MLf7N2p2UA_cOCvT7zq-143" style="shape=partialRectangle;html=1;whiteSpace=wrap;connectable=0;fillColor=none;top=0;left=0;bottom=0;right=0;overflow=hidden;" vertex="1" parent="2MLf7N2p2UA_cOCvT7zq-138">
          <mxGeometry x="100" width="25" height="25" as="geometry" />
        </mxCell>
        <mxCell id="2MLf7N2p2UA_cOCvT7zq-144" style="shape=partialRectangle;html=1;whiteSpace=wrap;connectable=0;fillColor=none;top=0;left=0;bottom=0;right=0;overflow=hidden;" vertex="1" parent="2MLf7N2p2UA_cOCvT7zq-138">
          <mxGeometry x="125" width="25" height="25" as="geometry" />
        </mxCell>
        <mxCell id="2MLf7N2p2UA_cOCvT7zq-145" style="shape=partialRectangle;html=1;whiteSpace=wrap;connectable=0;fillColor=none;top=0;left=0;bottom=0;right=0;overflow=hidden;" vertex="1" parent="2MLf7N2p2UA_cOCvT7zq-138">
          <mxGeometry x="150" width="25" height="25" as="geometry" />
        </mxCell>
        <mxCell id="2MLf7N2p2UA_cOCvT7zq-146" style="shape=partialRectangle;html=1;whiteSpace=wrap;connectable=0;fillColor=none;top=0;left=0;bottom=0;right=0;overflow=hidden;" vertex="1" parent="2MLf7N2p2UA_cOCvT7zq-138">
          <mxGeometry x="175" width="25" height="25" as="geometry" />
        </mxCell>
        <mxCell id="2MLf7N2p2UA_cOCvT7zq-147" style="shape=partialRectangle;html=1;whiteSpace=wrap;connectable=0;fillColor=none;top=0;left=0;bottom=0;right=0;overflow=hidden;" vertex="1" parent="2MLf7N2p2UA_cOCvT7zq-138">
          <mxGeometry x="200" width="25" height="25" as="geometry" />
        </mxCell>
        <mxCell id="2MLf7N2p2UA_cOCvT7zq-148" style="shape=partialRectangle;html=1;whiteSpace=wrap;collapsible=0;dropTarget=0;pointerEvents=0;fillColor=none;top=0;left=0;bottom=0;right=0;points=[[0,0.5],[1,0.5]];portConstraint=eastwest;" vertex="1" parent="2MLf7N2p2UA_cOCvT7zq-74">
          <mxGeometry y="100" width="225" height="25" as="geometry" />
        </mxCell>
        <mxCell id="2MLf7N2p2UA_cOCvT7zq-149" style="shape=partialRectangle;html=1;whiteSpace=wrap;connectable=0;fillColor=none;top=0;left=0;bottom=0;right=0;overflow=hidden;" vertex="1" parent="2MLf7N2p2UA_cOCvT7zq-148">
          <mxGeometry width="25" height="25" as="geometry" />
        </mxCell>
        <mxCell id="2MLf7N2p2UA_cOCvT7zq-150" style="shape=partialRectangle;html=1;whiteSpace=wrap;connectable=0;fillColor=none;top=0;left=0;bottom=0;right=0;overflow=hidden;" vertex="1" parent="2MLf7N2p2UA_cOCvT7zq-148">
          <mxGeometry x="25" width="25" height="25" as="geometry" />
        </mxCell>
        <mxCell id="2MLf7N2p2UA_cOCvT7zq-151" style="shape=partialRectangle;html=1;whiteSpace=wrap;connectable=0;fillColor=none;top=0;left=0;bottom=0;right=0;overflow=hidden;" vertex="1" parent="2MLf7N2p2UA_cOCvT7zq-148">
          <mxGeometry x="50" width="25" height="25" as="geometry" />
        </mxCell>
        <mxCell id="2MLf7N2p2UA_cOCvT7zq-152" style="shape=partialRectangle;html=1;whiteSpace=wrap;connectable=0;fillColor=none;top=0;left=0;bottom=0;right=0;overflow=hidden;" vertex="1" parent="2MLf7N2p2UA_cOCvT7zq-148">
          <mxGeometry x="75" width="25" height="25" as="geometry" />
        </mxCell>
        <mxCell id="2MLf7N2p2UA_cOCvT7zq-153" style="shape=partialRectangle;html=1;whiteSpace=wrap;connectable=0;fillColor=none;top=0;left=0;bottom=0;right=0;overflow=hidden;" vertex="1" parent="2MLf7N2p2UA_cOCvT7zq-148">
          <mxGeometry x="100" width="25" height="25" as="geometry" />
        </mxCell>
        <mxCell id="2MLf7N2p2UA_cOCvT7zq-154" style="shape=partialRectangle;html=1;whiteSpace=wrap;connectable=0;top=0;left=0;bottom=0;right=0;overflow=hidden;strokeColor=#36393d;gradientDirection=north;shadow=0;sketch=1;fillColor=none;" vertex="1" parent="2MLf7N2p2UA_cOCvT7zq-148">
          <mxGeometry x="125" width="25" height="25" as="geometry" />
        </mxCell>
        <mxCell id="2MLf7N2p2UA_cOCvT7zq-155" style="shape=partialRectangle;html=1;whiteSpace=wrap;connectable=0;fillColor=none;top=0;left=0;bottom=0;right=0;overflow=hidden;" vertex="1" parent="2MLf7N2p2UA_cOCvT7zq-148">
          <mxGeometry x="150" width="25" height="25" as="geometry" />
        </mxCell>
        <mxCell id="2MLf7N2p2UA_cOCvT7zq-156" style="shape=partialRectangle;html=1;whiteSpace=wrap;connectable=0;fillColor=none;top=0;left=0;bottom=0;right=0;overflow=hidden;" vertex="1" parent="2MLf7N2p2UA_cOCvT7zq-148">
          <mxGeometry x="175" width="25" height="25" as="geometry" />
        </mxCell>
        <mxCell id="2MLf7N2p2UA_cOCvT7zq-157" style="shape=partialRectangle;html=1;whiteSpace=wrap;connectable=0;fillColor=none;top=0;left=0;bottom=0;right=0;overflow=hidden;" vertex="1" parent="2MLf7N2p2UA_cOCvT7zq-148">
          <mxGeometry x="200" width="25" height="25" as="geometry" />
        </mxCell>
        <mxCell id="2MLf7N2p2UA_cOCvT7zq-158" style="shape=partialRectangle;html=1;whiteSpace=wrap;collapsible=0;dropTarget=0;pointerEvents=0;fillColor=none;top=0;left=0;bottom=0;right=0;points=[[0,0.5],[1,0.5]];portConstraint=eastwest;" vertex="1" parent="2MLf7N2p2UA_cOCvT7zq-74">
          <mxGeometry y="125" width="225" height="25" as="geometry" />
        </mxCell>
        <mxCell id="2MLf7N2p2UA_cOCvT7zq-159" style="shape=partialRectangle;html=1;whiteSpace=wrap;connectable=0;fillColor=none;top=0;left=0;bottom=0;right=0;overflow=hidden;" vertex="1" parent="2MLf7N2p2UA_cOCvT7zq-158">
          <mxGeometry width="25" height="25" as="geometry" />
        </mxCell>
        <mxCell id="2MLf7N2p2UA_cOCvT7zq-160" style="shape=partialRectangle;html=1;whiteSpace=wrap;connectable=0;fillColor=none;top=0;left=0;bottom=0;right=0;overflow=hidden;" vertex="1" parent="2MLf7N2p2UA_cOCvT7zq-158">
          <mxGeometry x="25" width="25" height="25" as="geometry" />
        </mxCell>
        <mxCell id="2MLf7N2p2UA_cOCvT7zq-161" style="shape=partialRectangle;html=1;whiteSpace=wrap;connectable=0;fillColor=none;top=0;left=0;bottom=0;right=0;overflow=hidden;" vertex="1" parent="2MLf7N2p2UA_cOCvT7zq-158">
          <mxGeometry x="50" width="25" height="25" as="geometry" />
        </mxCell>
        <mxCell id="2MLf7N2p2UA_cOCvT7zq-162" style="shape=partialRectangle;html=1;whiteSpace=wrap;connectable=0;fillColor=none;top=0;left=0;bottom=0;right=0;overflow=hidden;" vertex="1" parent="2MLf7N2p2UA_cOCvT7zq-158">
          <mxGeometry x="75" width="25" height="25" as="geometry" />
        </mxCell>
        <mxCell id="2MLf7N2p2UA_cOCvT7zq-163" style="shape=partialRectangle;html=1;whiteSpace=wrap;connectable=0;fillColor=none;top=0;left=0;bottom=0;right=0;overflow=hidden;" vertex="1" parent="2MLf7N2p2UA_cOCvT7zq-158">
          <mxGeometry x="100" width="25" height="25" as="geometry" />
        </mxCell>
        <mxCell id="2MLf7N2p2UA_cOCvT7zq-164" style="shape=partialRectangle;html=1;whiteSpace=wrap;connectable=0;fillColor=none;top=0;left=0;bottom=0;right=0;overflow=hidden;" vertex="1" parent="2MLf7N2p2UA_cOCvT7zq-158">
          <mxGeometry x="125" width="25" height="25" as="geometry" />
        </mxCell>
        <mxCell id="2MLf7N2p2UA_cOCvT7zq-165" style="shape=partialRectangle;html=1;whiteSpace=wrap;connectable=0;fillColor=none;top=0;left=0;bottom=0;right=0;overflow=hidden;" vertex="1" parent="2MLf7N2p2UA_cOCvT7zq-158">
          <mxGeometry x="150" width="25" height="25" as="geometry" />
        </mxCell>
        <mxCell id="2MLf7N2p2UA_cOCvT7zq-166" style="shape=partialRectangle;html=1;whiteSpace=wrap;connectable=0;fillColor=none;top=0;left=0;bottom=0;right=0;overflow=hidden;" vertex="1" parent="2MLf7N2p2UA_cOCvT7zq-158">
          <mxGeometry x="175" width="25" height="25" as="geometry" />
        </mxCell>
        <mxCell id="2MLf7N2p2UA_cOCvT7zq-167" style="shape=partialRectangle;html=1;whiteSpace=wrap;connectable=0;fillColor=none;top=0;left=0;bottom=0;right=0;overflow=hidden;" vertex="1" parent="2MLf7N2p2UA_cOCvT7zq-158">
          <mxGeometry x="200" width="25" height="25" as="geometry" />
        </mxCell>
        <mxCell id="2MLf7N2p2UA_cOCvT7zq-168" style="shape=partialRectangle;html=1;whiteSpace=wrap;collapsible=0;dropTarget=0;pointerEvents=0;fillColor=none;top=0;left=0;bottom=0;right=0;points=[[0,0.5],[1,0.5]];portConstraint=eastwest;" vertex="1" parent="2MLf7N2p2UA_cOCvT7zq-74">
          <mxGeometry y="150" width="225" height="25" as="geometry" />
        </mxCell>
        <mxCell id="2MLf7N2p2UA_cOCvT7zq-169" style="shape=partialRectangle;html=1;whiteSpace=wrap;connectable=0;fillColor=none;top=0;left=0;bottom=0;right=0;overflow=hidden;" vertex="1" parent="2MLf7N2p2UA_cOCvT7zq-168">
          <mxGeometry width="25" height="25" as="geometry" />
        </mxCell>
        <mxCell id="2MLf7N2p2UA_cOCvT7zq-170" style="shape=partialRectangle;html=1;whiteSpace=wrap;connectable=0;fillColor=none;top=0;left=0;bottom=0;right=0;overflow=hidden;" vertex="1" parent="2MLf7N2p2UA_cOCvT7zq-168">
          <mxGeometry x="25" width="25" height="25" as="geometry" />
        </mxCell>
        <mxCell id="2MLf7N2p2UA_cOCvT7zq-171" style="shape=partialRectangle;html=1;whiteSpace=wrap;connectable=0;fillColor=none;top=0;left=0;bottom=0;right=0;overflow=hidden;" vertex="1" parent="2MLf7N2p2UA_cOCvT7zq-168">
          <mxGeometry x="50" width="25" height="25" as="geometry" />
        </mxCell>
        <mxCell id="2MLf7N2p2UA_cOCvT7zq-172" style="shape=partialRectangle;html=1;whiteSpace=wrap;connectable=0;fillColor=none;top=0;left=0;bottom=0;right=0;overflow=hidden;" vertex="1" parent="2MLf7N2p2UA_cOCvT7zq-168">
          <mxGeometry x="75" width="25" height="25" as="geometry" />
        </mxCell>
        <mxCell id="2MLf7N2p2UA_cOCvT7zq-173" style="shape=partialRectangle;html=1;whiteSpace=wrap;connectable=0;fillColor=none;top=0;left=0;bottom=0;right=0;overflow=hidden;" vertex="1" parent="2MLf7N2p2UA_cOCvT7zq-168">
          <mxGeometry x="100" width="25" height="25" as="geometry" />
        </mxCell>
        <mxCell id="2MLf7N2p2UA_cOCvT7zq-174" style="shape=partialRectangle;html=1;whiteSpace=wrap;connectable=0;fillColor=none;top=0;left=0;bottom=0;right=0;overflow=hidden;" vertex="1" parent="2MLf7N2p2UA_cOCvT7zq-168">
          <mxGeometry x="125" width="25" height="25" as="geometry" />
        </mxCell>
        <mxCell id="2MLf7N2p2UA_cOCvT7zq-175" style="shape=partialRectangle;html=1;whiteSpace=wrap;connectable=0;fillColor=none;top=0;left=0;bottom=0;right=0;overflow=hidden;" vertex="1" parent="2MLf7N2p2UA_cOCvT7zq-168">
          <mxGeometry x="150" width="25" height="25" as="geometry" />
        </mxCell>
        <mxCell id="2MLf7N2p2UA_cOCvT7zq-176" style="shape=partialRectangle;html=1;whiteSpace=wrap;connectable=0;fillColor=none;top=0;left=0;bottom=0;right=0;overflow=hidden;" vertex="1" parent="2MLf7N2p2UA_cOCvT7zq-168">
          <mxGeometry x="175" width="25" height="25" as="geometry" />
        </mxCell>
        <mxCell id="2MLf7N2p2UA_cOCvT7zq-177" style="shape=partialRectangle;html=1;whiteSpace=wrap;connectable=0;fillColor=none;top=0;left=0;bottom=0;right=0;overflow=hidden;" vertex="1" parent="2MLf7N2p2UA_cOCvT7zq-168">
          <mxGeometry x="200" width="25" height="25" as="geometry" />
        </mxCell>
        <mxCell id="2MLf7N2p2UA_cOCvT7zq-178" style="shape=partialRectangle;html=1;whiteSpace=wrap;collapsible=0;dropTarget=0;pointerEvents=0;fillColor=none;top=0;left=0;bottom=0;right=0;points=[[0,0.5],[1,0.5]];portConstraint=eastwest;" vertex="1" parent="2MLf7N2p2UA_cOCvT7zq-74">
          <mxGeometry y="175" width="225" height="25" as="geometry" />
        </mxCell>
        <mxCell id="2MLf7N2p2UA_cOCvT7zq-179" style="shape=partialRectangle;html=1;whiteSpace=wrap;connectable=0;fillColor=none;top=0;left=0;bottom=0;right=0;overflow=hidden;" vertex="1" parent="2MLf7N2p2UA_cOCvT7zq-178">
          <mxGeometry width="25" height="25" as="geometry" />
        </mxCell>
        <mxCell id="2MLf7N2p2UA_cOCvT7zq-180" style="shape=partialRectangle;html=1;whiteSpace=wrap;connectable=0;fillColor=none;top=0;left=0;bottom=0;right=0;overflow=hidden;" vertex="1" parent="2MLf7N2p2UA_cOCvT7zq-178">
          <mxGeometry x="25" width="25" height="25" as="geometry" />
        </mxCell>
        <mxCell id="2MLf7N2p2UA_cOCvT7zq-181" style="shape=partialRectangle;html=1;whiteSpace=wrap;connectable=0;fillColor=none;top=0;left=0;bottom=0;right=0;overflow=hidden;" vertex="1" parent="2MLf7N2p2UA_cOCvT7zq-178">
          <mxGeometry x="50" width="25" height="25" as="geometry" />
        </mxCell>
        <mxCell id="2MLf7N2p2UA_cOCvT7zq-182" style="shape=partialRectangle;html=1;whiteSpace=wrap;connectable=0;fillColor=none;top=0;left=0;bottom=0;right=0;overflow=hidden;" vertex="1" parent="2MLf7N2p2UA_cOCvT7zq-178">
          <mxGeometry x="75" width="25" height="25" as="geometry" />
        </mxCell>
        <mxCell id="2MLf7N2p2UA_cOCvT7zq-183" style="shape=partialRectangle;html=1;whiteSpace=wrap;connectable=0;fillColor=none;top=0;left=0;bottom=0;right=0;overflow=hidden;" vertex="1" parent="2MLf7N2p2UA_cOCvT7zq-178">
          <mxGeometry x="100" width="25" height="25" as="geometry" />
        </mxCell>
        <mxCell id="2MLf7N2p2UA_cOCvT7zq-184" style="shape=partialRectangle;html=1;whiteSpace=wrap;connectable=0;fillColor=none;top=0;left=0;bottom=0;right=0;overflow=hidden;" vertex="1" parent="2MLf7N2p2UA_cOCvT7zq-178">
          <mxGeometry x="125" width="25" height="25" as="geometry" />
        </mxCell>
        <mxCell id="2MLf7N2p2UA_cOCvT7zq-185" style="shape=partialRectangle;html=1;whiteSpace=wrap;connectable=0;fillColor=none;top=0;left=0;bottom=0;right=0;overflow=hidden;" vertex="1" parent="2MLf7N2p2UA_cOCvT7zq-178">
          <mxGeometry x="150" width="25" height="25" as="geometry" />
        </mxCell>
        <mxCell id="2MLf7N2p2UA_cOCvT7zq-186" style="shape=partialRectangle;html=1;whiteSpace=wrap;connectable=0;fillColor=none;top=0;left=0;bottom=0;right=0;overflow=hidden;" vertex="1" parent="2MLf7N2p2UA_cOCvT7zq-178">
          <mxGeometry x="175" width="25" height="25" as="geometry" />
        </mxCell>
        <mxCell id="2MLf7N2p2UA_cOCvT7zq-187" style="shape=partialRectangle;html=1;whiteSpace=wrap;connectable=0;fillColor=none;top=0;left=0;bottom=0;right=0;overflow=hidden;" vertex="1" parent="2MLf7N2p2UA_cOCvT7zq-178">
          <mxGeometry x="200" width="25" height="25" as="geometry" />
        </mxCell>
        <mxCell id="2MLf7N2p2UA_cOCvT7zq-188" style="shape=partialRectangle;html=1;whiteSpace=wrap;collapsible=0;dropTarget=0;pointerEvents=0;fillColor=none;top=0;left=0;bottom=0;right=0;points=[[0,0.5],[1,0.5]];portConstraint=eastwest;" vertex="1" parent="2MLf7N2p2UA_cOCvT7zq-74">
          <mxGeometry y="200" width="225" height="25" as="geometry" />
        </mxCell>
        <mxCell id="2MLf7N2p2UA_cOCvT7zq-189" style="shape=partialRectangle;html=1;whiteSpace=wrap;connectable=0;fillColor=none;top=0;left=0;bottom=0;right=0;overflow=hidden;" vertex="1" parent="2MLf7N2p2UA_cOCvT7zq-188">
          <mxGeometry width="25" height="25" as="geometry" />
        </mxCell>
        <mxCell id="2MLf7N2p2UA_cOCvT7zq-190" style="shape=partialRectangle;html=1;whiteSpace=wrap;connectable=0;fillColor=none;top=0;left=0;bottom=0;right=0;overflow=hidden;" vertex="1" parent="2MLf7N2p2UA_cOCvT7zq-188">
          <mxGeometry x="25" width="25" height="25" as="geometry" />
        </mxCell>
        <mxCell id="2MLf7N2p2UA_cOCvT7zq-191" style="shape=partialRectangle;html=1;whiteSpace=wrap;connectable=0;fillColor=none;top=0;left=0;bottom=0;right=0;overflow=hidden;" vertex="1" parent="2MLf7N2p2UA_cOCvT7zq-188">
          <mxGeometry x="50" width="25" height="25" as="geometry" />
        </mxCell>
        <mxCell id="2MLf7N2p2UA_cOCvT7zq-192" style="shape=partialRectangle;html=1;whiteSpace=wrap;connectable=0;fillColor=none;top=0;left=0;bottom=0;right=0;overflow=hidden;" vertex="1" parent="2MLf7N2p2UA_cOCvT7zq-188">
          <mxGeometry x="75" width="25" height="25" as="geometry" />
        </mxCell>
        <mxCell id="2MLf7N2p2UA_cOCvT7zq-193" style="shape=partialRectangle;html=1;whiteSpace=wrap;connectable=0;fillColor=none;top=0;left=0;bottom=0;right=0;overflow=hidden;" vertex="1" parent="2MLf7N2p2UA_cOCvT7zq-188">
          <mxGeometry x="100" width="25" height="25" as="geometry" />
        </mxCell>
        <mxCell id="2MLf7N2p2UA_cOCvT7zq-194" style="shape=partialRectangle;html=1;whiteSpace=wrap;connectable=0;fillColor=none;top=0;left=0;bottom=0;right=0;overflow=hidden;" vertex="1" parent="2MLf7N2p2UA_cOCvT7zq-188">
          <mxGeometry x="125" width="25" height="25" as="geometry" />
        </mxCell>
        <mxCell id="2MLf7N2p2UA_cOCvT7zq-195" style="shape=partialRectangle;html=1;whiteSpace=wrap;connectable=0;fillColor=none;top=0;left=0;bottom=0;right=0;overflow=hidden;" vertex="1" parent="2MLf7N2p2UA_cOCvT7zq-188">
          <mxGeometry x="150" width="25" height="25" as="geometry" />
        </mxCell>
        <mxCell id="2MLf7N2p2UA_cOCvT7zq-196" style="shape=partialRectangle;html=1;whiteSpace=wrap;connectable=0;fillColor=none;top=0;left=0;bottom=0;right=0;overflow=hidden;" vertex="1" parent="2MLf7N2p2UA_cOCvT7zq-188">
          <mxGeometry x="175" width="25" height="25" as="geometry" />
        </mxCell>
        <mxCell id="2MLf7N2p2UA_cOCvT7zq-197" style="shape=partialRectangle;html=1;whiteSpace=wrap;connectable=0;fillColor=none;top=0;left=0;bottom=0;right=0;overflow=hidden;" vertex="1" parent="2MLf7N2p2UA_cOCvT7zq-188">
          <mxGeometry x="200" width="25" height="25" as="geometry" />
        </mxCell>
        <mxCell id="2MLf7N2p2UA_cOCvT7zq-380" style="shape=partialRectangle;html=1;whiteSpace=wrap;connectable=0;fillColor=none;top=0;left=1;bottom=0;right=0;overflow=hidden;strokeColor=#FF3333;strokeWidth=2;" vertex="1" parent="1">
          <mxGeometry x="212" y="752" width="25" height="25" as="geometry" />
        </mxCell>
        <mxCell id="2MLf7N2p2UA_cOCvT7zq-381" style="shape=partialRectangle;html=1;whiteSpace=wrap;connectable=0;fillColor=none;top=0;left=1;bottom=0;right=0;overflow=hidden;strokeColor=#FF3333;strokeWidth=2;" vertex="1" parent="1">
          <mxGeometry x="212" y="802" width="25" height="25" as="geometry" />
        </mxCell>
        <mxCell id="2MLf7N2p2UA_cOCvT7zq-382" value="" style="shape=curlyBracket;whiteSpace=wrap;html=1;rounded=1;shadow=0;labelBackgroundColor=none;sketch=0;strokeWidth=1;fillColor=none;gradientColor=none;fontSize=10;direction=south;" vertex="1" parent="1">
          <mxGeometry x="137" y="737" width="25" height="15" as="geometry" />
        </mxCell>
        <mxCell id="2MLf7N2p2UA_cOCvT7zq-383" value="stride：1" style="text;html=1;align=center;verticalAlign=middle;resizable=0;points=[];autosize=1;fontSize=10;" vertex="1" parent="1">
          <mxGeometry x="124.5" y="716" width="50" height="16" as="geometry" />
        </mxCell>
        <mxCell id="2MLf7N2p2UA_cOCvT7zq-384" value="" style="shape=curlyBracket;whiteSpace=wrap;html=1;rounded=1;shadow=0;labelBackgroundColor=none;sketch=0;strokeColor=#000000;strokeWidth=1;fillColor=none;gradientColor=none;fontSize=10;" vertex="1" parent="1">
          <mxGeometry x="117" y="752" width="20" height="75" as="geometry" />
        </mxCell>
        <mxCell id="2MLf7N2p2UA_cOCvT7zq-385" value="receptive field：3×3" style="text;html=1;align=center;verticalAlign=middle;resizable=0;points=[];autosize=1;fontSize=10;" vertex="1" parent="1">
          <mxGeometry x="18" y="782" width="100" height="17" as="geometry" />
        </mxCell>
        <mxCell id="2MLf7N2p2UA_cOCvT7zq-386" value="" style="edgeStyle=segmentEdgeStyle;endArrow=classic;html=1;fontSize=10;entryX=0.212;entryY=-0.013;entryDx=0;entryDy=0;entryPerimeter=0;" edge="1" parent="1" source="2MLf7N2p2UA_cOCvT7zq-75" target="2MLf7N2p2UA_cOCvT7zq-290">
          <mxGeometry width="50" height="50" relative="1" as="geometry">
            <mxPoint x="201" y="707" as="sourcePoint" />
            <mxPoint x="522" y="775" as="targetPoint" />
            <Array as="points">
              <mxPoint x="201" y="722" />
              <mxPoint x="522" y="722" />
              <mxPoint x="522" y="763" />
            </Array>
          </mxGeometry>
        </mxCell>
        <mxCell id="2MLf7N2p2UA_cOCvT7zq-387" value="9×9&amp;nbsp;image input layer" style="text;html=1;align=center;verticalAlign=middle;resizable=0;points=[];autosize=1;fontSize=10;" vertex="1" parent="1">
          <mxGeometry x="196.5" y="986" width="106" height="16" as="geometry" />
        </mxCell>
        <mxCell id="2MLf7N2p2UA_cOCvT7zq-388" value="7×7 convolution layer" style="text;html=1;align=center;verticalAlign=middle;resizable=0;points=[];autosize=1;fontSize=10;" vertex="1" parent="1">
          <mxGeometry x="525" y="985" width="105" height="17" as="geometry" />
        </mxCell>
        <mxCell id="2MLf7N2p2UA_cOCvT7zq-390" value="output" style="text;html=1;align=center;verticalAlign=middle;resizable=0;points=[];autosize=1;fontSize=10;" vertex="1" parent="1">
          <mxGeometry x="350" y="703" width="39" height="17" as="geometry" />
        </mxCell>
      </root>
    </mxGraphModel>
  </diagram>
</mxfile>
